<svg width="32" height="32" viewBox="0 0 32 32" fill="none" xmlns="http://www.w3.org/2000/svg">
<g clip-path="url(#clip0_2102_6316)">
<path d="M16 32C24.8366 32 32 24.8366 32 16C32 7.16344 24.8366 0 16 0C7.16344 0 0 7.16344 0 16C0 24.8366 7.16344 32 16 32Z" fill="#F0F0F0"/>
<path d="M15.9999 0C9.12049 0 3.2558 4.342 0.995117 10.4348H31.0048C28.7441 4.342 22.8794 0 15.9999 0Z" fill="#A2001D"/>
<path d="M15.9999 32C22.8794 32 28.7441 27.658 31.0047 21.5652H0.995117C3.2558 27.658 9.12049 32 15.9999 32Z" fill="#0052B4"/>
</g>
<defs>
<clipPath id="clip0_2102_6316">
<rect width="32" height="32" rx="16" fill="white"/>
</clipPath>
</defs>
</svg>
