<svg width="240" height="240" viewBox="0 0 240 240" fill="none" xmlns="http://www.w3.org/2000/svg">
<path d="M171.067 62.8128C171.067 62.8128 151.742 41.64 121.147 42.6528C90.552 43.6656 64.4544 64.1808 42.8784 80.232C21.3024 96.2832 15.5184 121.214 28.0608 140.678C40.6032 160.142 60.5904 151.949 86.0352 164.582C111.48 177.216 116.314 184.392 144.658 181.32C173.002 178.248 194.578 146.827 191.362 113.357C188.146 79.8864 171.067 62.8128 171.067 62.8128Z" fill="url(#paint0_linear_223_9970)"/>
<path d="M123.658 193.57C176.285 193.57 218.947 191.242 218.947 188.371C218.947 185.5 176.285 183.173 123.658 183.173C71.0306 183.173 28.368 185.5 28.368 188.371C28.368 191.242 71.0306 193.57 123.658 193.57Z" fill="#5767FF"/>
<path opacity="0.3" d="M123.658 193.57C176.285 193.57 218.947 191.242 218.947 188.371C218.947 185.5 176.285 183.173 123.658 183.173C71.0306 183.173 28.368 185.5 28.368 188.371C28.368 191.242 71.0306 193.57 123.658 193.57Z" fill="white"/>
<path d="M179.971 110.016C179.942 110.016 180.302 108.226 180.341 108.096C180.754 106.819 182.309 104.592 183.811 104.597C184.061 104.604 184.306 104.664 184.532 104.772C184.757 104.88 184.957 105.035 185.119 105.225C185.28 105.416 185.4 105.638 185.47 105.878C185.54 106.118 185.559 106.37 185.525 106.618C185.414 107.678 184.464 108.576 183.605 109.099C182.597 109.728 179.971 110.016 179.971 110.016Z" fill="#5767FF"/>
<path d="M177.058 97.9632C178.474 98.472 179.179 101.093 179.131 102.437C179.131 102.552 178.862 104.357 178.838 104.357H178.81C178.92 104.77 179.04 105.216 179.16 105.701C179.371 106.603 179.602 107.621 179.779 108.754C179.985 109.969 180.12 111.195 180.182 112.426C180.259 113.803 180.212 115.184 180.043 116.554C180.04 116.569 180.04 116.586 180.043 116.602C180.23 116.203 180.782 115.099 180.835 115.018C181.574 113.894 183.658 112.138 185.112 112.56C185.35 112.633 185.571 112.756 185.759 112.92C185.946 113.084 186.098 113.286 186.203 113.512C186.308 113.738 186.364 113.984 186.368 114.234C186.372 114.483 186.323 114.731 186.226 114.96C185.842 115.949 184.69 116.568 183.725 116.842C182.635 117.154 180.206 116.784 180.014 116.755C179.81 118.143 179.511 119.516 179.122 120.864C178.898 121.651 178.654 122.438 178.392 123.226C178.56 122.885 178.718 122.582 178.742 122.539C179.482 121.416 181.565 119.659 183.019 120.077C183.258 120.15 183.479 120.272 183.667 120.436C183.855 120.6 184.007 120.802 184.112 121.028C184.217 121.254 184.273 121.501 184.277 121.75C184.28 122 184.231 122.247 184.133 122.477C183.749 123.47 182.597 124.085 181.632 124.363C180.667 124.642 178.574 124.363 178.027 124.291C177.926 124.589 177.826 124.891 177.72 125.189C177.24 126.629 176.722 128.069 176.28 129.48C176.122 129.96 175.982 130.478 175.843 130.978C175.997 130.675 176.126 130.421 176.15 130.387C176.885 129.264 178.973 127.507 180.422 127.925C180.661 127.998 180.881 128.121 181.069 128.285C181.257 128.449 181.409 128.651 181.514 128.877C181.619 129.103 181.676 129.348 181.681 129.598C181.685 129.847 181.638 130.095 181.541 130.325C181.157 131.314 180 131.933 179.035 132.206C178.07 132.48 176.184 132.24 175.531 132.149C175.402 132.667 175.277 133.181 175.176 133.685C175.114 134.03 175.032 134.362 174.989 134.712C174.946 135.062 174.893 135.403 174.845 135.739C174.778 136.397 174.701 137.078 174.653 137.722C174.614 138.168 174.586 138.595 174.557 139.022C174.706 138.542 175.037 137.554 175.061 137.472C175.594 136.417 176.387 135.515 177.365 134.851C177.418 134.731 177.484 134.617 177.562 134.51C177.698 134.301 177.876 134.122 178.086 133.986C178.295 133.85 178.531 133.76 178.778 133.721C179.024 133.682 179.276 133.696 179.518 133.76C179.759 133.825 179.984 133.94 180.178 134.098C181.32 135.058 181.032 137.784 180.509 139.022C180.48 139.094 180.053 139.848 179.779 140.318C179.986 140.069 180.178 139.838 180.394 139.56C180.811 139.051 181.243 138.552 181.704 138.014L182.41 137.251C182.64 136.987 182.918 136.742 183.173 136.488C183.773 135.907 184.411 135.346 185.069 134.794C184.618 134.429 183.048 133.099 182.597 132.197C182.146 131.294 181.824 130.032 182.294 129.082C182.397 128.853 182.547 128.649 182.734 128.483C182.921 128.316 183.141 128.191 183.38 128.116C183.619 128.04 183.871 128.015 184.12 128.044C184.368 128.072 184.608 128.153 184.824 128.28C186.096 129.077 186.226 131.789 185.894 133.08C185.894 133.162 185.53 134.069 185.333 134.563C185.731 134.237 186.125 133.906 186.538 133.603C187.728 132.682 188.962 131.789 190.186 130.891L191.304 130.061C191.146 129.931 189.245 128.395 188.736 127.387C188.29 126.49 187.963 125.222 188.434 124.267C188.537 124.039 188.687 123.836 188.874 123.67C189.062 123.504 189.281 123.379 189.52 123.303C189.758 123.228 190.01 123.203 190.259 123.231C190.507 123.259 190.747 123.339 190.963 123.466C192.235 124.267 192.365 126.979 192.034 128.266C192.01 128.366 191.515 129.672 191.371 129.998C192.192 129.384 193.003 128.77 193.771 128.131C194.823 127.272 195.817 126.346 196.747 125.357C196.675 125.299 194.683 123.706 194.165 122.669C193.714 121.771 193.392 120.504 193.862 119.554C193.965 119.325 194.114 119.121 194.301 118.955C194.487 118.789 194.707 118.663 194.945 118.588C195.184 118.512 195.435 118.488 195.684 118.516C195.932 118.544 196.172 118.625 196.387 118.752C197.664 119.549 197.794 122.261 197.462 123.552C197.438 123.634 197.064 124.632 196.872 125.102L196.949 125.146C197.859 124.126 198.677 123.027 199.392 121.862C199.79 121.229 200.141 120.6 200.467 119.976C200.064 119.717 198.245 118.536 197.674 117.634C197.102 116.731 196.67 115.57 197.03 114.571C197.108 114.336 197.234 114.12 197.399 113.936C197.565 113.753 197.767 113.606 197.993 113.504C198.219 113.403 198.464 113.35 198.711 113.349C198.958 113.347 199.203 113.397 199.43 113.496C200.789 114.149 201.211 116.832 201.024 118.162C201.024 118.234 200.832 118.958 200.693 119.486C200.832 119.203 200.986 118.915 201.115 118.642C201.595 117.614 202.003 116.645 202.339 115.762C202.531 115.282 202.69 114.802 202.819 114.403C202.555 113.923 201.528 112.075 201.427 111.043C201.326 110.011 201.49 108.744 202.272 108.024C202.45 107.849 202.664 107.713 202.898 107.626C203.132 107.539 203.382 107.502 203.632 107.518C203.881 107.534 204.125 107.602 204.346 107.718C204.567 107.834 204.762 107.996 204.917 108.192C205.819 109.397 204.96 111.97 204.182 113.069C204.115 113.16 202.891 114.509 202.877 114.509V114.48C202.742 114.888 202.598 115.325 202.426 115.795C202.109 116.664 201.734 117.648 201.264 118.675C200.763 119.801 200.197 120.897 199.57 121.958C198.871 123.147 198.067 124.272 197.17 125.318L197.136 125.357C197.51 125.122 198.576 124.512 198.667 124.474C199.906 123.946 202.603 123.643 203.592 124.781C203.75 124.974 203.867 125.198 203.933 125.439C203.999 125.68 204.014 125.932 203.977 126.179C203.94 126.426 203.852 126.662 203.718 126.873C203.583 127.083 203.407 127.264 203.198 127.402C202.33 128.016 201.024 127.882 200.069 127.589C198.989 127.248 197.189 125.602 197.021 125.472C196.085 126.516 195.079 127.496 194.011 128.405C193.387 128.942 192.749 129.461 192.091 129.97C192.422 129.782 192.72 129.614 192.763 129.595C193.997 129.067 196.694 128.765 197.683 129.902C197.842 130.095 197.959 130.319 198.026 130.56C198.093 130.801 198.108 131.053 198.071 131.301C198.034 131.548 197.945 131.784 197.81 131.995C197.676 132.206 197.498 132.386 197.29 132.523C196.426 133.138 195.12 133.003 194.165 132.71C193.21 132.418 191.611 131.035 191.198 130.666L190.445 131.246C189.235 132.173 188.045 133.09 186.869 134.026C186.461 134.357 186.072 134.698 185.678 135.034C185.976 134.866 186.221 134.726 186.264 134.712C187.498 134.179 190.195 133.882 191.184 135.014C191.344 135.207 191.461 135.431 191.528 135.672C191.596 135.913 191.611 136.165 191.574 136.413C191.537 136.66 191.448 136.897 191.313 137.108C191.178 137.318 191 137.498 190.79 137.635C189.922 138.25 188.621 138.115 187.666 137.827C186.71 137.539 185.266 136.282 184.786 135.845C184.397 136.205 184.003 136.56 183.643 136.93C183.398 137.184 183.163 137.41 182.923 137.683C182.683 137.957 182.443 138.202 182.232 138.461C181.814 138.97 181.378 139.498 180.979 140.006C180.701 140.357 180.442 140.698 180.182 141.038C180.581 140.707 181.387 140.078 181.459 140.026C182.597 139.315 185.218 138.61 186.37 139.579C186.556 139.747 186.704 139.951 186.806 140.18C186.908 140.409 186.961 140.656 186.961 140.906C186.961 141.157 186.908 141.404 186.806 141.633C186.704 141.861 186.556 142.066 186.37 142.234C185.606 142.968 184.301 143.05 183.312 142.896C182.218 142.723 180.24 141.456 179.995 141.274C179.563 141.84 179.15 142.397 178.766 142.93C177.437 144.768 176.4 146.347 175.69 147.466L175.618 147.576L174.696 147.13C174.744 147.058 174.792 146.99 174.84 146.914C175.584 145.8 176.669 144.226 178.051 142.397C178.488 141.821 178.963 141.211 179.458 140.587C178.943 140.027 178.462 139.438 178.018 138.821C176.957 139.234 174.754 139.253 174.47 139.253C174.427 139.963 174.389 140.654 174.36 141.307C174.264 143.578 174.274 145.469 174.298 146.789V146.947L173.285 146.467C173.285 145.157 173.338 143.376 173.472 141.278C173.515 140.554 173.578 139.781 173.65 138.994C173.366 138.922 171.077 138.331 170.213 137.64C169.43 137.016 168.605 135.998 168.634 134.938C168.631 134.687 168.681 134.439 168.781 134.21C168.881 133.981 169.028 133.775 169.213 133.606C169.398 133.438 169.616 133.31 169.854 133.232C170.092 133.153 170.343 133.126 170.592 133.152C172.085 133.344 173.333 135.754 173.582 137.074C173.582 137.15 173.659 138.034 173.688 138.562C173.722 138.235 173.746 137.923 173.779 137.602C173.846 136.944 173.933 136.286 174.024 135.581C174.077 135.245 174.134 134.904 174.187 134.558C174.24 134.213 174.331 133.858 174.403 133.502C174.586 132.686 174.806 131.866 175.051 131.045C174.475 130.982 172.435 130.742 171.557 130.243C170.678 129.744 169.718 128.861 169.589 127.81C169.548 127.562 169.56 127.31 169.623 127.067C169.687 126.825 169.802 126.599 169.959 126.404C170.116 126.209 170.313 126.05 170.536 125.936C170.759 125.823 171.004 125.758 171.254 125.746C172.757 125.707 174.36 127.901 174.802 129.168C174.83 129.25 175.046 130.195 175.152 130.718C175.306 130.238 175.45 129.73 175.632 129.24C176.112 127.8 176.654 126.389 177.182 124.963C177.346 124.526 177.499 124.09 177.662 123.658C177.456 123.658 175.022 123.403 174.043 122.842C173.174 122.362 172.205 121.459 172.07 120.408C172.031 120.161 172.044 119.909 172.108 119.667C172.173 119.425 172.287 119.2 172.444 119.006C172.601 118.811 172.797 118.652 173.02 118.538C173.242 118.424 173.486 118.358 173.736 118.344C175.243 118.306 176.846 120.499 177.288 121.766C177.322 121.862 177.629 123.206 177.691 123.576C178.037 122.616 178.378 121.656 178.651 120.696C179.057 119.4 179.378 118.079 179.611 116.741C179.515 116.741 176.971 116.501 175.973 115.925C175.099 115.445 174.13 114.542 174 113.491C173.961 113.244 173.974 112.992 174.038 112.75C174.102 112.509 174.217 112.283 174.374 112.089C174.531 111.894 174.727 111.735 174.949 111.621C175.172 111.507 175.416 111.441 175.666 111.427C177.168 111.394 178.771 113.582 179.213 114.85C179.242 114.936 179.477 115.973 179.578 116.467H179.664C179.862 115.115 179.939 113.748 179.894 112.382C179.894 111.629 179.822 110.914 179.75 110.213C179.27 110.213 177.091 110.213 176.131 109.8C175.171 109.387 174.149 108.629 173.899 107.597C173.833 107.355 173.818 107.102 173.856 106.854C173.894 106.606 173.984 106.369 174.12 106.159C174.256 105.948 174.434 105.768 174.645 105.631C174.855 105.495 175.091 105.404 175.339 105.365C176.832 105.163 178.666 107.165 179.246 108.379C179.275 108.446 179.525 109.152 179.693 109.666C179.659 109.354 179.626 109.027 179.582 108.73C179.434 107.602 179.222 106.574 179.03 105.672C178.915 105.158 178.805 104.712 178.694 104.266C178.214 104.026 176.333 103.037 175.685 102.235C175.037 101.434 174.47 100.286 174.725 99.2544C174.78 99.0084 174.886 98.7768 175.037 98.575C175.188 98.3732 175.38 98.2058 175.601 98.0837C175.821 97.9617 176.065 97.8878 176.316 97.867C176.567 97.8463 176.82 97.879 177.058 97.9632Z" fill="#5767FF"/>
<path d="M204.264 121.162C203.088 121.114 200.736 119.909 200.736 119.904C200.736 119.899 201.998 118.598 202.09 118.526C203.141 117.686 205.666 116.688 206.918 117.518C207.123 117.663 207.294 117.849 207.422 118.064C207.55 118.279 207.631 118.518 207.661 118.767C207.69 119.015 207.667 119.267 207.593 119.506C207.519 119.745 207.395 119.965 207.23 120.154C206.558 120.96 205.267 121.2 204.264 121.162Z" fill="#5767FF"/>
<g opacity="0.5">
<path d="M179.971 110.016C179.942 110.016 180.302 108.226 180.341 108.096C180.754 106.819 182.309 104.592 183.811 104.597C184.061 104.604 184.306 104.664 184.532 104.772C184.757 104.88 184.957 105.035 185.119 105.225C185.28 105.416 185.4 105.638 185.47 105.878C185.54 106.118 185.559 106.37 185.525 106.618C185.414 107.678 184.464 108.576 183.605 109.099C182.597 109.728 179.971 110.016 179.971 110.016Z" fill="white"/>
<path d="M177.058 97.9632C178.474 98.472 179.179 101.093 179.131 102.437C179.131 102.552 178.862 104.357 178.838 104.357H178.81C178.92 104.77 179.04 105.216 179.16 105.701C179.371 106.603 179.602 107.621 179.779 108.754C179.985 109.969 180.12 111.195 180.182 112.426C180.259 113.803 180.212 115.184 180.043 116.554C180.04 116.569 180.04 116.586 180.043 116.602C180.23 116.203 180.782 115.099 180.835 115.018C181.574 113.894 183.658 112.138 185.112 112.56C185.35 112.633 185.571 112.756 185.759 112.92C185.946 113.084 186.098 113.286 186.203 113.512C186.308 113.738 186.364 113.984 186.368 114.234C186.372 114.483 186.323 114.731 186.226 114.96C185.842 115.949 184.69 116.568 183.725 116.842C182.635 117.154 180.206 116.784 180.014 116.755C179.81 118.143 179.511 119.516 179.122 120.864C178.898 121.651 178.654 122.438 178.392 123.226C178.56 122.885 178.718 122.582 178.742 122.539C179.482 121.416 181.565 119.659 183.019 120.077C183.258 120.15 183.479 120.272 183.667 120.436C183.855 120.6 184.007 120.802 184.112 121.028C184.217 121.254 184.273 121.501 184.277 121.75C184.28 122 184.231 122.247 184.133 122.477C183.749 123.47 182.597 124.085 181.632 124.363C180.667 124.642 178.574 124.363 178.027 124.291C177.926 124.589 177.826 124.891 177.72 125.189C177.24 126.629 176.722 128.069 176.28 129.48C176.122 129.96 175.982 130.478 175.843 130.978C175.997 130.675 176.126 130.421 176.15 130.387C176.885 129.264 178.973 127.507 180.422 127.925C180.661 127.998 180.881 128.121 181.069 128.285C181.257 128.449 181.409 128.651 181.514 128.877C181.619 129.103 181.676 129.348 181.681 129.598C181.685 129.847 181.638 130.095 181.541 130.325C181.157 131.314 180 131.933 179.035 132.206C178.07 132.48 176.184 132.24 175.531 132.149C175.402 132.667 175.277 133.181 175.176 133.685C175.114 134.03 175.032 134.362 174.989 134.712C174.946 135.062 174.893 135.403 174.845 135.739C174.778 136.397 174.701 137.078 174.653 137.722C174.614 138.168 174.586 138.595 174.557 139.022C174.706 138.542 175.037 137.554 175.061 137.472C175.594 136.417 176.387 135.515 177.365 134.851C177.418 134.731 177.484 134.617 177.562 134.51C177.698 134.301 177.876 134.122 178.086 133.986C178.295 133.85 178.531 133.76 178.778 133.721C179.024 133.682 179.276 133.696 179.518 133.76C179.759 133.825 179.984 133.94 180.178 134.098C181.32 135.058 181.032 137.784 180.509 139.022C180.48 139.094 180.053 139.848 179.779 140.318C179.986 140.069 180.178 139.838 180.394 139.56C180.811 139.051 181.243 138.552 181.704 138.014L182.41 137.251C182.64 136.987 182.918 136.742 183.173 136.488C183.773 135.907 184.411 135.346 185.069 134.794C184.618 134.429 183.048 133.099 182.597 132.197C182.146 131.294 181.824 130.032 182.294 129.082C182.397 128.853 182.547 128.649 182.734 128.483C182.921 128.316 183.141 128.191 183.38 128.116C183.619 128.04 183.871 128.015 184.12 128.044C184.368 128.072 184.608 128.153 184.824 128.28C186.096 129.077 186.226 131.789 185.894 133.08C185.894 133.162 185.53 134.069 185.333 134.563C185.731 134.237 186.125 133.906 186.538 133.603C187.728 132.682 188.962 131.789 190.186 130.891L191.304 130.061C191.146 129.931 189.245 128.395 188.736 127.387C188.29 126.49 187.963 125.222 188.434 124.267C188.537 124.039 188.687 123.836 188.874 123.67C189.062 123.504 189.281 123.379 189.52 123.303C189.758 123.228 190.01 123.203 190.259 123.231C190.507 123.259 190.747 123.339 190.963 123.466C192.235 124.267 192.365 126.979 192.034 128.266C192.01 128.366 191.515 129.672 191.371 129.998C192.192 129.384 193.003 128.77 193.771 128.131C194.823 127.272 195.817 126.346 196.747 125.357C196.675 125.299 194.683 123.706 194.165 122.669C193.714 121.771 193.392 120.504 193.862 119.554C193.965 119.325 194.114 119.121 194.301 118.955C194.487 118.789 194.707 118.663 194.945 118.588C195.184 118.512 195.435 118.488 195.684 118.516C195.932 118.544 196.172 118.625 196.387 118.752C197.664 119.549 197.794 122.261 197.462 123.552C197.438 123.634 197.064 124.632 196.872 125.102L196.949 125.146C197.859 124.126 198.677 123.027 199.392 121.862C199.79 121.229 200.141 120.6 200.467 119.976C200.064 119.717 198.245 118.536 197.674 117.634C197.102 116.731 196.67 115.57 197.03 114.571C197.108 114.336 197.234 114.12 197.399 113.936C197.565 113.753 197.767 113.606 197.993 113.504C198.219 113.403 198.464 113.35 198.711 113.349C198.958 113.347 199.203 113.397 199.43 113.496C200.789 114.149 201.211 116.832 201.024 118.162C201.024 118.234 200.832 118.958 200.693 119.486C200.832 119.203 200.986 118.915 201.115 118.642C201.595 117.614 202.003 116.645 202.339 115.762C202.531 115.282 202.69 114.802 202.819 114.403C202.555 113.923 201.528 112.075 201.427 111.043C201.326 110.011 201.49 108.744 202.272 108.024C202.45 107.849 202.664 107.713 202.898 107.626C203.132 107.539 203.382 107.502 203.632 107.518C203.881 107.534 204.125 107.602 204.346 107.718C204.567 107.834 204.762 107.996 204.917 108.192C205.819 109.397 204.96 111.97 204.182 113.069C204.115 113.16 202.891 114.509 202.877 114.509V114.48C202.742 114.888 202.598 115.325 202.426 115.795C202.109 116.664 201.734 117.648 201.264 118.675C200.763 119.801 200.197 120.897 199.57 121.958C198.871 123.147 198.067 124.272 197.17 125.318L197.136 125.357C197.51 125.122 198.576 124.512 198.667 124.474C199.906 123.946 202.603 123.643 203.592 124.781C203.75 124.974 203.867 125.198 203.933 125.439C203.999 125.68 204.014 125.932 203.977 126.179C203.94 126.426 203.852 126.662 203.718 126.873C203.583 127.083 203.407 127.264 203.198 127.402C202.33 128.016 201.024 127.882 200.069 127.589C198.989 127.248 197.189 125.602 197.021 125.472C196.085 126.516 195.079 127.496 194.011 128.405C193.387 128.942 192.749 129.461 192.091 129.97C192.422 129.782 192.72 129.614 192.763 129.595C193.997 129.067 196.694 128.765 197.683 129.902C197.842 130.095 197.959 130.319 198.026 130.56C198.093 130.801 198.108 131.053 198.071 131.301C198.034 131.548 197.945 131.784 197.81 131.995C197.676 132.206 197.498 132.386 197.29 132.523C196.426 133.138 195.12 133.003 194.165 132.71C193.21 132.418 191.611 131.035 191.198 130.666L190.445 131.246C189.235 132.173 188.045 133.09 186.869 134.026C186.461 134.357 186.072 134.698 185.678 135.034C185.976 134.866 186.221 134.726 186.264 134.712C187.498 134.179 190.195 133.882 191.184 135.014C191.344 135.207 191.461 135.431 191.528 135.672C191.596 135.913 191.611 136.165 191.574 136.413C191.537 136.66 191.448 136.897 191.313 137.108C191.178 137.318 191 137.498 190.79 137.635C189.922 138.25 188.621 138.115 187.666 137.827C186.71 137.539 185.266 136.282 184.786 135.845C184.397 136.205 184.003 136.56 183.643 136.93C183.398 137.184 183.163 137.41 182.923 137.683C182.683 137.957 182.443 138.202 182.232 138.461C181.814 138.97 181.378 139.498 180.979 140.006C180.701 140.357 180.442 140.698 180.182 141.038C180.581 140.707 181.387 140.078 181.459 140.026C182.597 139.315 185.218 138.61 186.37 139.579C186.556 139.747 186.704 139.951 186.806 140.18C186.908 140.409 186.961 140.656 186.961 140.906C186.961 141.157 186.908 141.404 186.806 141.633C186.704 141.861 186.556 142.066 186.37 142.234C185.606 142.968 184.301 143.05 183.312 142.896C182.218 142.723 180.24 141.456 179.995 141.274C179.563 141.84 179.15 142.397 178.766 142.93C177.437 144.768 176.4 146.347 175.69 147.466L175.618 147.576L174.696 147.13C174.744 147.058 174.792 146.99 174.84 146.914C175.584 145.8 176.669 144.226 178.051 142.397C178.488 141.821 178.963 141.211 179.458 140.587C178.943 140.027 178.462 139.438 178.018 138.821C176.957 139.234 174.754 139.253 174.47 139.253C174.427 139.963 174.389 140.654 174.36 141.307C174.264 143.578 174.274 145.469 174.298 146.789V146.947L173.285 146.467C173.285 145.157 173.338 143.376 173.472 141.278C173.515 140.554 173.578 139.781 173.65 138.994C173.366 138.922 171.077 138.331 170.213 137.64C169.43 137.016 168.605 135.998 168.634 134.938C168.631 134.687 168.681 134.439 168.781 134.21C168.881 133.981 169.028 133.775 169.213 133.606C169.398 133.438 169.616 133.31 169.854 133.232C170.092 133.153 170.343 133.126 170.592 133.152C172.085 133.344 173.333 135.754 173.582 137.074C173.582 137.15 173.659 138.034 173.688 138.562C173.722 138.235 173.746 137.923 173.779 137.602C173.846 136.944 173.933 136.286 174.024 135.581C174.077 135.245 174.134 134.904 174.187 134.558C174.24 134.213 174.331 133.858 174.403 133.502C174.586 132.686 174.806 131.866 175.051 131.045C174.475 130.982 172.435 130.742 171.557 130.243C170.678 129.744 169.718 128.861 169.589 127.81C169.548 127.562 169.56 127.31 169.623 127.067C169.687 126.825 169.802 126.599 169.959 126.404C170.116 126.209 170.313 126.05 170.536 125.936C170.759 125.823 171.004 125.758 171.254 125.746C172.757 125.707 174.36 127.901 174.802 129.168C174.83 129.25 175.046 130.195 175.152 130.718C175.306 130.238 175.45 129.73 175.632 129.24C176.112 127.8 176.654 126.389 177.182 124.963C177.346 124.526 177.499 124.09 177.662 123.658C177.456 123.658 175.022 123.403 174.043 122.842C173.174 122.362 172.205 121.459 172.07 120.408C172.031 120.161 172.044 119.909 172.108 119.667C172.173 119.425 172.287 119.2 172.444 119.006C172.601 118.811 172.797 118.652 173.02 118.538C173.242 118.424 173.486 118.358 173.736 118.344C175.243 118.306 176.846 120.499 177.288 121.766C177.322 121.862 177.629 123.206 177.691 123.576C178.037 122.616 178.378 121.656 178.651 120.696C179.057 119.4 179.378 118.079 179.611 116.741C179.515 116.741 176.971 116.501 175.973 115.925C175.099 115.445 174.13 114.542 174 113.491C173.961 113.244 173.974 112.992 174.038 112.75C174.102 112.509 174.217 112.283 174.374 112.089C174.531 111.894 174.727 111.735 174.949 111.621C175.172 111.507 175.416 111.441 175.666 111.427C177.168 111.394 178.771 113.582 179.213 114.85C179.242 114.936 179.477 115.973 179.578 116.467H179.664C179.862 115.115 179.939 113.748 179.894 112.382C179.894 111.629 179.822 110.914 179.75 110.213C179.27 110.213 177.091 110.213 176.131 109.8C175.171 109.387 174.149 108.629 173.899 107.597C173.833 107.355 173.818 107.102 173.856 106.854C173.894 106.606 173.984 106.369 174.12 106.159C174.256 105.948 174.434 105.768 174.645 105.631C174.855 105.495 175.091 105.404 175.339 105.365C176.832 105.163 178.666 107.165 179.246 108.379C179.275 108.446 179.525 109.152 179.693 109.666C179.659 109.354 179.626 109.027 179.582 108.73C179.434 107.602 179.222 106.574 179.03 105.672C178.915 105.158 178.805 104.712 178.694 104.266C178.214 104.026 176.333 103.037 175.685 102.235C175.037 101.434 174.47 100.286 174.725 99.2544C174.78 99.0084 174.886 98.7768 175.037 98.575C175.188 98.3732 175.38 98.2058 175.601 98.0837C175.821 97.9617 176.065 97.8878 176.316 97.867C176.567 97.8463 176.82 97.879 177.058 97.9632Z" fill="white"/>
<path d="M204.264 121.162C203.088 121.114 200.736 119.909 200.736 119.904C200.736 119.899 201.998 118.598 202.09 118.526C203.141 117.686 205.666 116.688 206.918 117.518C207.123 117.663 207.294 117.849 207.422 118.064C207.55 118.279 207.631 118.518 207.661 118.767C207.69 119.015 207.667 119.267 207.593 119.506C207.519 119.745 207.395 119.965 207.23 120.154C206.558 120.96 205.267 121.2 204.264 121.162Z" fill="white"/>
</g>
<path d="M190.531 150.614C190.531 150.614 183.394 133.406 179.4 134.155C175.406 134.904 186.24 161.582 186.24 161.582C186.24 161.582 173.683 137.894 165.12 137.894C156.557 137.894 168.259 164.078 179.102 172.805C179.102 172.805 161.981 154.354 151.992 158.342C142.003 162.331 171.97 181.032 171.97 181.032C171.97 181.032 154.56 175.546 156.557 179.784C158.554 184.022 163.978 184.771 163.978 184.771L144.298 185.77H212.794L197.381 184.272C197.381 184.272 213.365 176.294 209.083 173.054C204.802 169.814 195.384 176.794 195.384 176.794C195.384 176.794 211.651 158.842 208.512 152.107C205.373 145.373 191.386 164.328 191.386 164.328C191.386 164.328 202.805 140.141 200.506 135.902C198.206 131.664 190.531 150.614 190.531 150.614Z" fill="#5767FF"/>
<path opacity="0.4" d="M190.531 150.614C190.531 150.614 183.394 133.406 179.4 134.155C175.406 134.904 186.24 161.582 186.24 161.582C186.24 161.582 173.683 137.894 165.12 137.894C156.557 137.894 168.259 164.078 179.102 172.805C179.102 172.805 161.981 154.354 151.992 158.342C142.003 162.331 171.97 181.032 171.97 181.032C171.97 181.032 154.56 175.546 156.557 179.784C158.554 184.022 163.978 184.771 163.978 184.771L144.298 185.77H212.794L197.381 184.272C197.381 184.272 213.365 176.294 209.083 173.054C204.802 169.814 195.384 176.794 195.384 176.794C195.384 176.794 211.651 158.842 208.512 152.107C205.373 145.373 191.386 164.328 191.386 164.328C191.386 164.328 202.805 140.141 200.506 135.902C198.206 131.664 190.531 150.614 190.531 150.614Z" fill="white"/>
<path d="M192.816 151.517C186.533 170.069 186.533 183.197 186.533 183.197C186.533 183.197 193.954 183.48 201.662 177.773" stroke="#263238" stroke-width="0.48" stroke-linecap="round" stroke-linejoin="round"/>
<path d="M189.677 161.51C188.381 155.963 186.662 150.523 184.536 145.238" stroke="#263238" stroke-width="0.48" stroke-linecap="round" stroke-linejoin="round"/>
<path d="M171.125 150.662L187.104 174.35C187.104 174.35 197.952 165.23 201.662 160.08" stroke="#263238" stroke-width="0.48" stroke-linecap="round" stroke-linejoin="round"/>
<path d="M186.821 180.062C186.821 180.062 169.982 172.07 163.133 167.52" stroke="#263238" stroke-width="0.48" stroke-linecap="round" stroke-linejoin="round"/>
<path d="M171.706 52.32H120.422C118.323 52.32 116.621 54.022 116.621 56.1216V181.968C116.621 184.068 118.323 185.77 120.422 185.77H171.706C173.805 185.77 175.507 184.068 175.507 181.968V56.1216C175.507 54.022 173.805 52.32 171.706 52.32Z" fill="white" stroke="#263238" stroke-width="0.48" stroke-linecap="round" stroke-linejoin="round"/>
<path d="M173.539 75.6816C173.332 75.6816 173.133 75.5992 172.986 75.4524C172.839 75.3057 172.757 75.1067 172.757 74.8992V64.4112C172.772 64.2137 172.862 64.0292 173.007 63.8947C173.153 63.7601 173.344 63.6854 173.542 63.6854C173.74 63.6854 173.931 63.7601 174.076 63.8947C174.222 64.0292 174.311 64.2137 174.326 64.4112V74.88C174.328 74.9846 174.309 75.0885 174.271 75.1857C174.232 75.2828 174.174 75.3713 174.101 75.446C174.028 75.5206 173.94 75.5799 173.844 75.6203C173.747 75.6608 173.644 75.6816 173.539 75.6816Z" fill="#263238"/>
<path d="M173.539 85.3968C173.332 85.3968 173.133 85.3144 172.986 85.1676C172.839 85.0209 172.757 84.8219 172.757 84.6144V78.7536C172.772 78.5561 172.862 78.3716 173.007 78.2371C173.153 78.1025 173.344 78.0278 173.542 78.0278C173.74 78.0278 173.931 78.1025 174.076 78.2371C174.222 78.3716 174.311 78.5561 174.326 78.7536V84.6144C174.325 84.8223 174.242 85.0213 174.094 85.1679C173.947 85.3145 173.747 85.3968 173.539 85.3968Z" fill="#263238"/>
<path d="M167.266 52.32H115.982C113.883 52.32 112.181 54.022 112.181 56.1216V181.968C112.181 184.068 113.883 185.77 115.982 185.77H167.266C169.365 185.77 171.067 184.068 171.067 181.968V56.1216C171.067 54.022 169.365 52.32 167.266 52.32Z" fill="#263238" stroke="#263238" stroke-width="0.48" stroke-linecap="round" stroke-linejoin="round"/>
<path d="M167.146 61.2048H116.102V175.666H167.146V61.2048Z" fill="#5767FF"/>
<path d="M135.273 90.1497L134.612 90.2697L135.159 89.8484C135.303 89.7364 135.452 89.6243 135.599 89.5177L135.634 89.491H135.676C139.055 88.8163 143.168 87.6348 147.901 85.936L147.941 85.92H147.984C148.141 85.9413 148.299 85.968 148.453 85.9973L149.045 86.112L148.453 86.328C143.296 88.2055 138.86 89.4857 135.273 90.1497Z" fill="white"/>
<path d="M132.839 92.302L132.305 92.4273L132.7 92.0166C132.801 91.9099 132.905 91.8086 133.012 91.7046L133.049 91.6699H133.1C137.815 90.5498 143.784 88.907 150.832 86.7921L150.896 86.7735L150.952 86.7975L151.259 86.9441L151.64 87.1335L151.208 87.2642C143.842 89.4697 137.663 91.1685 132.839 92.302Z" fill="white"/>
<path d="M130.598 94.8648L130.065 95.0515L130.409 94.6062C130.46 94.5395 130.513 94.4755 130.564 94.4115L130.633 94.3261V94.2595L130.75 94.2168C134.828 92.7766 142.005 90.5498 153.048 88.1096L153.123 88.0936L153.182 88.1362C153.262 88.1949 153.342 88.2509 153.422 88.3149L153.707 88.5389L153.331 88.6216C142.034 91.1152 134.727 93.3927 130.598 94.8648Z" fill="white"/>
<path d="M128.534 97.8358L128.001 98.1025L128.324 97.5958L128.556 97.2304L128.585 97.1851L128.633 97.1637C133.543 94.6888 142.095 91.3925 154.963 89.7284H155.043L155.097 89.7817L155.305 89.9898L155.539 90.2378L155.179 90.2831C142.071 91.9499 133.455 95.3102 128.534 97.8358Z" fill="white"/>
<path d="M132.001 97.9904C130.175 98.8889 128.412 99.9091 126.723 101.044L126.19 101.396L126.47 100.839C126.526 100.727 126.585 100.62 126.641 100.511L126.667 100.463V100.407L126.745 100.356C128.354 99.2967 130.028 98.3383 131.756 97.4864C136.823 94.9742 145.256 91.9126 156.627 91.5792H156.71L156.758 91.6405L156.934 91.8619L157.163 92.1286H156.787C145.453 92.4406 137.052 95.4835 132.001 97.9904Z" fill="white"/>
<path d="M155.662 96.8517L155.491 96.8677V96.297L155.665 96.281C157.05 96.1712 158.445 96.2984 159.788 96.657L159.857 96.6757L159.886 96.7424C159.929 96.833 159.969 96.9237 160.009 97.009L160.156 97.3584L159.788 97.2517C158.447 96.8735 157.05 96.738 155.662 96.8517Z" fill="white"/>
<path d="M131.812 99.8626C129.479 101.158 127.262 102.654 125.187 104.332L124.699 104.738L124.937 104.154C124.995 104.007 125.059 103.863 125.123 103.722L125.142 103.679L125.179 103.647C134.498 96.2391 146.283 92.6472 158.15 93.598H158.23L158.27 93.662C158.321 93.7394 158.369 93.8194 158.417 93.8994L158.273 94.0061L158.422 93.9101L158.604 94.2087L158.244 94.1794C149.064 93.4016 139.861 95.3804 131.812 99.8626Z" fill="white"/>
<path d="M149.587 95.7503C143.472 96.425 134.119 98.8279 124.328 106.442L123.872 106.797L124.07 106.263C124.104 106.167 124.142 106.071 124.179 105.973L124.211 105.89V105.831L124.278 105.781C134.103 98.2412 143.458 95.8543 149.579 95.1796C152.731 94.8245 155.915 94.8352 159.065 95.2116H159.145L159.47 95.8383L159.121 95.7929C155.956 95.4032 152.755 95.3889 149.587 95.7503Z" fill="white"/>
<path d="M160.718 117.867L161.252 117.643L161.308 117.798C162.113 120.403 162.654 123.084 162.921 125.798V125.825V125.852C162.871 126.092 162.815 126.332 162.756 126.572L162.505 127.612L162.417 126.574C162.181 123.672 161.628 120.804 160.766 118.022L160.718 117.867Z" fill="white"/>
<path d="M161.615 108.191V108.018L162.191 107.983V108.157C162.092 111.754 162.503 116.123 163.524 122.323V122.374C163.492 122.641 163.455 122.907 163.415 123.158L163.252 124.243L163.076 123.177C161.964 116.579 161.503 111.954 161.615 108.191Z" fill="white"/>
<path d="M160.049 116.051L159.31 113.736L159.862 113.523L160.596 115.837L160.049 116.051Z" fill="white"/>
<path d="M161.524 106.685C161.369 105.583 160.874 104.557 160.108 103.751L159.982 103.636L160.398 103.218L160.516 103.327C161.376 104.212 161.929 105.35 162.095 106.573L162.113 106.738L161.543 106.858L161.524 106.685Z" fill="white"/>
<path d="M161.297 111.394L160.721 111.464V111.293C160.668 109.738 159.121 107.559 159.044 107.474L158.948 107.341L159.42 106.983L159.518 107.114C159.582 107.218 161.236 109.448 161.292 111.218L161.297 111.394Z" fill="white"/>
<path d="M157.939 108.653L157.817 108.535L158.254 108.114L158.369 108.237C158.574 108.458 160.404 110.506 161.374 114.701L161.412 114.864L160.849 115.037L160.812 114.875C159.83 110.632 157.955 108.671 157.939 108.653Z" fill="white"/>
<path d="M157.609 110.826L158.105 110.496L159.358 112.536L158.86 112.866L157.609 110.826Z" fill="white"/>
<path d="M157.289 103.802L157.131 103.754L157.345 103.204L157.505 103.255C157.627 103.295 160.497 104.234 161.292 107.199L161.334 107.362L160.78 107.551L160.737 107.391C160.012 104.692 157.401 103.839 157.289 103.802Z" fill="white"/>
<path d="M156.435 100.052L156.265 100.028L156.401 99.4626L156.566 99.4866C159.284 99.8813 160.833 100.86 161.649 101.62L161.705 101.676V101.724L162.036 102.903L161.529 102.354C160.916 101.679 159.425 100.487 156.435 100.052Z" fill="white"/>
<path d="M148.779 97.8838C142.679 98.1211 133.345 100.201 123.499 108.767L123.038 109.167L123.23 108.599C123.275 108.469 123.318 108.333 123.366 108.21V108.154L123.427 108.103C133.321 99.6093 142.695 97.5478 148.816 97.3131C155.091 97.0704 159.558 98.6199 160.777 99.0999L160.838 99.1239L160.862 99.1852C160.894 99.2652 160.924 99.3479 160.95 99.4279L161.108 99.8706L160.732 99.716C159.902 99.3506 155.369 97.6171 148.779 97.8838Z" fill="white"/>
<path d="M148.053 99.4146C155.022 99.6813 159.716 102.503 159.916 102.615L160.06 102.7L159.721 103.191L159.58 103.106C159.388 102.988 154.795 100.228 147.973 99.9746C141.922 99.7453 132.633 101.487 122.755 111.082L122.302 111.522L122.475 110.928C122.518 110.784 122.563 110.64 122.608 110.498L122.622 110.45L122.659 110.416C132.599 100.911 141.954 99.1879 148.053 99.4146Z" fill="white"/>
<path d="M135.151 103.25C138.985 101.652 143.164 101.061 147.291 101.532C154.198 102.351 158.716 106.015 158.758 106.053L158.881 106.157L158.497 106.607L158.372 106.503C155.078 104.099 151.22 102.583 147.17 102.103C141.186 101.391 131.969 102.786 122.102 113.445L121.646 113.936L121.814 113.304C121.856 113.149 121.896 112.997 121.939 112.845V112.8L121.971 112.768C126.185 108.285 130.62 105.084 135.151 103.25Z" fill="white"/>
<path d="M140.701 103.324C150.568 102.428 157.502 109.399 157.577 109.458L157.694 109.576L157.262 109.989L157.147 109.874C157.081 109.805 150.301 103.007 140.703 103.882C134.079 104.484 127.617 108.49 121.502 115.787L121.037 116.339L121.205 115.656C121.243 115.501 121.28 115.352 121.315 115.197V115.149L121.352 115.104C127.515 107.903 134.033 103.935 140.701 103.324Z" fill="white"/>
<path d="M157.235 114.069C152.478 107.245 142.885 102.767 132.167 108.149C126.595 110.946 124.264 114.269 121.566 118.115C121.31 118.479 121.048 118.849 120.782 119.224L120.344 119.838L120.475 119.118C120.507 118.944 120.536 118.774 120.568 118.619V118.568L120.597 118.528C120.768 118.288 120.936 118.051 121.102 117.811C123.854 113.896 126.23 110.514 131.94 107.642C142.957 102.105 152.819 106.703 157.708 113.715C162.172 120.115 161.855 127.489 161.265 131.316V131.353C161.126 131.719 160.998 132.084 160.844 132.442L160.516 132.372C161.836 125.62 160.638 118.952 157.235 114.069Z" fill="white"/>
<path d="M133.863 132.402C134.873 129.799 135.354 129.524 135.73 129.615C136.663 129.839 135.799 133.234 135.791 133.268C135.311 135.106 127.716 139.322 124.473 141.048L124.326 141.128L124.059 140.642L124.225 140.554C129.329 137.831 134.892 134.46 135.239 133.17C135.618 131.719 135.628 130.58 135.548 130.236C135.402 130.399 135.044 130.924 134.409 132.559C132.897 136.455 127.067 138.722 123.726 139.725L123.595 139.765L123.534 139.65L123.424 139.434L123.334 139.248L123.544 139.184C126.79 138.199 132.465 136.002 133.863 132.402Z" fill="white"/>
<path d="M133.087 131.487C134.111 129.124 134.916 128.087 135.695 128.137C136.474 128.188 137.028 129.332 137.412 131.892C137.946 135.327 128.241 140.765 125.254 142.352L125.12 142.424L125.04 142.306C124.995 142.242 124.955 142.176 124.915 142.112L124.819 141.957L124.992 141.864C130.964 138.687 137.212 134.42 136.844 132.02C136.388 129.055 135.833 128.711 135.604 128.7C135.439 128.7 134.804 128.913 133.612 131.663C132.42 134.412 128.934 136.845 123.262 138.786L123.118 138.837L123.062 138.706C123.046 138.671 123.03 138.639 123.016 138.607C123.003 138.575 122.982 138.538 122.966 138.501L122.888 138.325L123.083 138.261C128.521 136.407 131.98 134.063 133.087 131.487Z" fill="white"/>
<path d="M132.31 130.567C133.604 127.857 134.796 126.534 135.969 126.524C137.143 126.513 138.135 127.857 139.028 130.585C140.65 135.54 129.558 141.813 126.121 143.616L125.99 143.685L125.659 143.232L125.849 143.133C128.222 141.88 139.983 135.399 138.482 130.804C137.682 128.377 136.802 127.094 135.911 127.094C135.02 127.094 133.972 128.38 132.828 130.777C131.558 133.444 128.294 135.746 122.851 137.842L122.71 137.898L122.646 137.77C122.611 137.699 122.579 137.626 122.552 137.551L122.488 137.386L122.664 137.319C127.963 135.279 131.118 133.068 132.31 130.567Z" fill="white"/>
<path d="M131.537 129.652C133.201 126.492 134.836 124.852 136.396 124.82C137.956 124.788 139.367 126.286 140.647 129.303C141.927 132.319 139.882 135.999 134.753 139.97C132.328 141.801 129.756 143.431 127.065 144.843L126.939 144.907L126.859 144.808L126.713 144.632L126.585 144.469L126.782 144.368C129.462 142.968 142.698 135.682 140.117 129.569C138.932 126.766 137.671 125.364 136.364 125.398C135.057 125.433 133.588 126.953 132.041 129.887C130.281 133.228 125.734 135.487 122.464 136.887L122.304 136.957L122.219 136.735C122.203 136.687 122.184 136.642 122.168 136.594L122.112 136.439L122.275 136.37C125.454 134.996 129.87 132.82 131.537 129.652Z" fill="white"/>
<path d="M130.764 128.735C132.94 124.977 134.961 123.134 136.946 123.059C138.866 123.003 140.65 124.676 142.279 128.031C143.079 129.705 143.13 131.522 142.397 133.423C140.031 139.57 130.076 144.989 128.105 146.013L127.987 146.072L127.905 145.987L127.747 145.816L127.601 145.653L127.811 145.544C129.756 144.539 139.567 139.221 141.863 133.258C142.535 131.514 142.501 129.849 141.757 128.313C140.255 125.206 138.652 123.633 136.988 123.633H136.922C135.169 123.686 133.319 125.436 131.262 128.985C129.46 132.1 125.43 134.319 122.12 135.903L121.955 135.981L121.894 135.821C121.867 135.751 121.843 135.679 121.819 135.607L121.768 135.458L121.92 135.386C125.136 133.839 129.057 131.687 130.764 128.735Z" fill="white"/>
<path d="M129.99 127.817C131.9 124.82 134.495 121.353 137.572 121.267H137.666C139.885 121.267 141.981 123.115 143.896 126.764C145.01 128.897 145.133 131.161 144.261 133.514C141.722 140.373 131.292 146.067 129.228 147.139L129.118 147.195L129.036 147.12C128.977 147.067 128.918 147.014 128.862 146.958L128.692 146.795L128.918 146.678C130.956 145.621 141.234 140.061 143.725 133.354C144.525 131.161 144.421 129.044 143.378 127.06C141.535 123.542 139.57 121.777 137.532 121.835C134.753 121.902 132.297 125.212 130.468 128.089C128.601 131.023 125.035 133.172 121.784 134.898L121.608 134.991L121.55 134.815C121.526 134.74 121.504 134.666 121.483 134.594L121.448 134.458L121.579 134.386C124.747 132.7 128.222 130.599 129.99 127.817Z" fill="white"/>
<path d="M129.22 126.894L129.265 126.83C131.177 124.086 134.377 119.491 138.263 119.446H138.316C140.874 119.446 143.298 121.481 145.517 125.494C146.223 126.715 146.647 128.078 146.759 129.484C146.871 130.89 146.668 132.303 146.165 133.62C143.557 140.89 133.495 146.622 130.473 148.206L130.372 148.259L130.27 148.179C130.212 148.134 130.153 148.088 130.097 148.04L129.908 147.878L130.145 147.755C132.279 146.648 143.01 140.765 145.629 133.471C146.102 132.228 146.291 130.896 146.184 129.57C146.077 128.245 145.676 126.96 145.01 125.809C142.877 121.942 140.583 119.993 138.218 120.025C134.644 120.067 131.564 124.494 129.726 127.137L129.681 127.201C127.745 129.983 124.283 132.231 121.486 133.868L121.299 133.98L121.144 133.431L121.27 133.359C123.992 131.754 127.366 129.569 129.22 126.894Z" fill="white"/>
<path d="M128.433 125.982C128.529 125.857 128.63 125.716 128.734 125.58L128.988 125.246C131.121 122.401 134.665 117.638 138.951 117.627C141.845 117.627 144.594 119.848 147.131 124.23C148.896 127.286 149.208 130.489 148.059 133.751C145.328 141.509 134.959 147.531 131.847 149.192L131.753 149.24L131.22 148.891L131.486 148.752C134.569 147.126 144.821 141.224 147.512 133.607C148.603 130.508 148.312 127.473 146.621 124.54C144.186 120.326 141.586 118.192 138.887 118.192C134.921 118.192 131.486 122.803 129.433 125.553C129.236 125.82 129.049 126.068 128.876 126.294C126.846 128.961 123.707 131.169 121.2 132.796L121.003 132.924L120.947 132.711L120.891 132.482L120.867 132.362L120.976 132.29C123.427 130.713 126.478 128.553 128.433 125.982Z" fill="white"/>
<path d="M126.654 125.412C131.75 117.79 136.3 116.16 139.223 116.136C142.69 116.123 145.709 118.27 147.757 122.243C150.157 126.926 150.483 131.524 148.696 135.906C145.605 143.48 137.028 148.371 133.495 150.121L133.417 150.158L133.345 150.126C133.257 150.086 133.172 150.041 133.079 149.995L132.793 149.843L133.105 149.688C135.847 148.355 145.034 143.397 148.163 135.73C149.885 131.513 149.573 127.073 147.24 122.537C145.306 118.779 142.466 116.709 139.239 116.709H139.18C136.407 116.731 132.068 118.31 127.123 125.7C125.609 127.967 122.899 130.017 120.893 131.337L120.685 131.473L120.635 131.223C120.619 131.151 120.605 131.079 120.592 131.009L120.571 130.895L120.675 130.825C122.603 129.548 125.209 127.569 126.654 125.412Z" fill="white"/>
<path d="M125.958 124.19C128.054 121.086 130.086 118.888 132.358 117.275C135.415 115.101 138.548 114.235 141.426 114.763C144.552 115.341 147.293 117.566 149.181 121.025C153.339 128.673 151.192 135.076 148.648 139.098C144.725 145.384 137.535 149.264 134.625 150.641L134.553 150.673L134.487 150.646C134.391 150.609 134.3 150.571 134.22 150.529L133.887 150.379L134.239 150.217C137.132 148.883 144.285 145.069 148.184 138.829C150.632 134.94 152.718 128.748 148.675 121.329C146.869 118.006 144.242 115.875 141.277 115.325C138.567 114.824 135.591 115.656 132.673 117.726C130.473 119.288 128.491 121.433 126.438 124.473C125.254 126.228 123.32 128.108 120.691 130.073L120.475 130.233L120.427 129.985C120.408 129.903 120.395 129.82 120.384 129.735L120.368 129.628L120.459 129.561C122.974 127.67 124.83 125.865 125.958 124.19Z" fill="white"/>
<path d="M125.262 122.971C127.595 119.544 129.7 117.371 132.292 115.667C135.644 113.477 139.071 112.645 142.207 113.266C145.592 113.931 148.571 116.253 150.598 119.803C154.064 125.865 153.995 132.834 150.435 138.925C146.49 145.669 138.967 149.678 135.93 151.089L135.868 151.115L135.81 151.099C135.708 151.073 135.609 151.041 135.511 151.009L135.076 150.867L135.489 150.681C138.53 149.302 146.024 145.371 149.941 138.679C151.971 135.212 154.689 128.183 150.091 120.126C148.139 116.707 145.29 114.472 142.05 113.835C139.063 113.245 135.788 114.045 132.577 116.144C130.057 117.792 128.009 119.923 125.729 123.27C124.576 124.964 122.816 126.793 120.496 128.713L120.264 128.905L120.224 128.623C120.211 128.535 120.2 128.447 120.192 128.356V128.263L120.269 128.199C122.475 126.348 124.166 124.59 125.262 122.971Z" fill="white"/>
<path d="M124.566 121.75C126.419 119.051 128.633 116.251 132.228 114.059C141.471 108.421 148.667 112.973 152.019 118.592C155.694 124.742 155.753 132.279 152.216 138.757C148.467 145.605 141.37 149.643 137.474 151.443L137.423 151.467H137.37C137.242 151.446 137.103 151.425 136.986 151.398L136.476 151.299L136.972 151.075C140.877 149.312 147.987 145.341 151.718 138.541C155.169 132.247 155.094 124.918 151.52 118.939C148.296 113.539 141.386 109.151 132.495 114.568C129.009 116.702 126.846 119.432 125.027 122.073C123.672 123.958 122.108 125.685 120.365 127.22L120.112 127.452L120.083 127.129C120.083 127.036 120.069 126.942 120.064 126.862L120.235 126.833L120.064 126.857V126.772L120.131 126.71C121.788 125.226 123.275 123.562 124.566 121.75Z" fill="white"/>
<path d="M123.87 120.528C126.163 117.224 128.449 114.587 132.161 112.456C136.428 109.994 140.805 109.319 144.786 110.504C148.253 111.541 151.334 113.971 153.446 117.368C157.387 123.686 157.593 131.615 154.001 138.575C150.376 145.597 143.333 149.744 139.439 151.593L139.402 151.609H139.367C139.197 151.609 139.028 151.609 138.858 151.609L138.191 151.571L138.82 151.283C142.743 149.475 149.867 145.397 153.488 138.362C156.985 131.585 156.782 123.865 152.955 117.71C149.451 112.085 141.967 107.466 132.42 112.954C128.812 115.029 126.579 117.606 124.342 120.835C123.135 122.548 121.783 124.154 120.301 125.636L120.035 125.921V125.542C120.035 125.438 120.035 125.337 120.035 125.233V125.158L120.088 125.105C121.472 123.686 122.737 122.155 123.87 120.528Z" fill="white"/>
<path d="M123.174 119.31C125.225 116.376 127.603 113.301 132.092 110.85C136.676 108.346 141.365 107.711 145.648 109.018C149.341 110.144 152.616 112.677 154.87 116.149C159.822 123.785 158.588 132.652 155.782 138.405C152.582 144.936 146.645 149.043 142.213 151.339L142.17 151.361H142.143C141.917 151.403 141.682 151.438 141.445 151.467L140.477 151.59L141.373 151.145C145.933 148.886 152.04 144.803 155.267 138.191C158.006 132.591 159.212 123.934 154.379 116.491C150.28 110.17 141.874 106.13 132.335 111.344C127.961 113.744 125.641 116.736 123.638 119.611C122.611 121.081 121.5 122.489 120.309 123.83L120 124.18L120.013 123.689C120.013 123.587 120.013 123.486 120.013 123.377V123.315L120.056 123.267C121.167 122.006 122.207 120.685 123.174 119.31Z" fill="white"/>
<path d="M120.184 121.249V121.198L120.216 121.155C121.08 120.051 121.84 118.984 122.472 118.088C124.734 114.888 127.166 111.781 132.02 109.248C142.463 103.786 151.734 108.167 156.289 114.933C161.566 122.774 160.273 132.386 157.558 138.231C155.646 142.376 152.462 146.027 148.115 149.067L148.067 149.102C147.432 149.481 146.776 149.822 146.101 150.123L145.962 149.825C151.174 146.624 154.902 142.661 157.041 138.031C159.692 132.322 160.958 122.937 155.803 115.28C151.382 108.709 142.383 104.45 132.249 109.746C127.529 112.216 125.147 115.243 122.931 118.387C122.288 119.304 121.422 120.521 120.44 121.755L120.091 122.201L120.139 121.667C120.157 121.525 120.172 121.386 120.184 121.249Z" fill="white"/>
<path d="M143.487 85.9547C143.854 85.9193 144.224 85.9265 144.589 85.976C142.382 86.7545 140.136 87.4186 137.86 87.9655C138.956 87.1681 142.138 86.0694 143.487 85.9547Z" fill="white"/>
<path d="M134.045 57.5472H147.634" stroke="white" stroke-width="1.44" stroke-linecap="round" stroke-linejoin="round"/>
<path d="M139.795 179.717C139.795 180.653 139.21 181.411 138.485 181.411C137.76 181.411 137.179 180.653 137.179 179.717C137.179 178.781 137.765 178.018 138.485 178.018C139.205 178.018 139.795 178.776 139.795 179.717Z" fill="white"/>
<path opacity="0.4" d="M132.518 168.931C132.564 168.965 132.62 168.983 132.677 168.984C132.718 168.984 132.758 168.974 132.794 168.954C132.83 168.935 132.861 168.907 132.883 168.874L167.146 122.27V121.387L132.48 168.566C132.459 168.593 132.443 168.623 132.433 168.656C132.423 168.689 132.42 168.723 132.424 168.757C132.427 168.791 132.437 168.823 132.454 168.853C132.47 168.883 132.492 168.91 132.518 168.931Z" fill="white"/>
<path opacity="0.4" d="M160.253 77.9952C160.232 78.0228 160.218 78.0543 160.21 78.0876C160.201 78.121 160.2 78.1557 160.205 78.1897C160.211 78.2236 160.223 78.2561 160.241 78.2854C160.259 78.3146 160.283 78.34 160.31 78.36C160.367 78.4 160.436 78.4164 160.505 78.4056C160.573 78.3948 160.634 78.3578 160.675 78.3024L167.146 69.504V68.64L160.253 77.9952Z" fill="white"/>
<path opacity="0.4" d="M116.102 138.941L158.4 81.4224C158.441 81.3664 158.458 81.2965 158.447 81.2281C158.436 81.1597 158.398 81.0983 158.342 81.0576C158.286 81.0169 158.217 81 158.148 81.0108C158.08 81.0216 158.018 81.0592 157.978 81.1152L116.122 138.058L116.102 138.941Z" fill="white"/>
<path opacity="0.4" d="M128.544 174.605C128.585 174.604 128.625 174.594 128.662 174.576C128.698 174.558 128.73 174.531 128.755 174.499L131.155 171.254C131.176 171.227 131.19 171.195 131.199 171.162C131.207 171.129 131.208 171.094 131.203 171.06C131.197 171.026 131.185 170.993 131.167 170.964C131.149 170.935 131.126 170.91 131.098 170.89C131.041 170.85 130.972 170.833 130.903 170.844C130.835 170.855 130.774 170.892 130.733 170.947L128.333 174.187C128.312 174.215 128.297 174.246 128.289 174.279C128.28 174.312 128.278 174.347 128.283 174.381C128.288 174.415 128.3 174.447 128.317 174.477C128.335 174.506 128.358 174.532 128.386 174.552C128.431 174.588 128.487 174.606 128.544 174.605Z" fill="white"/>
<path opacity="0.4" d="M167.146 131.602L139.018 169.862C138.989 169.901 138.972 169.947 138.968 169.995C138.964 170.043 138.974 170.091 138.996 170.134C139.018 170.177 139.051 170.213 139.092 170.238C139.133 170.263 139.181 170.276 139.229 170.275C139.27 170.276 139.311 170.267 139.347 170.248C139.384 170.23 139.416 170.203 139.44 170.17L167.146 132.48V131.602Z" fill="white"/>
<path d="M78.9062 74.0065C79.5264 75.0515 80.0326 76.1602 80.416 77.3133C80.9167 78.9628 80.6295 80.329 80.8469 80.6861C81.0642 81.0431 83.0708 81.765 83.0708 82.2657C83.0708 82.7664 81.5649 84.2801 81.5649 84.2801C81.5649 84.2801 80.9167 88.9376 80.2724 89.3761C79.6282 89.8147 76.3213 89.3761 76.104 89.4499C75.8867 89.5236 74.6679 92.8964 74.6679 92.8964L68.2057 91.1731L68.6365 88.8017C68.3452 86.9356 67.9368 85.0897 67.4139 83.2748C66.4087 79.5372 67.4877 76.0907 72.1568 74.4373C76.8259 72.7839 78.9062 74.0065 78.9062 74.0065Z" fill="white" stroke="#263238" stroke-width="0.48" stroke-linecap="round" stroke-linejoin="round"/>
<path d="M80.1289 85.1573C80.1289 85.1573 78.5453 85.0835 77.901 83.9929" stroke="#263238" stroke-width="0.48" stroke-linecap="round" stroke-linejoin="round"/>
<path d="M79.5544 80.0767C79.5544 80.5735 79.3759 80.9733 79.1663 80.9733C78.9567 80.9733 78.7782 80.5852 78.7782 80.0767C78.7782 79.5683 78.9567 79.1802 79.1663 79.1802C79.3759 79.1802 79.5544 79.5799 79.5544 80.0767Z" fill="#263238"/>
<path d="M77.7574 78.4621C77.7574 78.4621 78.1145 77.0959 79.7679 77.9576" stroke="#263238" stroke-width="0.48" stroke-linecap="round" stroke-linejoin="round"/>
<path d="M79.504 129.842C79.504 129.842 80.9672 141.392 79.9348 150.61C78.9024 159.828 77.9515 161.73 75.1958 166.469C72.4401 171.208 71.4038 182.153 71.3146 184.323C71.2253 186.492 72.0054 187.253 72.607 187.769C73.5629 188.483 74.589 189.098 75.6693 189.605C76.8337 190.04 79.4186 190.769 78.6423 191.635C77.8661 192.5 74.5903 191.635 73.8995 191.992C73.2086 192.349 70.0183 191.732 70.0183 191.732L67.5187 187.074C67.5187 187.074 69.5059 165.864 70.2162 162.782C70.9265 159.7 69.8708 140.205 69.8708 140.205L69.2653 128.138L79.504 129.842Z" fill="#263238" stroke="#263238" stroke-width="0.48" stroke-linecap="round" stroke-linejoin="round"/>
<path d="M60.4472 126.655C60.4472 126.655 58.6463 128.293 58.5609 134.495C58.4755 140.698 65.1124 150.02 65.4578 152.508C65.8032 154.996 66.4902 159.572 65.2832 162.599C64.0761 165.627 63.7307 172.163 64.5069 175.438C65.2832 178.714 65.5432 187.082 65.714 187.591C65.8848 188.099 65.2832 190.606 65.8886 191.208C66.4941 191.81 72.1762 192.33 73.2125 192.33C74.2488 192.33 76.399 192.244 77.3499 191.813C78.3008 191.383 78.9024 191.123 78.2115 190.692C77.5207 190.261 72.0908 188.968 71.0584 187.676C70.026 186.384 70.0221 183.795 70.1968 183.019C70.3715 182.242 71.2292 173.195 72.607 169.919C73.9849 166.644 75.9682 157.336 75.7974 152.167C75.6266 146.997 75.9682 134.93 75.6266 133.121C75.2851 131.313 75.1066 130.537 75.1066 130.537L61.0604 125.968L60.4472 126.655Z" fill="white" stroke="#263238" stroke-width="0.48" stroke-linecap="round" stroke-linejoin="round"/>
<path d="M70.5189 180.573C70.9071 177.468 71.6329 172.237 72.607 169.916C73.9888 166.64 75.9682 157.333 75.7974 152.163C75.6266 146.993 75.9682 134.926 75.6266 133.118C75.2851 131.309 75.1066 130.533 75.1066 130.533L61.0604 125.965L60.4472 126.655C60.4472 126.655 58.6463 128.293 58.5609 134.495C58.4755 140.698 65.1124 150.02 65.4578 152.508C65.8032 154.996 66.4902 159.576 65.2832 162.599C64.0761 165.623 63.7307 172.163 64.5069 175.439C64.8403 177.146 65.062 178.872 65.1706 180.608C66.9259 181.064 68.7698 181.052 70.5189 180.573Z" fill="#263238" stroke="#263238" stroke-width="0.48" stroke-linecap="round" stroke-linejoin="round"/>
<path d="M71.2952 174.239C71.0817 175.404 70.9536 176.242 70.9536 176.389" stroke="#7D7D7D" stroke-width="0.48" stroke-linecap="round" stroke-linejoin="round"/>
<path d="M75.8673 140.581C76.0924 144.75 76.3408 150.474 76.2321 153.486C76.0419 158.575 72.739 168.095 72.0831 170.641C71.9278 171.243 71.7803 171.868 71.6523 172.473" stroke="#7D7D7D" stroke-width="0.48" stroke-linecap="round" stroke-linejoin="round"/>
<path d="M76.9851 134.061L75.5723 135.571C75.5723 135.571 75.681 137.201 75.8091 139.533" stroke="#7D7D7D" stroke-width="0.48" stroke-linecap="round" stroke-linejoin="round"/>
<path d="M65.7295 188.27C65.6635 189.217 65.4306 190.746 65.8886 191.2C66.4902 191.806 72.1762 192.322 73.2125 192.322C74.2488 192.322 76.399 192.236 77.3499 191.806C78.3008 191.375 78.9024 191.115 78.2115 190.684C77.5206 190.253 72.0908 188.961 71.0584 187.668L70.6043 189.43L65.7295 188.27Z" fill="white" stroke="#263238" stroke-width="0.48" stroke-linecap="round" stroke-linejoin="round"/>
<path d="M87.0801 111.55C87.0801 111.55 88.5395 107.564 88.7801 106.741C89.0207 105.918 89.9445 106.496 90.4335 106.644C90.9225 106.791 92.1335 106.446 92.083 106.838C92.0511 107.028 91.9784 107.208 91.8698 107.367C91.7613 107.526 91.6195 107.659 91.4543 107.758C90.9056 107.822 90.3524 107.839 89.8009 107.808C89.8009 107.808 89.6068 108.635 89.7543 108.829C89.9018 109.023 94.2216 107.564 94.0236 108.099C93.8257 108.635 91.3999 111.402 90.6703 112.035C90.1476 112.456 89.557 112.786 88.9237 113.009C88.9237 113.009 84.0139 118.885 83.2843 119.906C82.8511 120.517 82.3276 121.059 81.7318 121.513L82.0694 114.464C82.0694 114.464 86.692 112.392 87.0801 111.55Z" fill="white" stroke="#263238" stroke-width="0.48" stroke-linecap="round" stroke-linejoin="round"/>
<path d="M85.4539 112.776C83.9868 113.614 82.0733 114.48 82.0733 114.48L81.7357 121.528C82.3315 121.074 82.855 120.533 83.2881 119.921C83.6258 119.452 84.8639 117.934 86.0904 116.428C85.0153 115.303 85.2055 113.711 85.4539 112.776Z" fill="#5767FF" stroke="#263238" stroke-width="0.48" stroke-linecap="round" stroke-linejoin="round"/>
<path d="M83.8976 115L85.1784 114.332" stroke="#263238" stroke-width="0.48" stroke-linecap="round" stroke-linejoin="round"/>
<path d="M84.2546 116.638L85.4345 115.869" stroke="#263238" stroke-width="0.48" stroke-linecap="round" stroke-linejoin="round"/>
<path d="M84.3089 113.362C84.3089 113.362 83.0941 115.792 84.895 117.631" stroke="#263238" stroke-width="0.48" stroke-linecap="round" stroke-linejoin="round"/>
<path d="M94.078 104.715L88.8306 112.244L89.2187 112.535L94.5631 105.006L94.078 104.715Z" fill="#263238"/>
<path d="M93.981 106.027C94.0558 106.541 94.0882 107.06 94.078 107.579C94.0275 108.115 93.8839 108.65 93.5929 108.743C93.3018 108.837 93.1543 107.432 93.2513 107.09C93.4464 106.705 93.6918 106.347 93.981 106.027Z" fill="white" stroke="#263238" stroke-width="0.48" stroke-linecap="round" stroke-linejoin="round"/>
<path d="M93.2513 107.094C93.2513 107.094 92.3275 107.971 92.2809 108.258C92.2344 108.546 92.475 110.005 92.7661 109.958C93.0572 109.912 93.7869 108.984 93.5928 108.743C93.3987 108.503 93.2513 107.094 93.2513 107.094Z" fill="white" stroke="#263238" stroke-width="0.48" stroke-linecap="round" stroke-linejoin="round"/>
<path d="M92.281 108.262C92.281 108.262 91.5513 109.089 91.5513 109.524C91.5513 109.958 91.5513 110.688 91.7454 110.932C91.9394 111.177 92.1335 111.127 92.378 110.738C92.5292 110.491 92.659 110.231 92.7661 109.962L92.281 108.262Z" fill="white" stroke="#263238" stroke-width="0.48" stroke-linecap="round" stroke-linejoin="round"/>
<path d="M91.7454 110.932C91.7454 110.932 91.2098 109.621 91.0662 109.768C90.9647 109.879 90.8863 110.01 90.8357 110.152C90.7851 110.294 90.7631 110.444 90.7712 110.595C90.8216 110.886 90.9691 111.616 91.2098 111.81C91.4504 112.004 91.6483 111.274 91.7454 110.932Z" fill="white" stroke="#263238" stroke-width="0.48" stroke-linecap="round" stroke-linejoin="round"/>
<path d="M60.8081 125.215C60.8081 125.215 60.0901 125.937 60.4472 126.655C60.8042 127.373 65.19 129.958 70.4297 131.033C75.6694 132.108 79.4109 131.751 80.0551 131.177C80.6994 130.603 80.8314 128.522 80.8314 128.522C76.8303 128.611 72.8443 128.003 69.0519 126.725C63.23 124.641 62.1549 124.284 61.7978 124.21C61.4408 124.136 60.8081 125.215 60.8081 125.215Z" fill="#5767FF" stroke="#263238" stroke-width="0.48" stroke-linecap="round" stroke-linejoin="round"/>
<path d="M62.0229 125.961L61.561 126.834" stroke="#263238" stroke-width="0.48" stroke-linecap="round" stroke-linejoin="round"/>
<path d="M62.6361 128.06L63.098 127.09" stroke="#263238" stroke-width="0.48" stroke-linecap="round" stroke-linejoin="round"/>
<path d="M65.0464 127.548L64.6854 128.627" stroke="#263238" stroke-width="0.48" stroke-linecap="round" stroke-linejoin="round"/>
<path d="M67.0957 128.316L66.7347 129.496" stroke="#263238" stroke-width="0.48" stroke-linecap="round" stroke-linejoin="round"/>
<path d="M76.0574 130.42L75.9061 131.084" stroke="#263238" stroke-width="0.48" stroke-linecap="round" stroke-linejoin="round"/>
<path d="M77.9049 130.471L77.6992 131.29" stroke="#263238" stroke-width="0.48" stroke-linecap="round" stroke-linejoin="round"/>
<path d="M66.7697 94.2626C66.7697 94.2626 63.0321 98.9201 62.8884 102.235C62.7448 105.549 63.8937 118.97 63.8937 118.97C63.8937 118.97 60.4472 124.14 60.8081 125.215C61.1691 126.29 70.7906 129.597 74.0237 130.028C77.2568 130.459 80.4859 130.603 81.1341 129.454C81.7823 128.305 82.2092 123.566 82.7836 118.105C83.3581 112.644 82.3528 105.107 80.9905 102.665C79.6282 100.224 76.0381 97.9265 76.0381 97.9265C76.0381 97.9265 67.7012 94.0452 66.7697 94.2626Z" fill="#5767FF" stroke="#263238" stroke-width="0.48" stroke-linecap="round" stroke-linejoin="round"/>
<path d="M66.4825 95.0505C66.4825 95.0505 67.0569 90.1679 67.4877 90.0981C67.9185 90.0282 76.6086 92.4656 76.7522 93.1138C76.8958 93.7619 76.3912 97.8528 76.0342 97.9265C75.6771 98.0002 66.4825 95.0505 66.4825 95.0505Z" fill="#5767FF" stroke="#263238" stroke-width="0.48" stroke-linecap="round" stroke-linejoin="round"/>
<path d="M68.2057 91.1732L67.7788 94.3674" stroke="#263238" stroke-width="0.48" stroke-linecap="round" stroke-linejoin="round"/>
<path d="M69.4516 92.1628L69.013 95.2484" stroke="#263238" stroke-width="0.48" stroke-linecap="round" stroke-linejoin="round"/>
<path d="M71.7454 91.3711L71.2175 94.7206" stroke="#263238" stroke-width="0.48" stroke-linecap="round" stroke-linejoin="round"/>
<path d="M72.8011 96.9251L73.1543 94.4567" stroke="#263238" stroke-width="0.48" stroke-linecap="round" stroke-linejoin="round"/>
<path d="M80.7227 71.7592C80.7227 71.7592 81.0836 73.3389 80.5791 74.2704C80.0745 75.2019 75.7702 78.6368 74.4855 79.9991C73.2009 81.3614 71.1089 83.5388 73.4764 86.2673C75.844 88.9958 76.2787 86.9853 76.2787 86.9853C76.2787 86.9853 75.06 90.0903 72.8321 90.719C70.6043 91.3478 66.4398 91.6544 64.0683 89.5003C61.6969 87.3462 59.5428 83.6785 60.7654 79.2267C61.988 74.7749 64.2857 69.8186 67.8758 69.1006C71.4659 68.3826 74.1983 68.5999 76.2088 69.1006C78.2193 69.6013 80.6528 70.754 80.7227 71.7592Z" fill="#263238" stroke="#263238" stroke-width="0.48" stroke-linecap="round" stroke-linejoin="round"/>
<path d="M66.1215 95.9859C66.1215 95.9859 63.5366 96.7039 62.6749 99.2189C61.8133 101.734 63.032 120.566 63.9674 121.555C64.9028 122.545 80.2686 110.637 80.2686 110.637C80.9452 110.536 81.5864 110.269 82.1354 109.861C82.8564 109.317 83.5303 108.714 84.1498 108.056C84.1498 108.056 83.6452 109.562 84.5069 109.062C85.3685 108.561 86.234 107.482 85.9468 106.547C85.6596 105.611 84.2197 104.319 84.2197 104.319C84.2197 104.319 83.8626 103.675 85.0813 103.818C86.3 103.962 86.5212 105.254 87.1655 104.983C87.8098 104.711 87.7399 104.206 86.5212 103.329C85.3025 102.452 83.2144 102.165 82.4964 103.186L78.3318 109.007L69.4399 112.504L69.0091 100.655" fill="#5767FF"/>
<path d="M66.1215 95.9859C66.1215 95.9859 63.5366 96.7039 62.6749 99.2189C61.8133 101.734 63.032 120.566 63.9674 121.555C64.9028 122.545 80.2686 110.637 80.2686 110.637C80.9452 110.536 81.5864 110.269 82.1354 109.861C82.8564 109.317 83.5303 108.714 84.1498 108.056C84.1498 108.056 83.6452 109.562 84.5069 109.062C85.3685 108.561 86.234 107.482 85.9468 106.547C85.6596 105.611 84.2197 104.319 84.2197 104.319C84.2197 104.319 83.8626 103.675 85.0813 103.818C86.3 103.962 86.5212 105.254 87.1655 104.983C87.8098 104.711 87.7399 104.206 86.5212 103.329C85.3025 102.452 83.2144 102.165 82.4964 103.186L78.3318 109.007L69.4399 112.504L69.0091 100.655" stroke="#263238" stroke-width="0.48" stroke-linecap="round" stroke-linejoin="round"/>
<path d="M75.5451 111.002L76.5697 110.54" stroke="#263238" stroke-width="0.48" stroke-linecap="round" stroke-linejoin="round"/>
<path d="M75.7508 112.388L77.1364 111.876" stroke="#263238" stroke-width="0.48" stroke-linecap="round" stroke-linejoin="round"/>
<path d="M77.5284 112.714C79.1663 111.48 80.2725 110.622 80.2725 110.622C80.9491 110.521 81.5903 110.254 82.1393 109.846C82.8584 109.307 83.5309 108.708 84.1498 108.057C84.1498 108.057 83.6453 109.562 84.5069 109.062C85.3685 108.561 86.234 107.482 85.9468 106.547C85.6596 105.611 84.2197 104.319 84.2197 104.319C84.2197 104.319 83.8626 103.675 85.0813 103.818C86.3 103.962 86.5212 105.254 87.1655 104.983C87.8098 104.711 87.7399 104.206 86.5212 103.329C85.3025 102.452 83.2144 102.165 82.4964 103.186L78.3318 109.007L76.4999 109.733L77.5284 112.714Z" fill="white" stroke="#263238" stroke-width="0.48" stroke-linecap="round" stroke-linejoin="round"/>
<path d="M74.9552 110.277L76.2476 113.44" stroke="#263238" stroke-width="0.48" stroke-linecap="round" stroke-linejoin="round"/>
<defs>
<linearGradient id="paint0_linear_223_9970" x1="106.599" y1="42.6176" x2="106.599" y2="182.028" gradientUnits="userSpaceOnUse">
<stop stop-color="white"/>
<stop offset="1" stop-color="#CDD1FF"/>
</linearGradient>
</defs>
</svg>
