<svg width="240" height="240" viewBox="0 0 240 240" fill="none" xmlns="http://www.w3.org/2000/svg">
<path d="M22.4082 157.074C4.78061 146.176 -4.73439 122.71 2.36665 103.24C5.12218 95.6849 10.0494 89.0485 15.899 83.5298C22.6482 77.1625 30.6894 72.1708 39.3899 68.9473C52.8234 63.9704 67.6946 63.1863 80.5484 56.8612C88.2162 53.088 94.8286 47.4984 102.144 43.0811C118.331 33.3073 140.239 29.9875 155.675 40.909C166.095 48.2818 172.022 60.9114 182.825 67.7125C196.646 76.4147 215.782 73.9079 228.638 83.9813C237.353 90.8095 241.396 102.759 239.569 113.678C237.743 124.597 230.474 134.261 220.975 139.947C209.111 147.049 194.292 148.285 182.945 156.185C173.53 162.741 167.617 173.095 160.015 181.687C147.389 195.955 129.097 205.604 110.048 205.894C93.8234 206.141 73.0483 198.4 64.7666 183.408C60.58 175.829 56.7888 172.447 48.5657 168.705C39.8812 164.753 30.5726 162.122 22.4082 157.074Z" fill="url(#paint0_linear_2328_36734)"/>
<path d="M87.3411 132.76C87.3411 132.76 93.4143 133.907 92.6948 132.063C92.0503 130.411 88.2648 132.278 87.4825 132.685C87.3915 132.733 87.3411 132.76 87.3411 132.76Z" fill="#1E1E1E"/>
<path d="M87.3713 132.681C87.3713 132.681 88.5183 126.608 86.674 127.327C84.8295 128.047 87.3713 132.681 87.3713 132.681Z" fill="#1E1E1E"/>
<path d="M84.9157 136.08C84.9157 136.08 90.9888 137.227 90.2694 135.383C89.5499 133.538 84.9157 136.08 84.9157 136.08Z" fill="#1E1E1E"/>
<path d="M84.9029 136.094C84.9029 136.094 86.0498 130.021 84.2054 130.74C82.361 131.46 84.9029 136.094 84.9029 136.094Z" fill="#1E1E1E"/>
<path d="M83.1221 139.182C83.1221 139.182 88.4501 140.188 87.8189 138.57C87.1877 136.952 83.1221 139.182 83.1221 139.182Z" fill="#1E1E1E"/>
<path d="M83.1532 139.217C83.1532 139.217 84.1594 133.889 82.5414 134.521C80.9232 135.152 83.1532 139.217 83.1532 139.217Z" fill="#1E1E1E"/>
<path d="M81.6915 142.383C81.6915 142.383 86.7643 142.676 85.9825 141.248C85.2008 139.82 81.6915 142.383 81.6915 142.383Z" fill="#1E1E1E"/>
<path d="M81.7831 142.423C81.7831 142.423 82.0755 137.35 80.648 138.132C79.2204 138.914 81.7831 142.423 81.7831 142.423Z" fill="#1E1E1E"/>
<path d="M80.6487 145.683C80.6487 145.683 85.6246 144.654 84.5003 143.477C83.3761 142.3 80.6487 145.683 80.6487 145.683Z" fill="#1E1E1E"/>
<path d="M80.7073 145.657C80.7073 145.657 79.6782 140.681 78.5013 141.806C77.3245 142.93 80.7073 145.657 80.7073 145.657Z" fill="#1E1E1E"/>
<path d="M79.9945 148.757C79.9945 148.757 84.3086 147.865 83.3338 146.844C82.3591 145.824 79.9945 148.757 79.9945 148.757Z" fill="#1E1E1E"/>
<path d="M80.1065 148.744C80.1065 148.744 79.2143 144.43 78.194 145.405C77.1736 146.379 80.1065 148.744 80.1065 148.744Z" fill="#1E1E1E"/>
<path d="M79.6755 151.159C79.6755 151.159 83.3599 150.397 82.5275 149.525C81.695 148.654 79.6755 151.159 79.6755 151.159Z" fill="#1E1E1E"/>
<path d="M79.7956 151.157C79.7956 151.157 79.0336 147.472 78.1621 148.305C77.2906 149.137 79.7956 151.157 79.7956 151.157Z" fill="#1E1E1E"/>
<path d="M87.1672 132.992C87.1672 132.992 91.9984 128.797 91.0542 127.957C90.1102 127.117 87.1672 132.992 87.1672 132.992Z" fill="#1E1E1E"/>
<path d="M79.8572 156.854C78.7557 149.216 81.0077 142.811 83.091 138.782C85.3475 134.418 87.9018 131.822 87.9273 131.797L88.146 132.014C88.1208 132.039 85.5944 134.609 83.3597 138.934C81.2998 142.92 79.073 149.257 80.1622 156.81L79.8572 156.854Z" fill="#1E1E1E"/>
<path d="M37.455 130.743C37.455 130.743 30.0337 133.842 30.4518 131.3C30.8264 129.023 36.149 130.378 37.2547 130.686C37.3833 130.722 37.455 130.743 37.455 130.743Z" fill="#1E1E1E"/>
<path d="M37.3953 130.651C37.3953 130.651 34.2966 123.229 36.8385 123.647C39.3805 124.066 37.3953 130.651 37.3953 130.651Z" fill="#1E1E1E"/>
<path d="M41.4383 134.315C41.4383 134.315 34.017 137.413 34.4352 134.871C34.8534 132.33 41.4383 134.315 41.4383 134.315Z" fill="#1E1E1E"/>
<path d="M41.4582 134.329C41.4582 134.329 38.3597 126.907 40.9015 127.326C43.4435 127.744 41.4582 134.329 41.4582 134.329Z" fill="#1E1E1E"/>
<path d="M44.5582 137.779C44.5582 137.779 38.0473 140.497 38.4142 138.267C38.7811 136.037 44.5582 137.779 44.5582 137.779Z" fill="#1E1E1E"/>
<path d="M44.5284 137.832C44.5284 137.832 41.8099 131.322 44.0399 131.689C46.2701 132.055 44.5284 137.832 44.5284 137.832Z" fill="#1E1E1E"/>
<path d="M47.2432 141.468C47.2432 141.468 40.8647 143.209 41.4747 141.181C42.0846 139.153 47.2432 141.468 47.2432 141.468Z" fill="#1E1E1E"/>
<path d="M47.1373 141.544C47.1373 141.544 45.3963 135.165 47.4246 135.775C49.4527 136.385 47.1373 141.544 47.1373 141.544Z" fill="#1E1E1E"/>
<path d="M49.4609 145.387C49.4609 145.387 42.8492 145.42 43.9628 143.619C45.0764 141.817 49.4609 145.387 49.4609 145.387Z" fill="#1E1E1E"/>
<path d="M49.3795 145.371C49.3795 145.371 49.3467 138.759 51.1482 139.872C52.9497 140.986 49.3795 145.371 49.3795 145.371Z" fill="#1E1E1E"/>
<path d="M51.1233 149.124C51.1233 149.124 45.391 149.152 46.3565 147.59C47.3219 146.028 51.1233 149.124 51.1233 149.124Z" fill="#1E1E1E"/>
<path d="M50.9771 149.138C50.9771 149.138 50.9488 143.405 52.5107 144.371C54.0726 145.336 50.9771 149.138 50.9771 149.138Z" fill="#1E1E1E"/>
<path d="M52.1773 152.095C52.1773 152.095 47.2815 152.119 48.1062 150.785C48.9307 149.451 52.1773 152.095 52.1773 152.095Z" fill="#1E1E1E"/>
<path d="M52.024 152.125C52.024 152.125 51.9998 147.229 53.3337 148.054C54.6676 148.878 52.024 152.125 52.024 152.125Z" fill="#1E1E1E"/>
<path d="M37.7388 130.991C37.7388 130.991 30.4573 126.954 31.4323 125.63C32.4075 124.306 37.7388 130.991 37.7388 130.991Z" fill="#1E1E1E"/>
<path d="M53.2058 159.916C52.5542 150.006 47.9755 142.405 44.2492 137.773C40.2062 132.748 36.2655 130.034 36.2263 130.008L36.4521 129.677C36.4917 129.704 40.4732 132.443 44.5529 137.511C48.3191 142.19 52.947 149.87 53.6057 159.889L53.2058 159.916Z" fill="#1E1E1E"/>
<g opacity="0.21">
<path d="M167.032 142.654C167.032 142.654 182.728 123.166 208.194 132.919C208.194 132.919 202.042 156.265 163.111 161.537L158.302 155.396L167.032 142.654Z" fill="#5767FF"/>
<path d="M169.173 151.176C177.963 144.646 187.713 139.087 198.319 136.16C199.841 135.771 201.379 135.448 202.929 135.201C201.382 135.47 199.851 135.814 198.337 136.224C192.285 137.901 186.543 140.538 181.059 143.573C176.957 145.876 172.962 148.384 169.173 151.176Z" fill="white"/>
<path d="M173.19 150.273C177.458 150.711 182.237 151.301 186.483 151.915C182.215 151.478 177.437 150.887 173.19 150.273Z" fill="white"/>
<path d="M178.007 144.155C179.24 141.256 180.571 138.36 181.969 135.537C180.737 138.436 179.405 141.332 178.007 144.155Z" fill="white"/>
<path d="M184.962 142.627C188.506 143.062 192.256 143.621 195.778 144.235C192.229 143.798 188.481 143.242 184.962 142.627Z" fill="white"/>
<path d="M188.81 137.911C190.59 136.093 192.454 134.318 194.359 132.631C192.58 134.45 190.715 136.224 188.81 137.911Z" fill="white"/>
<path d="M196.212 137.662C197.48 137.998 198.731 138.421 199.939 138.933C198.67 138.6 197.421 138.171 196.212 137.662Z" fill="white"/>
<path d="M197.828 135.741C198.81 134.72 199.861 133.757 200.969 132.874C199.988 133.897 198.933 134.855 197.828 135.741Z" fill="white"/>
</g>
<path d="M187.202 142.437C187.202 142.437 192.305 148.654 193.127 146.212C193.864 144.026 188.527 142.728 187.406 142.481C187.276 142.452 187.202 142.437 187.202 142.437Z" fill="#1E1E1E"/>
<path d="M187.298 142.384C187.298 142.384 193.515 137.281 191.073 136.459C188.632 135.637 187.298 142.384 187.298 142.384Z" fill="#1E1E1E"/>
<path d="M182.01 143.725C182.01 143.725 187.112 149.941 187.934 147.5C188.757 145.058 182.01 143.725 182.01 143.725Z" fill="#1E1E1E"/>
<path d="M181.985 143.728C181.985 143.728 188.202 138.625 185.76 137.803C183.319 136.981 181.985 143.728 181.985 143.728Z" fill="#1E1E1E"/>
<path d="M177.63 145.322C177.63 145.322 182.106 150.775 182.828 148.633C183.549 146.492 177.63 145.322 177.63 145.322Z" fill="#1E1E1E"/>
<path d="M177.631 145.383C177.631 145.383 183.084 140.907 180.943 140.185C178.801 139.464 177.631 145.383 177.631 145.383Z" fill="#1E1E1E"/>
<path d="M173.528 147.322C173.528 147.322 178.346 151.85 178.758 149.773C179.17 147.695 173.528 147.322 173.528 147.322Z" fill="#1E1E1E"/>
<path d="M173.586 147.438C173.586 147.438 178.115 142.62 176.037 142.208C173.96 141.796 173.586 147.438 173.586 147.438Z" fill="#1E1E1E"/>
<path d="M169.732 149.744C169.732 149.744 175.557 152.872 175.418 150.759C175.279 148.646 169.732 149.744 169.732 149.744Z" fill="#1E1E1E"/>
<path d="M169.812 149.767C169.812 149.767 172.941 143.943 170.827 144.082C168.714 144.221 169.812 149.767 169.812 149.767Z" fill="#1E1E1E"/>
<path d="M166.512 152.265C166.512 152.265 171.562 154.977 171.441 153.145C171.321 151.313 166.512 152.265 166.512 152.265Z" fill="#1E1E1E"/>
<path d="M166.635 152.346C166.635 152.346 169.347 147.296 167.515 147.416C165.683 147.537 166.635 152.346 166.635 152.346Z" fill="#1E1E1E"/>
<path d="M164.188 154.395C164.188 154.395 168.501 156.712 168.398 155.147C168.295 153.582 164.188 154.395 164.188 154.395Z" fill="#1E1E1E"/>
<path d="M164.31 154.493C164.31 154.493 166.626 150.18 165.061 150.283C163.496 150.386 164.31 154.493 164.31 154.493Z" fill="#1E1E1E"/>
<path d="M186.836 142.523C186.836 142.523 195.16 142.372 194.919 140.745C194.679 139.118 186.836 142.523 186.836 142.523Z" fill="#1E1E1E"/>
<path d="M159.613 160.821L159.272 160.61C164.551 152.069 172.24 147.455 177.76 145.088C183.739 142.524 188.541 141.971 188.588 141.966L188.632 142.364C188.585 142.369 183.832 142.918 177.905 145.462C172.442 147.806 164.834 152.374 159.613 160.821Z" fill="#1E1E1E"/>
<path d="M177.231 98.4139C177.231 98.4139 187.936 99.2205 186.337 96.1759C184.906 93.4487 178.732 97.403 177.461 98.257C177.313 98.3565 177.231 98.4139 177.231 98.4139Z" fill="#1E1E1E"/>
<path d="M177.268 98.2715C177.268 98.2715 178.075 87.5672 175.03 89.1653C171.985 90.7635 177.268 98.2715 177.268 98.2715Z" fill="#1E1E1E"/>
<path d="M173.686 104.613C173.686 104.613 184.39 105.42 182.792 102.375C181.194 99.3303 173.686 104.613 173.686 104.613Z" fill="#1E1E1E"/>
<path d="M173.666 104.639C173.666 104.639 174.473 93.9346 171.428 95.5327C168.384 97.1309 173.666 104.639 173.666 104.639Z" fill="#1E1E1E"/>
<path d="M171.189 110.313C171.189 110.313 180.58 111.02 179.178 108.349C177.776 105.678 171.189 110.313 171.189 110.313Z" fill="#1E1E1E"/>
<path d="M171.249 110.368C171.249 110.368 171.957 100.977 169.286 102.379C166.615 103.781 171.249 110.368 171.249 110.368Z" fill="#1E1E1E"/>
<path d="M169.338 116.115C169.338 116.115 178.15 115.64 176.525 113.327C174.9 111.014 169.338 116.115 169.338 116.115Z" fill="#1E1E1E"/>
<path d="M169.504 116.167C169.504 116.167 169.029 107.354 166.715 108.979C164.402 110.604 169.504 116.167 169.504 116.167Z" fill="#1E1E1E"/>
<path d="M168.175 122.013C168.175 122.013 176.565 119.275 174.397 117.461C172.229 115.647 168.175 122.013 168.175 122.013Z" fill="#1E1E1E"/>
<path d="M168.271 121.957C168.271 121.957 165.534 113.567 163.72 115.735C161.905 117.903 168.271 121.957 168.271 121.957Z" fill="#1E1E1E"/>
<path d="M167.64 127.445C167.64 127.445 174.914 125.072 173.034 123.499C171.155 121.926 167.64 127.445 167.64 127.445Z" fill="#1E1E1E"/>
<path d="M167.831 127.401C167.831 127.401 165.457 120.127 163.884 122.007C162.311 123.886 167.831 127.401 167.831 127.401Z" fill="#1E1E1E"/>
<path d="M167.553 131.652C167.553 131.652 173.766 129.625 172.16 128.282C170.555 126.938 167.553 131.652 167.553 131.652Z" fill="#1E1E1E"/>
<path d="M167.76 131.626C167.76 131.626 165.733 125.413 164.389 127.018C163.046 128.623 167.76 131.626 167.76 131.626Z" fill="#1E1E1E"/>
<path d="M176.975 98.8467C176.975 98.8467 184.504 90.6728 182.712 89.4051C180.92 88.1376 176.975 98.8467 176.975 98.8467Z" fill="#1E1E1E"/>
<path d="M169.019 142.127C167.528 136.399 167.075 130.443 167.673 124.425C168.151 119.612 169.299 114.749 171.083 109.971C174.122 101.836 178.014 96.6921 178.053 96.6411L178.479 96.9658C178.44 97.0163 174.588 102.11 171.578 110.176C169.812 114.909 168.677 119.724 168.204 124.489C167.614 130.441 168.063 136.33 169.537 141.993L169.019 142.127Z" fill="#1E1E1E"/>
<path d="M160.048 137.42C160.048 137.42 162.717 119.41 182.289 116.148C182.289 116.148 187.03 133.063 164.544 150.713L159.264 148.632L160.048 137.42Z" fill="#5767FF"/>
<path d="M164.531 141.979C166.273 137.755 168.441 133.709 170.91 129.866C172.789 127.001 174.881 124.264 177.287 121.819C178.099 121.015 178.945 120.246 179.826 119.52C178.955 120.258 178.121 121.038 177.322 121.853C174.932 124.307 172.856 127.05 170.992 129.92C168.501 133.744 166.341 137.789 164.531 141.979Z" fill="white"/>
<path d="M166.719 139.932C169.558 138.635 172.774 137.244 175.665 136.066C172.825 137.364 169.609 138.753 166.719 139.932Z" fill="white"/>
<path d="M167.487 134.319C167.201 132.111 166.956 129.673 166.799 127.451C167.086 129.66 167.33 132.098 167.487 134.319Z" fill="white"/>
<path d="M171.288 130.798C173.644 129.778 176.263 128.721 178.667 127.822C176.311 128.843 173.692 129.898 171.288 130.798Z" fill="white"/>
<path d="M171.966 126.421C172.414 124.618 172.926 122.831 173.502 121.064C173.054 122.867 172.541 124.654 171.966 126.421Z" fill="white"/>
<path d="M176.518 123.538C177.439 123.281 178.377 123.088 179.325 122.963C178.405 123.221 177.466 123.413 176.518 123.538Z" fill="white"/>
<path d="M176.824 121.737C177.065 120.733 177.37 119.745 177.739 118.781C177.499 119.785 177.193 120.773 176.824 121.737Z" fill="white"/>
<path d="M164.331 168.88L107.725 149.828C107.029 149.594 106.564 148.969 106.564 148.269V66.2297C106.564 65.504 107.063 64.8629 107.794 64.6487L164.4 48.0816C165.523 47.7528 166.661 48.5486 166.661 49.6626V167.321C166.661 168.464 165.467 169.263 164.331 168.88Z" fill="white"/>
<path d="M164.916 169.201C164.696 169.201 164.474 169.166 164.259 169.093L107.654 150.041C106.867 149.777 106.339 149.064 106.339 148.269V66.2298C106.339 65.3989 106.898 64.6769 107.731 64.4332L164.337 47.8661C164.954 47.6853 165.626 47.8049 166.134 48.1855C166.612 48.5437 166.886 49.0823 166.886 49.6627V167.321C166.886 167.917 166.6 168.464 166.102 168.822C165.755 169.071 165.338 169.201 164.916 169.201ZM164.915 48.2327C164.764 48.2327 164.611 48.254 164.463 48.2975L107.858 64.8644C107.218 65.0516 106.788 65.6003 106.788 66.2297V148.269C106.788 148.871 107.194 149.412 107.797 149.615L164.403 168.667C164.89 168.831 165.428 168.753 165.84 168.457C166.219 168.184 166.437 167.77 166.437 167.321V49.6627C166.437 49.2251 166.228 48.8177 165.864 48.545C165.591 48.3401 165.255 48.2327 164.915 48.2327Z" fill="#1E1E1E"/>
<g opacity="0.2">
<path d="M158.543 58.8646V101.97L111.451 105.079V72.0379L158.543 58.8646Z" fill="#B9BFF9"/>
</g>
<g opacity="0.2">
<path d="M158.543 114.154V157.53L111.451 142.674V111.211L158.543 114.154Z" fill="#B9BFF9"/>
</g>
<path d="M33.785 160.097L33.7828 160.544L139.486 161.062L139.488 160.615L33.785 160.097Z" fill="#1E1E1E"/>
<path d="M72.7406 85.4814C72.7406 85.4814 70.4613 81.2845 64.5477 82.2137L72.7406 85.4814Z" fill="#B9BFF9"/>
<path d="M72.5446 85.5883C72.5224 85.5477 70.2611 81.5422 64.5825 82.4344L64.5132 81.9931C67.642 81.5015 69.7633 82.4417 70.9915 83.3173C72.3271 84.2693 72.9128 85.3301 72.9369 85.3749L72.5446 85.5883Z" fill="#5767FF"/>
<path d="M58.6763 76.6347C58.6156 76.6347 58.5549 76.6116 58.5087 76.5652C58.4162 76.4727 58.4162 76.3226 58.5087 76.2301L58.5942 76.1446C58.6868 76.0519 58.8369 76.0519 58.9294 76.1446C59.0219 76.2371 59.0219 76.3872 58.9294 76.4797L58.8439 76.5652C58.7976 76.6114 58.737 76.6347 58.6763 76.6347Z" fill="white"/>
<path d="M54.5462 76.6347C54.4153 76.6347 54.3092 76.5284 54.3092 76.3976V76.3212C54.3092 76.1902 54.4154 76.0841 54.5462 76.0841C54.677 76.0841 54.7833 76.1902 54.7833 76.3212V76.3976C54.7833 76.5284 54.6771 76.6347 54.5462 76.6347Z" fill="white"/>
<path d="M33.7247 160.261C33.7247 160.261 20.9789 151.748 19.5919 131.207C19.5919 131.207 40.9638 132.507 51.2532 160.146L33.7247 160.261Z" fill="#7985FF"/>
<path d="M42.9922 159.74C38.9748 152.741 34.4571 145.988 29.1442 139.901C27.6854 138.266 26.1419 136.662 24.4942 135.213C23.3954 134.24 22.2477 133.32 21.0281 132.499C29.7912 138.395 37.8118 150.552 42.9922 159.74Z" fill="white"/>
<path d="M43.2677 158.156C43.5789 155.413 43.9991 152.344 44.4382 149.618C44.1276 152.361 43.7062 155.43 43.2677 158.156Z" fill="white"/>
<path d="M38.2411 154.782C35.2251 154.028 31.8589 153.113 28.8768 152.234C31.8929 152.988 35.2589 153.904 38.2411 154.782Z" fill="white"/>
<path d="M38.0347 143.283C38.3655 145.541 38.6593 148.034 38.861 150.307C38.5295 148.049 38.2367 145.556 38.0347 143.283Z" fill="white"/>
<path d="M32.4574 138.808C32.9346 140.443 33.3486 142.097 33.6968 143.765C33.2191 142.13 32.806 140.475 32.4574 138.808Z" fill="white"/>
<path d="M28.4636 146.175C30.3966 146.847 32.4989 147.654 34.3853 148.447C32.4522 147.776 30.3503 146.969 28.4636 146.175Z" fill="white"/>
<path d="M28.8079 136.673C29.1231 137.36 29.3774 138.075 29.5653 138.808C29.2496 138.12 28.9965 137.405 28.8079 136.673Z" fill="white"/>
<path d="M24.8143 139.978C26.5638 140.744 28.2866 141.571 29.9785 142.457C28.2289 141.691 26.5063 140.864 24.8143 139.978Z" fill="white"/>
<path d="M91.3667 160.554C91.3667 160.554 100.285 154.598 101.256 140.224C101.256 140.224 86.3015 141.134 79.1019 160.474L91.3667 160.554Z" fill="#7985FF"/>
<path d="M84.8821 160.189C88.5355 153.725 94.0774 145.299 100.251 141.129C99.3972 141.703 98.5941 142.347 97.8254 143.028C95.5186 145.073 93.5137 147.441 91.6519 149.892C89.1649 153.164 86.9193 156.62 84.8821 160.189Z" fill="white"/>
<path d="M84.6894 159.081C84.3804 157.16 84.0892 155.04 83.8704 153.107C84.1797 155.028 84.47 157.148 84.6894 159.081Z" fill="white"/>
<path d="M88.2065 156.721C90.3081 156.102 92.6333 155.469 94.7588 154.938C92.6572 155.557 90.332 156.189 88.2065 156.721Z" fill="white"/>
<path d="M88.351 148.675C88.2095 150.265 88.0046 152.009 87.7728 153.589C87.914 151.999 88.1196 150.254 88.351 148.675Z" fill="white"/>
<path d="M92.2535 145.543C92.0179 146.673 91.7103 147.905 91.3864 149.012C91.6215 147.882 91.9298 146.651 92.2535 145.543Z" fill="white"/>
<path d="M95.0479 150.698C93.7279 151.253 92.2572 151.818 90.9046 152.288C92.2244 151.733 93.6954 151.169 95.0479 150.698Z" fill="white"/>
<path d="M94.807 144.049C94.6749 144.563 94.4981 145.062 94.2771 145.543C94.4088 145.03 94.586 144.531 94.807 144.049Z" fill="white"/>
<path d="M97.6014 146.362C96.4558 146.962 95.1731 147.578 93.988 148.097C95.1334 147.496 96.4164 146.88 97.6014 146.362Z" fill="white"/>
<path d="M74.0494 119.399C78.5847 119.399 82.2613 115.722 82.2613 111.187C82.2613 106.651 78.5847 102.975 74.0494 102.975C69.5141 102.975 65.8375 106.651 65.8375 111.187C65.8375 115.722 69.5141 119.399 74.0494 119.399Z" fill="#B9BFF9"/>
<path d="M74.0493 119.655C69.38 119.655 65.5814 115.856 65.5814 111.187C65.5814 106.517 69.38 102.719 74.0493 102.719C78.7187 102.719 82.5173 106.517 82.5173 111.187C82.5173 115.856 78.7187 119.655 74.0493 119.655ZM74.0493 103.231C69.6626 103.231 66.0937 106.8 66.0937 111.187C66.0937 115.573 69.6626 119.142 74.0493 119.142C78.4361 119.142 82.005 115.573 82.005 111.187C82.005 106.8 78.4361 103.231 74.0493 103.231Z" fill="#5767FF"/>
<path d="M58.7796 96.6108C58.7796 96.6108 50.2034 100.191 44.0419 106.769L43.459 116.594L49.6045 131.81L54.0817 160.374L80.9278 160.308C80.9278 160.308 83.7244 134.674 81.2279 120.111C78.7315 105.549 73.9051 98.2261 62.7544 96.4786" fill="#B9BFF9"/>
<path d="M54.0818 160.63C53.9556 160.63 53.8482 160.538 53.8286 160.414L49.356 131.879L43.2214 116.69C43.2072 116.655 43.201 116.617 43.2033 116.579L43.7862 106.754C43.7897 106.694 43.814 106.638 43.855 106.594C49.9831 100.052 58.5947 96.4104 58.681 96.3744L58.8784 96.8473C58.7935 96.8828 50.3393 100.459 44.2924 106.877L43.7185 116.552L49.8423 131.714C49.8496 131.732 49.8548 131.751 49.8578 131.771L54.301 160.117L80.6974 160.052C80.9648 157.471 83.3127 133.788 80.9755 120.155C78.369 104.95 73.2493 98.3827 62.715 96.7319L62.7943 96.2256C68.4373 97.11 72.456 99.3692 75.4413 103.335C78.2425 107.057 80.1614 112.374 81.4806 120.068C83.9545 134.499 81.2107 160.079 81.1828 160.336C81.1687 160.465 81.0592 160.564 80.9286 160.564L54.0825 160.63C54.0822 160.63 54.0818 160.63 54.0818 160.63Z" fill="#5767FF"/>
<path d="M51.3783 100.499C51.3783 100.499 58.4687 100.42 61.1474 107.589C63.826 114.759 58.39 119.486 54.5295 120.983C50.6693 122.479 51.3783 100.499 51.3783 100.499Z" fill="#1E1E1E"/>
<path d="M59.2388 132.337C55.5179 132.337 51.9599 131.491 48.6635 129.822L48.9767 129.203C52.1752 130.822 55.6278 131.644 59.2388 131.644C63.9182 131.644 68.4129 130.234 72.2366 127.567C75.9744 124.96 78.817 121.345 80.4569 117.113L81.1037 117.364C79.4137 121.725 76.4847 125.449 72.6335 128.136C68.6927 130.884 64.061 132.337 59.2388 132.337Z" fill="#5767FF"/>
<path d="M59.196 93.0305L57.5307 97.6101C57.5307 97.6101 62.693 103.938 71.3526 106.02L69.2711 98.4426L70.2702 95.0288L59.196 93.0305Z" fill="#1E1E1E"/>
<path d="M91.6539 128.798L98.607 124.47L101.019 129.224L94.6338 133.197L91.6539 128.798Z" fill="#5767FF"/>
<path d="M68.8156 141.268L91.2697 128.133C93.2991 126.946 95.9072 127.907 96.6808 130.127C97.2186 131.67 96.6906 133.383 95.3777 134.356L71.4765 152.063C68.7417 154.089 64.8385 153.128 63.3574 150.064C63.3574 150.064 61.8319 146.792 63.9165 143.874L68.8156 141.268Z" fill="#B9BFF9"/>
<path d="M68.2506 153.478C67.7883 153.478 67.3231 153.422 66.8637 153.309C65.188 152.896 63.796 151.768 63.045 150.215C62.9771 150.069 61.4569 146.72 63.6343 143.672C63.6655 143.628 63.7063 143.593 63.7536 143.568L68.6464 140.965L91.0945 127.833C92.1517 127.215 93.417 127.103 94.5661 127.527C95.7152 127.95 96.6053 128.856 97.0084 130.013C97.5991 131.708 97.0269 133.566 95.5841 134.634L71.6829 152.342C70.6762 153.088 69.4746 153.478 68.2506 153.478ZM64.1523 144.141C62.2833 146.838 63.6574 149.887 63.6716 149.918C64.3302 151.28 65.555 152.272 67.0295 152.636C68.5042 152.999 70.0496 152.688 71.2697 151.784L95.171 134.077C96.3684 133.19 96.8435 131.648 96.3531 130.241C96.0186 129.281 95.2798 128.529 94.3261 128.177C93.3723 127.826 92.3221 127.919 91.4447 128.432L68.9905 141.567C68.9865 141.57 68.9823 141.572 68.9783 141.574L64.1523 144.141Z" fill="#5767FF"/>
<g opacity="0.44">
<path d="M63.4098 149.507C63.4098 149.507 66.2058 150.947 68.7478 150.185L94.8444 131.883C94.8444 131.883 95.9458 131.29 95.607 129.511C95.607 129.511 97.2168 131.205 96.0306 133.578L70.6967 152.134C70.6964 152.134 66.1211 154.421 63.4098 149.507Z" fill="#5767FF"/>
</g>
<path d="M75.8625 83.296C75.8625 91.0785 73.8179 97.2439 67.571 97.2439C61.3241 97.2439 52.4122 91.3481 52.8264 82.2658C53.1809 74.4921 58.3047 69.2046 64.5514 69.2046C70.7984 69.2045 75.8625 75.5135 75.8625 83.296Z" fill="#B9BFF9"/>
<path d="M67.5711 97.5002C63.8285 97.5002 59.489 95.4892 56.5155 92.3773C54.5968 90.369 52.3548 86.9825 52.5705 82.2542C52.9221 74.5443 57.9608 68.9484 64.5515 68.9484C70.9297 68.9484 76.1186 75.3847 76.1186 83.296C76.1186 87.573 75.5025 90.9406 74.2872 93.3055C72.857 96.089 70.5973 97.5002 67.5711 97.5002ZM64.5516 69.4607C58.2447 69.4607 53.4212 74.8509 53.0824 82.2774C52.875 86.8248 55.0364 90.0872 56.886 92.0232C59.7674 95.039 63.9615 96.9877 67.5709 96.9877C70.3895 96.9877 72.4958 95.67 73.8313 93.0712C75.009 90.7794 75.6062 87.4906 75.6062 83.2959C75.6064 75.6671 70.6471 69.4607 64.5516 69.4607Z" fill="#5767FF"/>
<path d="M45.7189 120.053L57.0278 141.801C58.5147 144.66 62.0132 145.808 64.9049 144.385L64.9253 144.375C67.5711 143.073 68.8578 140.024 67.9447 137.22L59.7027 111.909L45.7189 120.053Z" fill="#B9BFF9"/>
<path d="M62.2923 145.343C61.6342 145.343 60.9736 145.239 60.3315 145.028C58.7638 144.514 57.4813 143.425 56.7201 141.961L45.4113 120.213C45.3259 120.049 45.3845 119.847 45.5444 119.753L59.5283 111.609C59.6188 111.556 59.7284 111.547 59.8264 111.585C59.9243 111.622 60.0001 111.702 60.0326 111.801L68.2746 137.113C69.2347 140.061 67.8608 143.317 65.0785 144.686L65.0585 144.696C64.1843 145.126 63.2409 145.343 62.2923 145.343ZM46.1791 120.186L57.3355 141.641C58.7241 144.311 62.0513 145.403 64.7518 144.074L64.7717 144.064C67.2468 142.846 68.469 139.95 67.615 137.328L59.5059 112.425L46.1791 120.186Z" fill="#5767FF"/>
<g opacity="0.44">
<path d="M52.2255 121.547L61.8846 142.136C61.8846 142.136 63.3251 144 65.8669 143.576C65.8669 143.576 61.461 146.287 57.7329 142.559L45.8666 119.935L52.2255 121.547Z" fill="#5767FF"/>
</g>
<path d="M57.8026 118.615C61.7686 114.649 61.7686 108.219 57.8026 104.253C53.8367 100.287 47.4066 100.287 43.4406 104.253C39.4746 108.219 39.4746 114.649 43.4406 118.615C47.4066 122.581 53.8367 122.581 57.8026 118.615Z" fill="#B9BFF9"/>
<path d="M50.6229 121.846C44.8819 121.846 40.2111 117.175 40.2111 111.434C40.2111 105.693 44.8819 101.022 50.6229 101.022C56.3639 101.022 61.0347 105.693 61.0347 111.434C61.0346 117.175 56.3639 121.846 50.6229 121.846ZM50.6229 101.535C45.1643 101.535 40.7235 105.976 40.7235 111.434C40.7235 116.893 45.1643 121.334 50.6229 121.334C56.0814 121.334 60.5223 116.893 60.5223 111.434C60.5222 105.976 56.0814 101.535 50.6229 101.535Z" fill="#5767FF"/>
<path d="M56.1501 87.1404C57.0499 87.1404 57.7793 86.411 57.7793 85.5113C57.7793 84.6115 57.0499 83.8821 56.1501 83.8821C55.2504 83.8821 54.521 84.6115 54.521 85.5113C54.521 86.411 55.2504 87.1404 56.1501 87.1404Z" fill="#5767FF"/>
<path d="M74.5557 76.8582C74.5557 76.8582 72.009 78.439 66.3917 78.5793L67.0537 84.3602C67.0537 84.3602 71.5991 85.331 75.9679 84.3161C75.9679 84.3161 75.7031 78.7116 74.5557 76.8582Z" fill="white"/>
<path d="M71.6107 85.0335C69.0153 85.0335 67.03 84.6191 66.9998 84.6125L66.8184 84.5738L66.1031 78.3282L66.3852 78.3211C71.8503 78.1846 74.3948 76.654 74.4198 76.6386L74.6391 76.5035L74.775 76.7222C75.9442 78.6109 76.2145 84.0722 76.2254 84.3039L76.2356 84.5187L76.026 84.5674C74.5164 84.9182 72.9786 85.0335 71.6107 85.0335ZM67.2887 84.1428C68.1553 84.3024 71.9874 84.9182 75.698 84.1123C75.6377 83.1153 75.3375 78.9413 74.4561 77.2082C73.7163 77.5902 71.2371 78.6744 66.6802 78.829L67.2887 84.1428Z" fill="#5767FF"/>
<path d="M94.5712 126.488L104.577 119.061C104.577 119.061 107.982 123.187 107.363 128.448C107.363 128.448 105.403 131.749 97.8722 132.059C97.8722 132.059 94.7776 129.892 94.5712 126.488Z" fill="#B9BFF9"/>
<path d="M97.8723 132.405C97.8013 132.405 97.7318 132.384 97.6734 132.343C97.5415 132.25 94.439 130.04 94.2251 126.509C94.2181 126.392 94.2705 126.28 94.3646 126.21L104.371 118.782C104.519 118.672 104.728 118.698 104.845 118.84C104.988 119.013 108.336 123.142 107.707 128.489C107.702 128.537 107.686 128.583 107.661 128.625C107.577 128.767 105.517 132.092 97.8864 132.405C97.8819 132.405 97.877 132.405 97.8723 132.405ZM94.9319 126.652C95.1941 129.423 97.4921 131.331 97.9807 131.707C101.686 131.537 103.955 130.618 105.21 129.872C106.364 129.186 106.89 128.519 107.028 128.325C107.496 124.051 105.209 120.513 104.508 119.544L94.9319 126.652Z" fill="#5767FF"/>
<path d="M104.537 119.126L110.354 115.553L118.401 112.355L118.435 113.141C118.476 114.096 117.923 114.977 117.044 115.354L111.283 117.823L106.228 121.743L104.537 119.126Z" fill="#B9BFF9"/>
<path d="M106.228 122.09C106.209 122.09 106.189 122.088 106.17 122.085C106.074 122.068 105.989 122.013 105.937 121.931L104.246 119.314C104.195 119.236 104.178 119.14 104.199 119.049C104.22 118.958 104.276 118.88 104.356 118.831L110.173 115.258C110.19 115.247 110.208 115.239 110.226 115.231L118.272 112.033C118.377 111.991 118.495 112.003 118.589 112.064C118.683 112.125 118.742 112.228 118.747 112.34L118.781 113.126C118.829 114.219 118.185 115.242 117.181 115.672L111.46 118.124L106.44 122.017C106.379 122.064 106.304 122.09 106.228 122.09ZM105.021 119.236L106.314 121.237L111.07 117.549C111.093 117.531 111.119 117.516 111.146 117.504L116.907 115.035C117.649 114.717 118.123 113.962 118.088 113.156L118.075 112.858L110.51 115.865L105.021 119.236Z" fill="#5767FF"/>
<path d="M105.815 120.814L110.664 119.164L115.409 121.433L116.234 124.631L115.846 124.761C114.846 125.094 113.759 124.594 113.361 123.617L112.933 122.568L110.457 121.64L106.847 123.084" fill="#B9BFF9"/>
<path d="M115.218 125.21C114.287 125.21 113.408 124.652 113.04 123.748L112.669 122.839L110.462 122.012L106.976 123.406L106.718 122.762L110.329 121.318C110.409 121.286 110.498 121.285 110.579 121.315L113.055 122.243C113.146 122.277 113.218 122.348 113.255 122.437L113.682 123.486C114.01 124.291 114.913 124.706 115.737 124.432L115.818 124.405L115.114 121.677L110.642 119.538L105.927 121.143L105.704 120.486L110.552 118.836C110.638 118.806 110.732 118.812 110.814 118.851L115.559 121.121C115.651 121.165 115.72 121.248 115.745 121.347L116.57 124.545C116.616 124.721 116.517 124.903 116.344 124.96L115.956 125.09C115.712 125.171 115.463 125.21 115.218 125.21Z" fill="#5767FF"/>
<path d="M106.847 123.084L110.148 122.156L114.274 123.393L115.306 126.385L114.936 126.515C113.978 126.85 112.923 126.397 112.507 125.472L112.314 125.044L110.251 124.631L107.26 125.869L106.847 123.084Z" fill="#B9BFF9"/>
<path d="M114.28 126.974C113.399 126.974 112.574 126.465 112.191 125.614L112.071 125.349L110.286 124.992L107.392 126.19C107.294 126.231 107.181 126.224 107.088 126.171C106.996 126.118 106.932 126.026 106.916 125.92L106.504 123.135C106.478 122.962 106.585 122.797 106.753 122.75L110.054 121.822C110.118 121.804 110.185 121.804 110.248 121.823L114.374 123.061C114.481 123.093 114.566 123.175 114.602 123.28L115.634 126.272C115.696 126.452 115.601 126.649 115.42 126.712L115.05 126.842C114.795 126.931 114.535 126.974 114.28 126.974ZM110.251 124.284C110.274 124.284 110.297 124.287 110.319 124.291L112.382 124.704C112.492 124.726 112.585 124.799 112.631 124.902L112.823 125.329C113.168 126.096 114.027 126.465 114.821 126.187L114.865 126.171L114.004 123.674L110.145 122.517L107.235 123.335L107.537 125.379L110.119 124.311C110.161 124.293 110.206 124.284 110.251 124.284Z" fill="#5767FF"/>
<path d="M107.363 124.631H110.251L112.624 128.139V130.511C111.516 130.569 110.548 129.769 110.398 128.67L110.354 128.345L108.713 127.28L107.797 127.529" fill="#B9BFF9"/>
<path d="M112.513 130.861C111.288 130.861 110.222 129.942 110.055 128.716L110.032 128.549L108.654 127.655L107.889 127.864L107.706 127.195L108.622 126.945C108.717 126.919 108.819 126.935 108.902 126.989L110.543 128.054C110.628 128.109 110.684 128.198 110.698 128.298L110.742 128.623C110.852 129.425 111.497 130.046 112.277 130.151V128.245L110.067 124.978H107.363V124.285H110.251C110.366 124.285 110.474 124.342 110.538 124.437L112.911 127.944C112.95 128.002 112.971 128.069 112.971 128.139V130.511C112.971 130.696 112.826 130.848 112.642 130.858C112.599 130.86 112.556 130.861 112.513 130.861Z" fill="#5767FF"/>
<path d="M114.933 76.1122L129.604 71.8278V99.4814L114.804 100.65C114.804 100.65 115.193 75.8525 114.933 76.1122Z" fill="#5767FF"/>
<path d="M133.759 71.1786L152.973 66.3749V78.3193L133.629 81.8246L133.759 71.1786Z" fill="#5767FF"/>
<g opacity="0.25">
<path d="M133.888 85.9792L153.103 83.1229V97.2744L133.759 98.8324L133.888 85.9792Z" fill="#B9BFF9"/>
</g>
<path d="M116.077 116.594L128.903 117.174L128.949 142.492L115.844 137.82C115.844 137.82 116.294 116.446 116.077 116.594Z" fill="#5767FF"/>
<g opacity="0.69">
<path d="M132.789 117.866L152.432 119.59L152.62 131.47L132.706 127.633L132.789 117.866Z" fill="#5767FF"/>
</g>
<g opacity="0.69">
<path d="M132.97 131.588L152.842 136.349L153.07 150.733L132.896 143.596L132.97 131.588Z" fill="#B9BFF9"/>
</g>
<path d="M76.2739 103.493C76.2739 103.493 80.2131 109.007 81.0009 115.625L80.5281 116.413C80.5281 116.413 78.0859 106.329 75.0133 103.177L76.2739 103.493Z" fill="#1E1E1E"/>
<g opacity="0.44">
<path d="M45.2442 103.068C45.2442 103.068 42.047 112.41 50.3497 116.827C50.3497 116.827 53.5844 118.753 58.9994 116.823C58.9994 116.823 54.0114 124.327 45.8666 119.935C37.7984 115.585 40.9523 104.676 45.2442 103.068Z" fill="#5767FF"/>
</g>
<g opacity="0.35">
<path d="M70.0992 101.125C70.0992 101.125 78.7182 108.37 76.095 119.487C73.4718 130.604 66.2268 130.23 66.2268 130.23C66.2268 130.23 80.342 126.232 80.2171 114.366C80.2171 114.366 75.8124 101.382 69.2708 98.4426L70.0992 101.125Z" fill="white"/>
</g>
<path d="M50.1834 54.2326C50.0525 54.2326 49.9464 54.1263 49.9464 53.9955V48.8621C49.9464 48.7312 50.0526 48.6251 50.1834 48.6251C50.3143 48.6251 50.4204 48.7312 50.4204 48.8621V53.9955C50.4205 54.1265 50.3143 54.2326 50.1834 54.2326Z" fill="white"/>
<path d="M65.5013 62.4565V74.4254C65.5013 75.5145 64.6183 76.3976 63.529 76.3976H58.6762L54.546 80.6177V76.3976H37.6671C36.5779 76.3976 35.6948 75.5147 35.6948 74.4254V62.4565C35.6948 61.3673 36.5778 60.4842 37.6671 60.4842H44.5131C44.9856 57.5508 47.5275 55.3103 50.5958 55.3103C53.6687 55.3103 56.2107 57.5508 56.6831 60.4842H63.529C64.6183 60.4842 65.5013 61.3672 65.5013 62.4565Z" fill="white"/>
<path d="M54.5463 80.6694C54.5397 80.6694 54.5331 80.6681 54.5267 80.6656C54.5072 80.6577 54.4944 80.6387 54.4944 80.6177V76.4493H37.6671C36.5511 76.4493 35.6431 75.5414 35.6431 74.4254V62.4565C35.6431 61.3404 36.551 60.4325 37.6671 60.4325H44.4692C44.9738 57.4319 47.5435 55.2586 50.596 55.2586C53.651 55.2586 56.2225 57.4319 56.7271 60.4325H63.5291C64.6452 60.4325 65.5531 61.3405 65.5531 62.4565V74.4254C65.5531 75.5413 64.6451 76.4493 63.5291 76.4493H58.6979L54.5831 80.6539C54.5733 80.6641 54.5598 80.6694 54.5463 80.6694ZM37.6671 60.5359C36.6082 60.5359 35.7466 61.3974 35.7466 62.4563V74.4252C35.7466 75.4841 36.6081 76.3457 37.6671 76.3457H54.5461C54.5747 76.3457 54.5978 76.3689 54.5978 76.3974V80.4907L58.6392 76.3612C58.649 76.3513 58.6623 76.3457 58.6761 76.3457H63.529C64.588 76.3457 65.4494 75.4841 65.4494 74.4252V62.4563C65.4494 61.3973 64.5879 60.5359 63.529 60.5359H56.683C56.6577 60.5359 56.636 60.5173 56.6319 60.4924C56.1532 57.5197 53.6146 55.362 50.5957 55.362C47.5795 55.362 45.0427 57.5196 44.564 60.4924C44.56 60.5175 44.5383 60.5359 44.513 60.5359H37.6671Z" fill="#5767FF"/>
<path d="M51.8255 70.3875C53.2716 68.3554 54.8261 66.0166 54.8261 63.5977C54.8261 60.5812 52.9417 58.1359 50.6172 58.1359C48.2928 58.1359 46.4084 60.5813 46.4084 63.5977C46.4084 65.9853 48.0764 68.5274 49.1249 70.3409L51.8255 70.3875Z" fill="#B9BFF9"/>
<path d="M49.1048 70.2528L49.4423 73.004H51.6075L51.9052 70.302L49.1048 70.2528Z" fill="#1E1E1E"/>
<path d="M49.2861 64.1956C49.2861 64.5031 49.0368 64.7524 48.7293 64.7524C48.4218 64.7524 48.1725 64.5031 48.1725 64.1956C48.1725 63.8881 48.4218 63.6388 48.7293 63.6388C49.0368 63.6388 49.2861 63.8881 49.2861 64.1956Z" fill="#5767FF"/>
<path d="M53.2694 64.1956C53.2694 64.5031 53.0201 64.7524 52.7126 64.7524C52.4051 64.7524 52.1558 64.5031 52.1558 64.1956C52.1558 63.8881 52.4051 63.6388 52.7126 63.6388C53.0201 63.6388 53.2694 63.8881 53.2694 64.1956Z" fill="#5767FF"/>
<path d="M51.163 70.4307H49.8513L48.5099 64.5024L48.9488 64.403L50.2107 69.9808H50.8238L52.4963 64.1338L52.9288 64.2576L51.163 70.4307Z" fill="#5767FF"/>
<path d="M50.7319 64.8257C49.6626 64.8257 48.8305 64.3343 48.8179 64.3267L48.876 64.2304C48.8945 64.2416 50.7496 65.3348 52.4509 64.1946L52.5134 64.288C51.9101 64.6923 51.2889 64.8257 50.7319 64.8257Z" fill="#5767FF"/>
<path d="M74 77.76L149 55.5V106.5L74.081 83.9413L74 77.76Z" fill="url(#paint1_linear_2328_36734)"/>
<defs>
<linearGradient id="paint0_linear_2328_36734" x1="120" y1="34.0999" x2="120" y2="205.9" gradientUnits="userSpaceOnUse">
<stop stop-color="white"/>
<stop offset="1" stop-color="#CDD1FF"/>
</linearGradient>
<linearGradient id="paint1_linear_2328_36734" x1="74" y1="81" x2="149" y2="81" gradientUnits="userSpaceOnUse">
<stop offset="0.307692" stop-color="white"/>
<stop offset="0.793269" stop-color="white" stop-opacity="0.5"/>
<stop offset="1" stop-color="white" stop-opacity="0"/>
</linearGradient>
</defs>
</svg>
