<svg width="240" height="240" viewBox="0 0 240 240" fill="none" xmlns="http://www.w3.org/2000/svg">
<path d="M192.427 106.258C191.013 99.3679 189.251 92.5544 187.147 85.8432C180.85 66.3888 168.72 46.584 148.459 39.5712C133.507 34.392 117.542 37.392 105.202 47.0016C85.8625 62.0688 72.0001 82.8912 50.7313 95.8464C32.9713 106.666 23.9569 124.57 30.5713 150.298C37.1857 176.026 57.6721 191.381 79.7281 190.027C98.0689 188.904 117.307 190.954 133.382 200.472C147.749 208.978 172.675 202.392 192.946 180.461C204.754 167.678 203.232 151.061 198.965 135.461C196.32 125.846 194.52 116.016 192.427 106.258Z" fill="#5767FF"/>
<path opacity="0.7" d="M192.427 106.258C191.013 99.3679 189.251 92.5544 187.147 85.8432C180.85 66.3888 168.72 46.584 148.459 39.5712C133.507 34.392 117.542 37.392 105.202 47.0016C85.8625 62.0688 72.0001 82.8912 50.7313 95.8464C32.9713 106.666 23.9569 124.57 30.5713 150.298C37.1857 176.026 57.6721 191.381 79.7281 190.027C98.0689 188.904 117.307 190.954 133.382 200.472C147.749 208.978 172.675 202.392 192.946 180.461C204.754 167.678 203.232 151.061 198.965 135.461C196.32 125.846 194.52 116.016 192.427 106.258Z" fill="white"/>
<path d="M64.5244 142.744C64.8998 146.557 64.2484 150.403 62.6289 153.881C61.9333 155.356 60.6402 157.024 59.0752 158.706C57.5131 160.384 55.6931 162.061 53.959 163.552C52.2254 165.043 50.5802 166.347 49.3682 167.278C48.7623 167.743 48.2647 168.115 47.9189 168.371C47.8676 168.409 47.8189 168.443 47.7744 168.476C47.7811 168.365 47.791 168.236 47.8047 168.088C47.8578 167.516 47.9729 166.674 48.2188 165.604C48.7105 163.463 49.7278 160.406 51.832 156.763C53.9323 153.127 57.1876 149.554 59.9268 146.883C61.2947 145.55 62.5309 144.444 63.4248 143.672C63.8716 143.287 64.2332 142.984 64.4824 142.779C64.4969 142.767 64.5107 142.755 64.5244 142.744Z" fill="white" stroke="#5767FF" stroke-width="0.48"/>
<path d="M27.4587 133.201C27.7066 133.582 28.0684 134.137 28.5232 134.83C29.433 136.215 30.7164 138.153 32.2087 140.36C35.1927 144.773 39.0165 150.268 42.3718 154.587C45.699 158.87 46.8969 162.407 47.2683 164.86C47.4541 166.087 47.4337 167.046 47.3679 167.694C47.3396 167.973 47.3005 168.193 47.2683 168.354C47.1919 168.304 47.1005 168.245 46.9958 168.176C46.6379 167.941 46.1209 167.597 45.4861 167.159C44.2159 166.282 42.4741 165.034 40.5886 163.543C36.8104 160.554 32.4817 156.615 30.1921 152.767C27.9107 148.933 27.2346 143.881 27.1365 139.763C27.0875 137.708 27.1826 135.895 27.2898 134.595C27.3389 134 27.3909 133.512 27.4324 133.16C27.4411 133.173 27.4497 133.187 27.4587 133.201Z" fill="white" stroke="#5767FF" stroke-width="0.48"/>
<path d="M24.2501 102.428C24.9115 105.204 25.7474 107.935 26.756 110.605L26.7579 110.608C27.6182 112.795 29.8654 116.434 32.6339 120.753C35.4098 125.084 38.722 130.119 41.7365 135.124H41.7374C45.1887 140.838 47.2599 147.274 47.796 153.92C47.7222 153.82 47.6408 153.708 47.5519 153.586C47.0792 152.94 46.3988 152.003 45.5675 150.845C43.9046 148.528 41.6384 145.324 39.2257 141.774C34.3958 134.667 28.9934 126.195 26.6544 120.679C24.3197 115.173 23.7784 110.354 23.8195 106.914C23.84 105.195 24.0066 103.819 24.1671 102.876C24.1948 102.714 24.2236 102.564 24.2501 102.428Z" fill="white" stroke="#5767FF" stroke-width="0.48"/>
<path d="M63.6047 110.88C63.6139 111.178 63.6236 111.57 63.6223 112.046C63.6193 113.21 63.5638 114.87 63.3557 116.854C62.9393 120.822 61.9107 126.073 59.4661 131.22C57.013 136.384 54.0095 141.229 51.6174 144.784C50.4219 146.561 49.3799 148.014 48.637 149.024C48.3856 149.365 48.1657 149.654 47.9885 149.889C48.7802 143.693 50.0781 137.572 51.8723 131.588C53.3315 126.953 56.3605 121.648 59.0334 117.49C60.3686 115.414 61.6119 113.628 62.5217 112.361C62.9764 111.728 63.3473 111.225 63.6047 110.88Z" fill="white" stroke="#5767FF" stroke-width="0.48"/>
<path d="M29.4631 88.3524C30.2952 89.6767 31.4464 91.5288 32.7229 93.6385C35.2771 97.8598 38.3281 103.107 40.3293 107.226C42.3212 111.327 43.7386 117.086 44.6584 121.836C45.1177 124.207 45.4518 126.321 45.6711 127.843C45.7667 128.506 45.84 129.056 45.8928 129.466C45.7499 129.289 45.5774 129.078 45.3821 128.831C44.7198 127.992 43.7689 126.755 42.6165 125.162C40.3113 121.975 37.1997 117.365 33.9768 111.674C30.7711 106.013 29.4147 99.626 28.8616 94.6454C28.5852 92.157 28.5095 90.0234 28.5032 88.5126C28.5003 87.8293 28.5125 87.2733 28.5256 86.87C28.7552 87.2308 29.0745 87.734 29.4631 88.3524Z" fill="white" stroke="#5767FF" stroke-width="0.48"/>
<path d="M60.213 78.9047C59.9912 80.453 59.672 82.6106 59.2814 85.0453C58.4997 89.9169 57.4341 95.8918 56.297 100.328C55.1653 104.742 52.521 110.051 50.1495 114.268C48.9655 116.374 47.8524 118.202 47.0353 119.504C46.6789 120.072 46.3774 120.539 46.1525 120.886C46.1579 120.659 46.1638 120.386 46.1749 120.071C46.2126 119.002 46.2884 117.443 46.4406 115.482C46.7448 111.56 47.3543 106.031 48.5763 99.6068C49.7919 93.2168 52.8871 87.4693 55.6857 83.3139C57.084 81.2376 58.406 79.5618 59.3781 78.4057C59.8172 77.8833 60.1854 77.4673 60.4562 77.1684C60.3979 77.592 60.3165 78.182 60.213 78.9047Z" fill="white" stroke="#5767FF" stroke-width="0.48"/>
<path d="M49.5797 69.1239C49.4342 69.8473 49.2279 70.89 48.984 72.1669C48.4963 74.7205 47.8584 78.212 47.2594 81.9637C46.6605 85.7151 46.1001 89.7296 45.7662 93.327C45.5711 95.4291 45.4536 97.3962 45.4518 99.0887C45.4223 98.9291 45.391 98.7626 45.36 98.5887C44.9088 96.0576 44.3019 92.0062 43.6832 85.9344C43.0701 79.9169 44.7037 75.49 46.485 72.5692C47.3763 71.1078 48.3055 70.0217 49.0104 69.3026C49.263 69.0449 49.4888 68.8365 49.6715 68.6727C49.6446 68.8052 49.6135 68.9559 49.5797 69.1239Z" fill="white" stroke="#5767FF" stroke-width="0.48"/>
<g opacity="0.3">
<path d="M64.5244 142.744C64.8998 146.557 64.2484 150.403 62.6289 153.881C61.9333 155.356 60.6402 157.024 59.0752 158.706C57.5131 160.384 55.6931 162.061 53.959 163.552C52.2254 165.043 50.5802 166.347 49.3682 167.278C48.7623 167.743 48.2647 168.115 47.9189 168.371C47.8676 168.409 47.8189 168.443 47.7744 168.476C47.7811 168.365 47.791 168.236 47.8047 168.088C47.8578 167.516 47.9729 166.674 48.2188 165.604C48.7105 163.463 49.7278 160.406 51.832 156.763C53.9323 153.127 57.1876 149.554 59.9268 146.883C61.2947 145.55 62.5309 144.444 63.4248 143.672C63.8716 143.287 64.2332 142.984 64.4824 142.779C64.4969 142.767 64.5107 142.755 64.5244 142.744Z" fill="white" stroke="#5767FF" stroke-width="0.48"/>
<path d="M27.4587 133.201C27.7066 133.582 28.0684 134.137 28.5232 134.83C29.433 136.215 30.7164 138.153 32.2087 140.36C35.1927 144.773 39.0165 150.268 42.3718 154.587C45.699 158.87 46.8969 162.407 47.2683 164.86C47.4541 166.087 47.4337 167.046 47.3679 167.694C47.3396 167.973 47.3005 168.193 47.2683 168.354C47.1919 168.304 47.1005 168.245 46.9958 168.176C46.6379 167.941 46.1209 167.597 45.4861 167.159C44.2159 166.282 42.4741 165.034 40.5886 163.543C36.8104 160.554 32.4817 156.615 30.1921 152.767C27.9107 148.933 27.2346 143.881 27.1365 139.763C27.0875 137.708 27.1826 135.895 27.2898 134.595C27.3389 134 27.3909 133.512 27.4324 133.16C27.4411 133.173 27.4497 133.187 27.4587 133.201Z" fill="white" stroke="#5767FF" stroke-width="0.48"/>
<path d="M24.2501 102.428C24.9115 105.204 25.7474 107.935 26.756 110.605L26.7579 110.608C27.6182 112.795 29.8654 116.434 32.6339 120.753C35.4098 125.084 38.722 130.119 41.7365 135.124H41.7374C45.1887 140.838 47.2599 147.274 47.796 153.92C47.7222 153.82 47.6408 153.708 47.5519 153.586C47.0792 152.94 46.3988 152.003 45.5675 150.845C43.9046 148.528 41.6384 145.324 39.2257 141.774C34.3958 134.667 28.9934 126.195 26.6544 120.679C24.3197 115.173 23.7784 110.354 23.8195 106.914C23.84 105.195 24.0066 103.819 24.1671 102.876C24.1948 102.714 24.2236 102.564 24.2501 102.428Z" fill="white" stroke="#5767FF" stroke-width="0.48"/>
<path d="M63.6047 110.88C63.6139 111.178 63.6236 111.57 63.6223 112.046C63.6193 113.21 63.5638 114.87 63.3557 116.854C62.9393 120.822 61.9107 126.073 59.4661 131.22C57.013 136.384 54.0095 141.229 51.6174 144.784C50.4219 146.561 49.3799 148.014 48.637 149.024C48.3856 149.365 48.1657 149.654 47.9885 149.889C48.7802 143.693 50.0781 137.572 51.8723 131.588C53.3315 126.953 56.3605 121.648 59.0334 117.49C60.3686 115.414 61.6119 113.628 62.5217 112.361C62.9764 111.728 63.3473 111.225 63.6047 110.88Z" fill="white" stroke="#5767FF" stroke-width="0.48"/>
<path d="M29.4631 88.3524C30.2952 89.6767 31.4464 91.5288 32.7229 93.6385C35.2771 97.8598 38.3281 103.107 40.3293 107.226C42.3212 111.327 43.7386 117.086 44.6584 121.836C45.1177 124.207 45.4518 126.321 45.6711 127.843C45.7667 128.506 45.84 129.056 45.8928 129.466C45.7499 129.289 45.5774 129.078 45.3821 128.831C44.7198 127.992 43.7689 126.755 42.6165 125.162C40.3113 121.975 37.1997 117.365 33.9768 111.674C30.7711 106.013 29.4147 99.626 28.8616 94.6454C28.5852 92.157 28.5095 90.0234 28.5032 88.5126C28.5003 87.8293 28.5125 87.2733 28.5256 86.87C28.7552 87.2308 29.0745 87.734 29.4631 88.3524Z" fill="white" stroke="#5767FF" stroke-width="0.48"/>
<path d="M60.213 78.9047C59.9912 80.453 59.672 82.6106 59.2814 85.0453C58.4997 89.9169 57.4341 95.8918 56.297 100.328C55.1653 104.742 52.521 110.051 50.1495 114.268C48.9655 116.374 47.8524 118.202 47.0353 119.504C46.6789 120.072 46.3774 120.539 46.1525 120.886C46.1579 120.659 46.1638 120.386 46.1749 120.071C46.2126 119.002 46.2884 117.443 46.4406 115.482C46.7448 111.56 47.3543 106.031 48.5763 99.6068C49.7919 93.2168 52.8871 87.4693 55.6857 83.3139C57.084 81.2376 58.406 79.5618 59.3781 78.4057C59.8172 77.8833 60.1854 77.4673 60.4562 77.1684C60.3979 77.592 60.3165 78.182 60.213 78.9047Z" fill="white" stroke="#5767FF" stroke-width="0.48"/>
<path d="M49.5797 69.1239C49.4342 69.8473 49.2279 70.89 48.984 72.1669C48.4963 74.7205 47.8584 78.212 47.2594 81.9637C46.6605 85.7151 46.1001 89.7296 45.7662 93.327C45.5711 95.4291 45.4536 97.3962 45.4518 99.0887C45.4223 98.9291 45.391 98.7626 45.36 98.5887C44.9088 96.0576 44.3019 92.0062 43.6832 85.9344C43.0701 79.9169 44.7037 75.49 46.485 72.5692C47.3763 71.1078 48.3055 70.0217 49.0104 69.3026C49.263 69.0449 49.4888 68.8365 49.6715 68.6727C49.6446 68.8052 49.6135 68.9559 49.5797 69.1239Z" fill="white" stroke="#5767FF" stroke-width="0.48"/>
</g>
<path d="M47.28 172.8C47.28 172.8 48 170.88 48 156.24C48 141.6 46.08 135.84 46.08 121.44C46.08 107.04 45.12 93.6 45.12 93.6" stroke="#5767FF" stroke-width="0.48" stroke-miterlimit="10"/>
<path d="M46.1855 128.846C46.1855 128.846 40.9631 117.6 38.7551 113.39C36.7103 109.488 34.3391 103.152 34.3391 103.152" stroke="#5767FF" stroke-width="0.48" stroke-miterlimit="10"/>
<path d="M34.7424 130.651C34.7424 130.651 46.3968 152.328 48.096 154.733" stroke="#5767FF" stroke-width="0.48" stroke-miterlimit="10"/>
<path d="M47.9904 148.915L57.4224 126.437" stroke="#5767FF" stroke-width="0.48" stroke-miterlimit="10"/>
<path d="M36.7489 154.738C38.9569 158.347 47.9905 167.784 47.9905 167.784C47.9905 167.784 54.0097 161.362 57.8257 155.539" stroke="#5767FF" stroke-width="0.48" stroke-miterlimit="10"/>
<path d="M46.1857 119.611L52.0033 99.9408" stroke="#5767FF" stroke-width="0.48" stroke-miterlimit="10"/>
<path d="M53.4573 170.501V174.715H52.2532L52.2219 174.918L50.6545 185.035H43.6077L42.0403 174.918L42.009 174.715H40.8049V170.501H53.4573Z" fill="white" stroke="#5767FF" stroke-width="0.48"/>
<path opacity="0.3" d="M53.4573 170.501V174.715H52.2532L52.2219 174.918L50.6545 185.035H43.6077L42.0403 174.918L42.009 174.715H40.8049V170.501H53.4573Z" fill="white" stroke="#5767FF" stroke-width="0.48"/>
<path d="M73.0897 123.408C73.0897 123.408 65.8897 123.806 63.9025 127.104C61.9153 130.402 64.5025 133.795 68.2945 135.197C72.0865 136.598 73.3921 135.994 73.8913 135.096C74.3905 134.198 73.0897 123.408 73.0897 123.408Z" fill="white" stroke="#263238" stroke-width="0.48" stroke-linecap="round" stroke-linejoin="round"/>
<path d="M211.68 144C211.68 144 207.84 144.192 195.307 134.174C182.774 124.157 182.011 118.378 163.517 108.734C145.022 99.0912 136.157 98.1408 135.581 100.258C135.005 102.374 135.389 191.194 137.702 193.118C140.016 195.043 155.04 194.078 166.79 192.158C178.541 190.238 191.27 191.582 195.691 193.118C200.112 194.654 213.211 198.72 213.211 198.72" fill="white"/>
<mask id="mask0_223_7992" style="mask-type:luminance" maskUnits="userSpaceOnUse" x="135" y="99" width="79" height="100">
<path d="M211.68 144C211.68 144 207.84 144.192 195.307 134.174C182.774 124.157 182.011 118.378 163.517 108.734C145.022 99.0912 136.157 98.1408 135.581 100.258C135.005 102.374 135.389 191.194 137.702 193.118C140.016 195.043 155.04 194.078 166.79 192.158C178.541 190.238 191.27 191.582 195.691 193.118C200.112 194.654 213.211 198.72 213.211 198.72" fill="white"/>
</mask>
<g mask="url(#mask0_223_7992)">
<path d="M158.626 188.64C155.501 186.24 153.346 176.606 156.461 171.797C159.576 166.987 163.661 168.667 167.05 168.667C170.438 168.667 162.25 164.578 158.89 158.798C155.53 153.019 170.203 121.982 168.278 114.278C167.83 112.757 167.083 111.34 166.08 110.112C165.269 109.666 164.424 109.21 163.531 108.744C145.037 99.1104 136.171 98.1504 135.595 100.267C135.019 102.384 135.403 191.203 137.717 193.128C140.03 195.053 155.054 194.088 166.805 192.168C168.096 191.957 169.392 191.789 170.693 191.654C165.715 190.906 160.234 189.859 158.626 188.64Z" fill="#5767FF"/>
<path opacity="0.5" d="M158.626 188.64C155.501 186.24 153.346 176.606 156.461 171.797C159.576 166.987 163.661 168.667 167.05 168.667C170.438 168.667 162.25 164.578 158.89 158.798C155.53 153.019 170.203 121.982 168.278 114.278C167.83 112.757 167.083 111.34 166.08 110.112C165.269 109.666 164.424 109.21 163.531 108.744C145.037 99.1104 136.171 98.1504 135.595 100.267C135.019 102.384 135.403 191.203 137.717 193.128C140.03 195.053 155.054 194.088 166.805 192.168C168.096 191.957 169.392 191.789 170.693 191.654C165.715 190.906 160.234 189.859 158.626 188.64Z" fill="white"/>
</g>
<path d="M211.68 144C211.68 144 207.84 144.192 195.307 134.174C182.774 124.157 182.011 118.378 163.517 108.734C145.022 99.0912 136.157 98.1408 135.581 100.258C135.005 102.374 135.389 191.194 137.702 193.118C140.016 195.043 155.04 194.078 166.79 192.158C178.541 190.238 191.27 191.582 195.691 193.118C200.112 194.654 213.211 198.72 213.211 198.72" stroke="#263238" stroke-width="0.48" stroke-linecap="round" stroke-linejoin="round"/>
<path d="M70.8958 84.8448C70.8958 84.8448 65.0014 83.448 62.4046 88.1424C59.8078 92.8368 66.2974 98.3328 70.3966 99.6336L70.8958 84.8448Z" fill="#5767FF" stroke="#263238" stroke-width="0.48" stroke-linecap="round" stroke-linejoin="round"/>
<path d="M74.2897 85.0464C74.2465 84.0192 71.1505 84.6144 70.6033 84.6912C69.1688 84.8805 67.8368 85.5376 66.8137 86.5607C65.7905 87.5839 65.1334 88.9159 64.9441 90.3504C64.3825 94.6704 68.4865 99.4176 72.5713 100.43L74.8849 101.011C74.8849 101.011 74.2897 85.0608 74.2897 85.0464Z" fill="white" stroke="#263238" stroke-width="0.48" stroke-linecap="round" stroke-linejoin="round"/>
<path d="M69.1199 145.286C69.1199 145.286 64.1615 145.483 63.1439 149.76C62.1263 154.037 68.4623 156.96 71.9807 157.066L69.1199 145.286Z" fill="#5767FF" stroke="#263238" stroke-width="0.48" stroke-linecap="round" stroke-linejoin="round"/>
<path d="M73.2912 144.187C73.032 143.386 69.2736 145.046 68.856 145.229C67.7662 145.694 66.8603 146.506 66.2789 147.539C65.6974 148.572 65.4729 149.767 65.64 150.941C66.1488 154.483 70.44 157.315 73.8768 157.224L75.8304 157.171C75.8304 157.171 73.296 144.197 73.2912 144.187Z" fill="white" stroke="#263238" stroke-width="0.48" stroke-linecap="round" stroke-linejoin="round"/>
<path d="M73.0897 105.826C73.0897 105.826 65.8897 106.224 63.9025 109.522C61.9153 112.819 64.5025 116.213 68.2945 117.614C72.0865 119.016 73.3921 118.411 73.8913 117.514C74.3905 116.616 73.0897 105.826 73.0897 105.826Z" fill="white" stroke="#263238" stroke-width="0.48" stroke-linecap="round" stroke-linejoin="round"/>
<path d="M69.6001 128.203C69.6001 128.203 72.2977 134.395 72.0961 139.392C71.8945 144.389 66.2017 145.882 64.1041 144.984C62.0065 144.086 61.1089 133.296 62.5057 129.701C63.9025 126.106 66.6049 125.803 66.6049 125.803" fill="white"/>
<path d="M69.6001 128.203C69.6001 128.203 72.2977 134.395 72.0961 139.392C71.8945 144.389 66.2017 145.882 64.1041 144.984C62.0065 144.086 61.1089 133.296 62.5057 129.701C63.9025 126.106 66.6049 125.803 66.6049 125.803" stroke="#263238" stroke-width="0.48" stroke-linecap="round" stroke-linejoin="round"/>
<path d="M62.7023 134.098C62.7023 134.098 61.9199 140.39 61.9199 143.088C61.9199 145.786 62.5151 145.186 63.9167 141.888C65.3183 138.59 65.3999 131.198 62.7023 134.098Z" fill="#5767FF" stroke="#263238" stroke-width="0.48" stroke-linecap="round" stroke-linejoin="round"/>
<path d="M69.6001 110.621C69.6001 110.621 72.2977 116.813 72.0961 121.81C71.8945 126.806 66.2017 128.304 64.1041 127.402C62.0065 126.499 61.1089 115.714 62.5057 112.118C63.9025 108.523 66.6049 108.221 66.6049 108.221" fill="white"/>
<path d="M69.6001 110.621C69.6001 110.621 72.2977 116.813 72.0961 121.81C71.8945 126.806 66.2017 128.304 64.1041 127.402C62.0065 126.499 61.1089 115.714 62.5057 112.118C63.9025 108.523 66.6049 108.221 66.6049 108.221" stroke="#263238" stroke-width="0.48" stroke-linecap="round" stroke-linejoin="round"/>
<path d="M62.7023 116.515C62.7023 116.515 61.9199 122.808 61.9199 125.506C61.9199 128.203 62.5151 127.603 63.9167 124.306C65.3183 121.008 65.3999 113.616 62.7023 116.515Z" fill="#5767FF" stroke="#263238" stroke-width="0.48" stroke-linecap="round" stroke-linejoin="round"/>
<path d="M183.931 190.411C182.743 186.082 182.158 181.609 182.194 177.12" stroke="#263238" stroke-width="0.48" stroke-linecap="round" stroke-linejoin="round"/>
<path d="M185.856 173.65C185.856 173.65 185.664 181.934 186.816 184.824" stroke="#263238" stroke-width="0.48" stroke-linecap="round" stroke-linejoin="round"/>
<path d="M160.618 166.138C160.618 166.138 168.518 171.533 177.955 171.533" stroke="#263238" stroke-width="0.48" stroke-linecap="round" stroke-linejoin="round"/>
<path d="M198.499 136.853C198.499 136.853 194.659 134.155 190.022 126.643C185.386 119.131 174.24 102.946 172.32 94.8528C170.4 86.76 170.203 84.0672 169.046 79.44C167.89 74.8128 165 72.504 165.581 66.7248C166.162 60.9456 164.424 58.056 161.741 57.672C159.058 57.288 154.997 56.8992 152.88 66.9168C150.763 76.9344 154.613 90.9984 155.962 97.5504C157.31 104.102 157.31 109.882 154.613 116.818C151.915 123.754 149.026 132.998 151.733 146.678C154.44 160.358 163.099 164.405 169.843 167.294" fill="white"/>
<mask id="mask1_223_7992" style="mask-type:luminance" maskUnits="userSpaceOnUse" x="150" y="57" width="49" height="111">
<path d="M198.499 136.853C198.499 136.853 194.659 134.155 190.022 126.643C185.386 119.131 174.24 102.946 172.32 94.8528C170.4 86.76 170.203 84.0672 169.046 79.44C167.89 74.8128 165 72.504 165.581 66.7248C166.162 60.9456 164.424 58.056 161.741 57.672C159.058 57.288 154.997 56.8992 152.88 66.9168C150.763 76.9344 154.613 90.9984 155.962 97.5504C157.31 104.102 157.31 109.882 154.613 116.818C151.915 123.754 149.026 132.998 151.733 146.678C154.44 160.358 163.099 164.405 169.843 167.294" fill="white"/>
</mask>
<g mask="url(#mask1_223_7992)">
<path d="M160.695 102.442C159.787 91.344 156.163 80.6928 155.256 72.5376C154.551 66.168 156.883 60.216 157.939 57.912C156.019 58.7136 154.099 60.9984 152.842 66.9168C150.72 76.9344 154.575 90.9984 155.923 97.5504C157.272 104.102 157.272 109.882 154.575 116.818C151.877 123.754 148.987 132.998 151.695 146.678C152.319 150.139 153.582 153.453 155.419 156.451C149.122 137.208 161.578 113.28 160.695 102.442Z" fill="#5767FF"/>
<path opacity="0.5" d="M160.695 102.442C159.787 91.344 156.163 80.6928 155.256 72.5376C154.551 66.168 156.883 60.216 157.939 57.912C156.019 58.7136 154.099 60.9984 152.842 66.9168C150.72 76.9344 154.575 90.9984 155.923 97.5504C157.272 104.102 157.272 109.882 154.575 116.818C151.877 123.754 148.987 132.998 151.695 146.678C152.319 150.139 153.582 153.453 155.419 156.451C149.122 137.208 161.578 113.28 160.695 102.442Z" fill="white"/>
</g>
<path d="M198.499 136.853C198.499 136.853 194.659 134.155 190.022 126.643C185.386 119.131 174.24 102.946 172.32 94.8528C170.4 86.76 170.203 84.0672 169.046 79.44C167.89 74.8128 165 72.504 165.581 66.7248C166.162 60.9456 164.424 58.056 161.741 57.672C159.058 57.288 154.997 56.8992 152.88 66.9168C150.763 76.9344 154.613 90.9984 155.962 97.5504C157.31 104.102 157.31 109.882 154.613 116.818C151.915 123.754 149.026 132.998 151.733 146.678C154.44 160.358 163.099 164.405 169.843 167.294" stroke="#263238" stroke-width="0.48" stroke-linecap="round" stroke-linejoin="round"/>
<path d="M167.89 79.4832C167.89 79.4832 166.488 77.736 162.643 79.8336" stroke="#263238" stroke-width="0.48" stroke-linecap="round" stroke-linejoin="round"/>
<path d="M162.994 81.7536C162.994 81.7536 165.792 80.0064 168.062 81.5808" stroke="#263238" stroke-width="0.48" stroke-linecap="round" stroke-linejoin="round"/>
<path d="M168.96 83.328C167.741 83.462 166.514 83.5198 165.288 83.5008" stroke="#263238" stroke-width="0.48" stroke-linecap="round" stroke-linejoin="round"/>
<path d="M165.302 70.6416L164.102 70.4208C162.864 70.1874 161.749 69.5206 160.957 68.5399C160.166 67.5592 159.749 66.3287 159.782 65.0688C159.815 63.9009 159.927 62.7365 160.118 61.584C160.886 56.9616 161.078 55.2288 162.998 55.6128C164.918 55.9968 166.08 56.5728 166.08 59.0832C166.08 61.5936 165.302 70.6416 165.302 70.6416Z" fill="#5767FF" stroke="#263238" stroke-width="0.48" stroke-linecap="round" stroke-linejoin="round"/>
<path d="M149.39 58.5936H75.2785C73.489 58.5936 72.0385 60.0442 72.0385 61.8336V200.597C72.0385 202.386 73.489 203.837 75.2785 203.837H149.39C151.18 203.837 152.63 202.386 152.63 200.597V61.8336C152.63 60.0442 151.18 58.5936 149.39 58.5936Z" fill="#5767FF" stroke="#263238" stroke-width="0.48" stroke-linecap="round" stroke-linejoin="round"/>
<path d="M149.39 55.872H75.2785C73.489 55.872 72.0385 57.3226 72.0385 59.112V197.875C72.0385 199.665 73.489 201.115 75.2785 201.115H149.39C151.18 201.115 152.63 199.665 152.63 197.875V59.112C152.63 57.3226 151.18 55.872 149.39 55.872Z" fill="#263238" stroke="#263238" stroke-width="0.48" stroke-miterlimit="10"/>
<path d="M117.907 64.5504H107.875C107.74 64.5504 107.606 64.5237 107.48 64.4718C107.355 64.42 107.241 64.344 107.146 64.2481C107.05 64.1523 106.974 64.0385 106.922 63.9133C106.87 63.7881 106.843 63.6539 106.843 63.5184C106.843 63.3831 106.87 63.2491 106.922 63.1242C106.974 62.9993 107.05 62.8858 107.146 62.7904C107.242 62.6949 107.356 62.6194 107.481 62.568C107.606 62.5167 107.74 62.4906 107.875 62.4912H117.907C118.18 62.4912 118.441 62.5994 118.634 62.7921C118.826 62.9847 118.934 63.246 118.934 63.5184C118.935 63.6537 118.909 63.7878 118.858 63.913C118.806 64.0381 118.731 64.152 118.635 64.2478C118.54 64.3437 118.426 64.4198 118.301 64.4718C118.177 64.5237 118.043 64.5504 117.907 64.5504Z" fill="white"/>
<path d="M147.686 188.16H77.28V64.6656H93.9696L95.8464 66.2256C96.5021 66.7694 97.3274 67.0666 98.1792 67.0656H127.622C128.506 67.0625 129.358 66.7403 130.022 66.1584L131.717 64.6656H147.672L147.686 188.16Z" fill="white" stroke="#263238" stroke-width="0.48" stroke-linecap="round" stroke-linejoin="round"/>
<path d="M114.586 191.938C114.586 191.621 114.492 191.311 114.315 191.047C114.139 190.783 113.889 190.578 113.596 190.456C113.303 190.335 112.981 190.303 112.67 190.365C112.359 190.427 112.073 190.58 111.849 190.804C111.625 191.028 111.472 191.314 111.41 191.625C111.348 191.936 111.38 192.258 111.501 192.551C111.623 192.844 111.828 193.094 112.092 193.271C112.355 193.447 112.665 193.541 112.982 193.541C113.408 193.541 113.815 193.372 114.116 193.071C114.417 192.771 114.586 192.363 114.586 191.938Z" fill="white"/>
<mask id="path-59-inside-1_223_7992" fill="white">
<path d="M105.392 112.8H129.722C132.306 112.8 134.4 114.894 134.4 117.478V143.162C134.4 145.746 132.306 147.84 129.722 147.84H91.0778C88.4944 147.84 86.4001 145.746 86.4 143.162V109.013H105.392V112.8Z"/>
</mask>
<path d="M105.392 112.8H129.722C132.306 112.8 134.4 114.894 134.4 117.478V143.162C134.4 145.746 132.306 147.84 129.722 147.84H91.0778C88.4944 147.84 86.4001 145.746 86.4 143.162V109.013H105.392V112.8Z" fill="white"/>
<path d="M105.392 112.8H104.912V113.28H105.392V112.8ZM129.722 112.8L129.722 112.32H129.722V112.8ZM134.4 117.478H134.88V117.478L134.4 117.478ZM134.4 143.162L134.88 143.162V143.162H134.4ZM129.722 147.84V148.32H129.722L129.722 147.84ZM91.0778 147.84L91.0777 148.32H91.0778V147.84ZM86.4 143.162H85.92V143.162L86.4 143.162ZM86.4 109.013V108.533H85.92V109.013H86.4ZM105.392 109.013H105.872V108.533H105.392V109.013ZM105.392 112.8V113.28H129.722V112.8V112.32H105.392V112.8ZM129.722 112.8L129.722 113.28C132.041 113.28 133.92 115.159 133.92 117.478L134.4 117.478L134.88 117.478C134.88 114.629 132.571 112.32 129.722 112.32L129.722 112.8ZM134.4 117.478H133.92V143.162H134.4H134.88V117.478H134.4ZM134.4 143.162L133.92 143.162C133.92 145.481 132.041 147.36 129.722 147.36L129.722 147.84L129.722 148.32C132.571 148.32 134.88 146.011 134.88 143.162L134.4 143.162ZM129.722 147.84V147.36H91.0778V147.84V148.32H129.722V147.84ZM91.0778 147.84L91.0778 147.36C88.7595 147.36 86.8801 145.481 86.88 143.162L86.4 143.162L85.92 143.162C85.9202 146.011 88.2293 148.32 91.0777 148.32L91.0778 147.84ZM86.4 143.162H86.88V109.013H86.4H85.92V143.162H86.4ZM86.4 109.013V109.493H105.392V109.013V108.533H86.4V109.013ZM105.392 109.013H104.912V112.8H105.392H105.872V109.013H105.392Z" fill="#5767FF" mask="url(#path-59-inside-1_223_7992)"/>
<path d="M113.159 117.153C114.192 117.153 115.03 117.99 115.03 119.024V125.531H121.536C122.57 125.531 123.407 126.368 123.408 127.402V132.777C123.408 133.81 122.57 134.649 121.536 134.649H115.03V141.156C115.03 142.189 114.192 143.026 113.159 143.027H107.784C106.75 143.027 105.912 142.189 105.911 141.156V134.649H99.4047C98.3713 134.649 97.5336 133.81 97.5336 132.777V127.402C97.5338 126.368 98.3715 125.531 99.4047 125.531H105.911V119.024C105.912 117.99 106.75 117.153 107.784 117.153H113.159Z" fill="#5767FF"/>
<path d="M90.2399 105.84H126.105C128.168 105.84 129.84 107.512 129.84 109.575V113.04H90.2399C88.2517 113.04 86.6403 111.428 86.6403 109.44C86.6403 107.452 88.2518 105.84 90.2399 105.84Z" fill="#ABB3FF" stroke="#5767FF" stroke-width="0.48"/>
<mask id="path-63-inside-2_223_7992" fill="white">
<path d="M140.729 123.36H140.863V133.996C140.863 136.075 139.179 137.76 137.101 137.76H125.504C121.527 137.76 118.304 134.536 118.304 130.56C118.304 126.584 121.527 123.36 125.504 123.36H134.489V120.48H140.729V123.36Z"/>
</mask>
<path d="M140.729 123.36H140.863V133.996C140.863 136.075 139.179 137.76 137.101 137.76H125.504C121.527 137.76 118.304 134.536 118.304 130.56C118.304 126.584 121.527 123.36 125.504 123.36H134.489V120.48H140.729V123.36Z" fill="white"/>
<path d="M140.729 123.36H140.249V123.84H140.729V123.36ZM140.863 123.36H141.343V122.88H140.863V123.36ZM118.304 130.56L117.824 130.56V130.56H118.304ZM134.489 123.36V123.84H134.969V123.36H134.489ZM134.489 120.48V120H134.009V120.48H134.489ZM140.729 120.48H141.209V120H140.729V120.48ZM140.729 123.36V123.84H140.863V123.36V122.88H140.729V123.36ZM140.863 123.36H140.383V133.996H140.863H141.343V123.36H140.863ZM140.863 133.996H140.383C140.383 135.81 138.914 137.28 137.101 137.28V137.76V138.24C139.444 138.24 141.343 136.34 141.343 133.996H140.863ZM137.101 137.76V137.28H125.504V137.76V138.24H137.101V137.76ZM125.504 137.76V137.28C121.793 137.28 118.784 134.271 118.784 130.56H118.304H117.824C117.824 134.802 121.262 138.24 125.504 138.24V137.76ZM118.304 130.56L118.784 130.56C118.784 126.849 121.793 123.84 125.504 123.84V123.36V122.88C121.262 122.88 117.824 126.318 117.824 130.56L118.304 130.56ZM125.504 123.36V123.84H134.489V123.36V122.88H125.504V123.36ZM134.489 123.36H134.969V120.48H134.489H134.009V123.36H134.489ZM134.489 120.48V120.96H140.729V120.48V120H134.489V120.48ZM140.729 120.48H140.249V123.36H140.729H141.209V120.48H140.729Z" fill="#5767FF" mask="url(#path-63-inside-2_223_7992)"/>
<path d="M137.52 117.84C139.11 117.84 140.4 119.13 140.4 120.72C140.4 122.311 139.11 123.6 137.52 123.6H134.16V117.84H137.52Z" fill="#ABB3FF" stroke="#5767FF" stroke-width="0.48"/>
<circle cx="125.788" cy="130.064" r="3.2217" fill="#ABB3FF" stroke="#5767FF" stroke-width="0.48"/>
</svg>
