<svg width="32" height="32" viewBox="0 0 32 32" fill="none" xmlns="http://www.w3.org/2000/svg">
<g clip-path="url(#clip0_2102_6299)">
<path d="M21.5651 0.995125C19.8318 0.352063 17.9571 8.31859e-09 16 8.31859e-09C14.0428 -6.24917e-05 12.1681 0.352063 10.4348 0.995125L9.04346 15.9999L10.4348 31.0047C12.168 31.648 14.0428 32 16 32C17.957 32 19.8318 31.648 21.5651 31.0047L22.9564 16L21.5651 0.995125Z" fill="#FFDA44"/>
<path d="M32.0002 15.9999C32.0002 9.12056 27.6582 3.25574 21.5654 0.995117V31.0049C27.6582 28.744 32.0002 22.8794 32.0002 15.9999Z" fill="#D80027"/>
<path d="M0 16C0 22.8796 4.342 28.7442 10.4347 31.005L10.4347 0.995361C4.342 3.25599 0 9.12061 0 16Z" fill="#0052B4"/>
</g>
<defs>
<clipPath id="clip0_2102_6299">
<rect width="32" height="32" rx="16" fill="white"/>
</clipPath>
</defs>
</svg>
