<svg width="32" height="32" viewBox="0 0 32 32" fill="none" xmlns="http://www.w3.org/2000/svg">
<g clip-path="url(#clip0_2102_6320)">
<path d="M16 32C24.8366 32 32 24.8366 32 16C32 7.16344 24.8366 0 16 0C7.16344 0 0 7.16344 0 16C0 24.8366 7.16344 32 16 32Z" fill="#F0F0F0"/>
<path d="M25.7409 3.3075C23.0429 1.23369 19.6657 0 15.9999 0C12.334 0 8.95673 1.23375 6.25879 3.3075L15.9999 13.0485L25.7409 3.3075Z" fill="#0052B4"/>
<path d="M3.30744 6.25903C1.23375 8.95697 0 12.3342 0 16C0 19.6659 1.23375 23.0432 3.3075 25.7412L13.0486 16L3.30744 6.25903Z" fill="#0052B4"/>
<path d="M6.25879 28.6924C8.95679 30.7662 12.334 31.9999 15.9999 31.9999C19.6657 31.9999 23.0429 30.7662 25.7409 28.6924L15.9999 18.9514L6.25879 28.6924Z" fill="#0052B4"/>
<path d="M28.6927 25.741C30.7665 23.0431 32.0002 19.6659 32.0002 16C32.0002 12.3342 30.7665 8.95697 28.6927 6.25903L18.9517 16L28.6927 25.741Z" fill="#0052B4"/>
</g>
<defs>
<clipPath id="clip0_2102_6320">
<rect width="32" height="32" rx="16" fill="white"/>
</clipPath>
</defs>
</svg>
