<svg width="131" height="152" viewBox="0 0 131 152" fill="none" xmlns="http://www.w3.org/2000/svg">
<path d="M75.913 115.268C75.913 115.268 110.404 131.956 120.288 99.2438C130.171 66.5319 110.225 67.9509 78.9203 57.8151C47.6153 47.6793 61.7756 25.3799 31.4807 30.3446C1.18587 35.3093 -11.2076 75.2921 12.1847 95.1248C35.5773 114.957 46.1282 101.801 75.913 115.268Z" fill="#CDD1FF"/>
<path d="M124.137 45.8021C121.371 46.8907 117.276 45.6067 115.64 43.6357C114.52 42.2892 113.962 40.5416 113.477 39.4494C114.168 38.7726 114.618 37.8309 114.893 36.7773C116.303 37.1505 116.592 37.1924 116.882 36.0936C117.175 34.9947 116.24 34.0004 115.204 34.9947C114.377 35.3263 109.318 33.0274 108.157 29.7099C106.873 29.9575 106.377 33.4462 106.377 33.4462C106.377 33.4462 106.335 32.1136 105.216 30.624C104.096 29.131 104.2 25.2133 106.063 24.7562C107.93 24.3028 108.366 25.8551 108.987 25.4017C109.607 24.9446 113.535 21.4317 117.484 24.5402C121.43 27.6483 120.498 32.344 119.599 33.9592C118.695 35.5743 118.695 36.4778 120.683 36.9138C122.675 37.3462 124.228 38.4035 123.481 40.9221C122.739 43.4403 123.171 45.4603 124.137 45.8021Z" fill="#2A1F3A"/>
<path d="M89.134 138.717C89.134 138.717 89.3206 141.825 85.5902 145.307C81.8598 148.789 81.922 149.41 81.7357 150.778C81.5495 152.146 87.4556 151.648 90.3153 149.534C93.175 147.421 97.0298 147.048 96.8433 145.866C96.6567 144.685 94.2941 138.779 94.2941 137.1" fill="#2A1F3A"/>
<path d="M113.164 130.035C113.164 130.035 115.209 132.384 114.377 137.418C113.546 142.453 113.975 142.907 114.661 144.105C115.348 145.302 119.724 141.304 120.7 137.885C121.677 134.466 124.503 131.818 123.634 130.996C122.766 130.174 117.29 126.936 116.266 125.606" fill="#2A1F3A"/>
<path d="M112.612 76.1097L110.243 79.867L109.751 80.6483L101.553 94.5741C101.553 94.5741 96.6552 104.157 97.0354 111.221C97.039 111.312 97.0423 111.399 97.0493 111.486C97.1818 113.293 97.1226 115.767 96.9621 118.484C96.8576 120.235 96.7108 122.088 96.5433 123.926C95.9608 130.394 95.1306 136.694 95.0816 137.845C94.9981 139.837 87.9513 140.831 88.4499 137.845C88.8025 135.735 86.9779 125.478 86.3604 115.826C86.1094 111.831 86.0605 107.938 86.4616 104.771C86.915 101.174 88.5721 96.4612 90.5814 91.7762C93.4175 85.1552 96.9548 78.5827 98.8003 75.2721C99.5782 73.8804 100.056 73.0641 100.056 73.0641C101.089 71.2466 110.651 73.0641 110.651 73.0641L111.45 74.3025L112.612 76.1097Z" fill="#263238"/>
<path d="M97.0493 111.487C97.1818 113.294 97.1226 115.767 96.9621 118.485C96.8576 120.236 96.7108 122.088 96.5433 123.927C94.084 122.503 91.0664 122.953 90.5641 119.196C90.1593 116.172 88.4116 116.018 86.3604 115.827C86.1094 111.832 86.0605 107.939 86.4616 104.771C86.915 101.175 88.5721 96.4621 90.5814 91.777C91.2092 91.6968 91.9176 91.5084 92.7371 91.1176C97.6455 88.7767 100.056 84.9326 100.056 84.9326L96.3965 107.461C96.3965 107.461 96.6582 108.982 97.035 111.222C97.039 111.312 97.0423 111.4 97.0493 111.487Z" fill="url(#paint0_linear_2057_20373)"/>
<path opacity="0.25" d="M92.9756 139.463C92.9756 139.463 92.3047 115.714 95.662 101.166" stroke="white" stroke-width="0.948" stroke-miterlimit="10"/>
<path d="M105.548 97.6095C103.071 100.969 101.4 103.505 101.94 103.962C103.559 105.329 112.884 118.823 114.377 121.805C115.867 124.792 117.733 125.476 117.733 126.717C117.733 127.962 113.567 132.749 112.074 131.256C111.254 130.436 103.395 124.9 96.9625 118.484C91.674 113.213 87.3518 107.349 88.6983 103.03C90.7775 96.3568 98.1695 85.4033 102.443 79.2249C104.303 76.5352 105.572 74.7493 105.555 74.6168C105.555 74.6168 108.405 74.233 111.451 74.3029C115.02 74.3832 118.86 75.0809 118.727 77.7287C118.563 80.9939 110.466 90.9292 105.548 97.6095Z" fill="#263238"/>
<path d="M118.727 77.7285C118.563 80.9938 110.466 90.9291 105.547 97.6094C105.69 92.436 112.51 86.8056 113.163 83.5926C113.696 80.9798 113.435 79.86 110.243 79.867C109.381 79.867 108.303 79.9505 106.971 80.111C103.353 80.5434 102.715 80.0867 102.443 79.2248C102.24 78.5933 102.237 77.7458 101.41 76.863C100.601 76.0015 99.6448 75.5305 98.8006 75.2721C99.5786 73.8804 100.057 73.0641 100.057 73.0641C101.089 71.2466 110.651 73.0641 110.651 73.0641L111.45 74.3025C115.019 74.3831 118.86 75.0808 118.727 77.7285Z" fill="url(#paint1_linear_2057_20373)"/>
<path opacity="0.25" d="M116.934 128.335C116.934 128.335 100.471 109.745 99.0612 104.647C97.6514 99.549 114.315 76.8647 114.315 76.8647" stroke="white" stroke-width="0.948" stroke-miterlimit="10"/>
<path d="M95.0816 69.5824C95.0816 69.5824 95.8018 67.0127 101.41 68.6705C107.018 70.3283 108.928 67.6758 107.642 65.2717C106.355 62.8675 103.654 58.7319 103.654 58.7319C103.654 58.7319 101.133 62.7711 100.47 63.3996C99.8064 64.0286 95.0816 69.5824 95.0816 69.5824Z" fill="#414DBE"/>
<path d="M102.501 59.8532C102.501 59.8532 102.221 63.8942 101.133 67.0649C100.044 70.2356 98.8945 73.0644 99.0811 73.966C99.2676 74.8676 101.226 72.5051 102.687 73.5929C104.148 74.6807 104.179 76.142 105.765 76.4217C107.35 76.7014 108.935 74.8985 111.236 75.5823C113.536 76.266 115.774 78.2245 117.857 76.8257C119.94 75.427 115.681 47.0148 115.681 47.0148L112.945 43.1604C112.945 43.1604 111.578 42.4766 110.956 42.3522C110.335 42.2279 107.642 43.1604 107.642 43.1604C107.642 43.1604 105.734 44.9632 105.547 45.3364C105.361 45.7091 102.501 59.8532 102.501 59.8532Z" fill="#ABB3FF"/>
<path d="M109.838 42.3521C109.838 42.3521 105.676 47.3892 104.494 55.3465C103.308 63.3038 97.3389 67.6539 95.9711 70.8249C94.6036 73.996 94.6665 74.6168 94.6665 74.6168C94.6665 74.6168 92.1792 69.8306 93.2361 66.785C94.293 63.7395 96.7178 65.1699 98.2733 63.2408C98.507 62.9512 98.7513 62.606 98.9953 62.2259C100.227 60.3071 101.458 57.45 101.458 55.8525V55.8488C101.458 55.6641 101.441 55.493 101.406 55.3465C101.155 54.2826 101.26 50.7697 101.643 47.9578C101.863 46.3357 102.174 44.9472 102.561 44.4029C102.613 44.3297 102.676 44.2598 102.753 44.1902C102.77 44.1762 102.781 44.1692 102.781 44.1692C104.281 42.8507 109.838 42.3521 109.838 42.3521Z" fill="#5767FF"/>
<path d="M103.538 48.6936L102.781 53.9579L101.459 55.8486V55.8523L100.799 56.7977L96.9062 58.4861L91.6666 57.8929L90.5641 57.7674L90.9372 56.6443C92.8243 51.429 102.17 44.6125 102.753 44.1904C102.77 44.1764 102.781 44.1694 102.781 44.1694L103.391 47.8185L103.538 48.6936Z" fill="#5767FF"/>
<path opacity="0.45" d="M98.996 62.226C100.227 60.3073 101.459 57.4501 101.459 55.8526L100.8 56.798L96.9065 58.4864L91.667 57.8932L92.5112 56.2361C92.5112 56.2361 98.9125 50.1486 101.644 47.9579C102.104 47.5848 102.464 47.3264 102.666 47.2252C102.896 47.1137 103.154 47.3404 103.392 47.8181C104.571 50.1836 105.213 58.7094 98.996 62.226Z" fill="url(#paint2_linear_2057_20373)"/>
<path d="M130.727 74.1845C129.108 73.5007 127.556 75.988 125.627 75.489C123.701 74.99 124.323 78.4717 122.397 78.9077C120.468 79.3438 119.473 78.1611 118.542 80.6484C117.112 77.2297 111.952 73.8739 112.448 68.0514C112.462 67.8769 112.476 67.7095 112.49 67.5454C112.905 62.2219 112.228 62.0335 111.143 57.181C111.115 57.0588 111.091 56.9367 111.066 56.8149C110.058 51.8369 114.315 47.8894 113.553 42.1191C116.975 42.74 121.214 46.3147 121.214 46.3147C121.214 46.3147 121.525 53.2953 121.525 53.8532C121.525 53.9614 121.542 54.4045 121.563 55.0569C121.675 57.8092 121.961 64.2352 121.961 64.2352C121.961 64.2352 122.61 67.396 123.761 69.9771C124.239 71.0517 124.804 72.0247 125.443 72.6282C127.619 74.6798 128.735 73.0646 130.727 74.1845Z" fill="#5767FF"/>
<path opacity="0.45" d="M123.761 69.9769C121.674 70.2143 119.393 71.2432 117.359 69.0838C115.238 66.8338 113.672 67.6603 112.49 67.5455C112.905 62.222 112.228 62.0336 111.143 57.1812C111.115 57.059 111.091 56.9368 111.066 56.815C111.537 56.1416 112.211 55.7581 113.132 55.8416C117.175 56.2148 118.749 50.1973 118.749 50.1973L121.563 55.0567C121.675 57.809 121.961 64.235 121.961 64.235C121.961 64.235 122.61 67.3954 123.761 69.9769Z" fill="url(#paint3_linear_2057_20373)"/>
<path d="M125.421 66.0177C123.764 69.2932 119.536 68.006 117.213 66.3492C114.893 64.6921 108.303 57.2721 107.724 55.8627C107.557 55.4579 107.658 54.9593 107.906 54.4463C108.324 53.5638 109.158 52.6394 109.751 52.0951C110.013 51.8544 110.226 51.6903 110.334 51.6347C110.833 51.3871 111.537 52.7546 112.531 53.4593C113.526 54.164 119.121 56.7768 120.116 58.392C118.256 55.2139 116.756 51.1637 121.214 46.3149C123.105 48.8821 128.184 57.5301 125.421 66.0177Z" fill="#5767FF"/>
<path d="M103.123 54.2476C103.123 54.8268 101.755 56.0302 100.057 58.4862C98.3543 60.9423 96.345 63.7398 93.2365 63.3666C90.2399 63.0075 89.3224 61.0258 90.9376 56.6444C94.0144 53.8991 100.185 50.5882 101.406 50.1978C101.406 50.2187 101.41 50.2397 101.41 50.264C101.487 51.2477 102.282 52.507 102.76 53.3791C102.973 53.7626 103.123 54.0732 103.123 54.2476Z" fill="#5767FF"/>
<path d="M107.876 54.1411L104.443 54.6033C104.149 54.6431 103.878 54.4366 103.839 54.1426L102.775 46.2427C102.735 45.9487 102.941 45.6782 103.235 45.6385L106.668 45.1763C106.962 45.1365 107.233 45.343 107.272 45.637L108.336 53.5369C108.376 53.8309 108.17 54.1018 107.876 54.1411Z" fill="#FFB469"/>
<path d="M109.751 52.0951C109.158 52.6394 108.324 53.5638 107.905 54.4462C107.693 54.1426 107.455 53.7835 107.211 53.3787C106.465 52.1437 104.413 52.1264 104.194 49.2832C105.251 49.4856 106.852 49.1437 107.77 49.3914C108.645 49.6321 109.127 50.9473 109.751 52.0951Z" fill="#C2C2C2"/>
<path d="M108.408 48.6938C108.345 50.7278 107.553 51.6765 105.903 52.0986C104.54 52.4474 103.514 52.772 102.76 53.3789C102.282 52.5067 101.487 51.2474 101.41 50.2637C102.282 49.2694 102.516 48.6766 103.681 48.816C104.846 48.9592 107.693 49.301 108.408 48.6938Z" fill="white"/>
<path d="M104.07 47.4502C104.07 47.5731 103.971 47.6728 103.848 47.6728C103.725 47.6728 103.625 47.5731 103.625 47.4502C103.625 47.3273 103.725 47.2275 103.848 47.2275C103.971 47.2272 104.07 47.3269 104.07 47.4502Z" fill="#2A1F3A"/>
<path d="M116.882 36.0937C116.592 37.1925 116.302 37.1506 114.893 36.7774C114.656 37.6808 114.293 38.5007 113.756 39.1425C113.756 39.1425 113.756 39.1425 113.756 39.1462C113.669 39.2544 113.575 39.3556 113.477 39.4498C112.619 40.294 111.388 40.7231 109.65 40.4232C109.553 40.3812 109.459 40.336 109.368 40.287C106.005 38.5287 106.378 33.4463 106.378 33.4463C106.378 33.4463 106.409 33.2369 106.472 32.916C106.668 31.9286 107.187 29.8984 108.157 29.71C109.319 33.0275 114.377 35.3264 115.204 34.9948C115.515 34.6982 115.815 34.5764 116.076 34.59C116.689 34.604 117.087 35.3227 116.882 36.0937Z" fill="white"/>
<path d="M113.773 43.601C113.794 44.6579 112.137 46.336 110.396 46.1928C108.656 46.0464 108.966 45.2544 109.318 43.573C109.504 42.6869 109.493 41.7242 109.441 41.0125C109.42 40.7196 109.392 40.4719 109.367 40.2868C109.458 40.3357 109.552 40.381 109.65 40.423C111.387 40.7229 112.619 40.2938 113.477 39.4496C113.575 39.3554 113.669 39.2542 113.756 39.146C113.62 40.0877 113.679 41.5321 113.732 42.5927C113.752 43.0045 113.77 43.357 113.773 43.601Z" fill="white"/>
<path d="M111.66 34.9331C111.66 35.2076 111.503 35.4306 111.308 35.4306C111.114 35.4306 110.956 35.208 110.956 34.9331C110.956 34.6586 111.114 34.4355 111.308 34.4355C111.503 34.4355 111.66 34.6582 111.66 34.9331Z" fill="#2A1F3A"/>
<path d="M108.505 34.9331C108.505 35.2076 108.347 35.4306 108.153 35.4306C107.958 35.4306 107.801 35.208 107.801 34.9331C107.801 34.6586 107.959 34.4355 108.153 34.4355C108.348 34.4355 108.505 34.6582 108.505 34.9331Z" fill="#2A1F3A"/>
<path d="M109.545 34.9331C109.545 34.9331 109.825 35.5186 109.825 35.7674C109.825 36.0161 109.39 36.1869 109.359 36.4824C109.327 36.7775 109.934 36.8243 109.934 36.8243" stroke="#2A1F3A" stroke-width="0.711" stroke-miterlimit="10"/>
<path d="M109.137 38.1245C109.137 38.1245 110.583 39.0883 112.23 37.6582" stroke="#2A1F3A" stroke-width="0.711" stroke-miterlimit="10"/>
<path opacity="0.45" d="M113.732 42.5927C112.479 41.5181 110.574 41.145 109.441 41.0125C109.42 40.7196 109.392 40.4719 109.367 40.2868C109.458 40.3357 109.552 40.381 109.65 40.423C111.387 40.7229 112.619 40.2938 113.477 39.4496C113.575 39.3554 113.669 39.2542 113.756 39.146C113.62 40.0877 113.679 41.5321 113.732 42.5927Z" fill="url(#paint4_linear_2057_20373)"/>
<path opacity="0.45" d="M116.076 34.5904C115.762 34.8138 115.392 34.9915 114.966 35.1137C110.675 36.331 107.801 31.5345 107.801 31.5345L106.472 32.916C106.667 31.9286 107.187 29.8984 108.157 29.71C109.318 33.0275 114.377 35.3264 115.204 34.9948C115.514 34.6982 115.814 34.5764 116.076 34.5904Z" fill="url(#paint5_linear_2057_20373)"/>
<path d="M57.4507 85.2173L57.3101 86.5237L56.0218 86.8195L56.1587 85.5139L57.4507 85.2173Z" fill="url(#paint6_linear_2057_20373)"/>
<path d="M65.8337 56.8297L71.6084 81.9976C71.7582 82.6504 71.3493 83.3025 70.6965 83.4523L31.0103 92.5584C30.3574 92.7082 29.7053 92.2994 29.5556 91.6465L23.7809 66.4786C23.6304 65.8225 24.0389 65.1704 24.6917 65.0206L64.3779 55.9148C65.0308 55.7647 65.6829 56.1735 65.8337 56.8297Z" fill="#2A1F3A"/>
<path d="M57.0028 93.0917C56.9624 93.4766 56.6378 93.8557 56.2808 93.9374L53.9043 94.4828L54.0533 93.0884L56.4299 92.543C56.7865 92.4613 57.0433 92.7068 57.0028 93.0917Z" fill="url(#paint7_linear_2057_20373)"/>
<path d="M57.0028 93.0917C56.9624 93.4766 56.6378 93.8556 56.2808 93.9373L44.8121 96.5689L46.0401 85.0273L46.1807 83.7209L47.4727 83.4243L47.3322 84.7307L46.2532 94.8783L56.4299 92.5434C56.7865 92.4613 57.0433 92.7067 57.0028 93.0917Z" fill="#2A1F3A"/>
<path d="M56.4203 82.6455L55.3413 92.7927L46.2528 94.8782L47.3318 84.7306L56.4203 82.6455Z" fill="url(#paint8_linear_2057_20373)"/>
<path d="M66.0913 91.0059C66.0509 91.3912 65.7296 91.7691 65.3726 91.8508L56.2808 93.937C56.6378 93.855 56.9624 93.4763 57.0028 93.0914C57.0433 92.7064 56.7865 92.461 56.4295 92.5431L65.518 90.4576C65.875 90.3759 66.1318 90.621 66.0913 91.0059Z" fill="url(#paint9_linear_2057_20373)"/>
<path d="M67.8633 55.1147L74.1818 82.6526L32.129 92.3015L25.8104 64.7637L67.8633 55.1147Z" fill="url(#paint10_linear_2057_20373)"/>
<path d="M72.0894 80.2002L32.9441 89.1819C32.6762 89.2434 32.4094 89.0759 32.3479 88.8084L27.1341 66.0848C27.0727 65.8169 27.2397 65.5501 27.5076 65.4886L66.6529 56.5068C66.9208 56.4454 67.1876 56.6128 67.2491 56.8804L72.4629 79.604C72.5243 79.8719 72.3569 80.1387 72.0894 80.2002Z" fill="white"/>
<path d="M60.5699 72.0421L39.7539 76.8184C39.355 76.91 38.9576 76.6609 38.8663 76.262C38.7747 75.863 39.0238 75.4656 39.4227 75.3743L60.2387 70.5981C60.6376 70.5064 61.035 70.7556 61.1263 71.1545C61.2175 71.553 60.9684 71.9505 60.5699 72.0421Z" fill="#D6D6D6"/>
<path d="M52.5305 73.8863L39.7536 76.8178C39.3547 76.9095 38.9572 76.6603 38.866 76.2614C38.7743 75.8625 39.0235 75.4651 39.4224 75.3738L52.1993 72.4423C52.5982 72.3507 52.9957 72.5998 53.0869 72.9987C53.1786 73.3976 52.9294 73.7951 52.5305 73.8863Z" fill="#5767FF"/>
<path d="M55.2817 75.8918L46.1921 77.9773C46.0136 78.0181 45.8359 77.9066 45.7947 77.7281C45.7538 77.5497 45.8653 77.3719 46.0438 77.3307L55.1334 75.2452C55.3119 75.2044 55.4896 75.3159 55.5308 75.4944C55.5717 75.6729 55.4602 75.8506 55.2817 75.8918Z" fill="#D6D6D6"/>
<path d="M55.6523 77.508L46.5627 79.5935C46.3842 79.6343 46.2065 79.5228 46.1652 79.3444C46.1244 79.1659 46.2359 78.9881 46.4144 78.9469L55.504 76.8615C55.6825 76.8206 55.8602 76.9321 55.9014 77.1106C55.9423 77.2891 55.8308 77.4668 55.6523 77.508Z" fill="#D6D6D6"/>
<path d="M56.0232 79.1238L46.9336 81.2092C46.7551 81.2501 46.5774 81.1386 46.5362 80.9601C46.4953 80.7816 46.6068 80.6039 46.7853 80.5626L55.8749 78.4772C56.0534 78.4363 56.2311 78.5478 56.2724 78.7263C56.3132 78.9048 56.2017 79.0825 56.0232 79.1238Z" fill="#D6D6D6"/>
<path d="M56.3938 80.7395L47.3042 82.8249C47.1257 82.8658 46.948 82.7543 46.9068 82.5758C46.8659 82.3973 46.9774 82.2196 47.1559 82.1784L56.2455 80.0929C56.424 80.0521 56.6017 80.1636 56.6429 80.342C56.6838 80.5205 56.5723 80.6983 56.3938 80.7395Z" fill="#D6D6D6"/>
<path d="M49.8342 65.4477C50.0429 66.3567 49.475 67.263 48.5657 67.4717C47.6564 67.6804 46.7504 67.1125 46.5417 66.2032C46.3331 65.2939 46.9009 64.3879 47.8102 64.1792" stroke="#5767FF" stroke-width="0.948" stroke-miterlimit="10"/>
<path d="M47.8102 64.1789C48.7195 63.9703 49.6255 64.5381 49.8342 65.4474" stroke="#D6D6D6" stroke-width="0.948" stroke-miterlimit="10"/>
<path d="M48.5241 54.0102L34.2045 59.0168L26.793 47.1268L41.1126 42.1201L48.5241 54.0102Z" fill="#E06746"/>
<path d="M41.5383 36.6744L28.3919 41.27L34.5545 58.8988L47.7009 54.3031L41.5383 36.6744Z" fill="white"/>
<path d="M40.0783 41.0702L32.2728 43.7988L32.3549 44.0337L40.1604 41.305L40.0783 41.0702Z" fill="#C1C1C1"/>
<path d="M40.4783 42.2147L32.6728 44.9434L32.7549 45.1782L40.5604 42.4496L40.4783 42.2147Z" fill="#C1C1C1"/>
<path d="M40.8838 43.3535L33.0783 46.083L33.1604 46.3178L40.966 43.5884L40.8838 43.3535Z" fill="#C1C1C1"/>
<path d="M41.2842 44.4986L33.4786 47.228L33.5608 47.4629L41.3663 44.7334L41.2842 44.4986Z" fill="#C1C1C1"/>
<path d="M41.6842 45.6426L33.8787 48.3721L33.9608 48.6069L41.7664 45.8774L41.6842 45.6426Z" fill="#C1C1C1"/>
<path d="M42.0786 46.7928L34.273 49.5215L34.3551 49.7563L42.1607 47.0277L42.0786 46.7928Z" fill="#C1C1C1"/>
<path d="M42.479 47.9374L34.6734 50.666L34.7555 50.9009L42.561 48.1722L42.479 47.9374Z" fill="#C1C1C1"/>
<path d="M42.8849 49.0757L35.0794 51.8052L35.1615 52.04L42.9671 49.3106L42.8849 49.0757Z" fill="#C1C1C1"/>
<path d="M43.285 50.2202L35.4795 52.9497L35.5616 53.1845L43.3672 50.4551L43.285 50.2202Z" fill="#C1C1C1"/>
<path d="M43.6855 51.3643L35.88 54.0938L35.9621 54.3286L43.7676 51.5991L43.6855 51.3643Z" fill="#C1C1C1"/>
<path d="M44.0856 52.5088L36.2801 55.2383L36.3622 55.4731L44.1677 52.7437L44.0856 52.5088Z" fill="#C1C1C1"/>
<path d="M46.0311 41.9051L31.7109 46.9126L35.7547 58.4769L50.0749 53.4694L46.0311 41.9051Z" fill="#FFB469"/>
<path d="M100.571 14.2951L94.5112 28.9577L81.6408 23.639L88.773 6.38086L99.0479 10.6272C99.1285 10.6607 99.2077 10.6971 99.2857 10.7369C100.513 11.3838 101.092 12.8422 100.623 14.1585C100.608 14.2049 100.589 14.2498 100.571 14.2951Z" fill="#8995FF"/>
<path d="M97.6306 14.004L89.9887 10.8462L89.5112 12.0018L97.153 15.1596L97.6306 14.004Z" fill="white"/>
<path d="M96.2094 17.4576L88.5675 14.2998L88.09 15.4554L95.7318 18.6132L96.2094 17.4576Z" fill="white"/>
<path d="M94.676 20.5245L87.0342 17.3667L86.5567 18.5223L94.1985 21.6801L94.676 20.5245Z" fill="white"/>
<path d="M93.3727 23.5909L85.7309 20.4331L85.2533 21.5887L92.8952 24.7465L93.3727 23.5909Z" fill="white"/>
<path d="M100.624 14.1581L98.2733 13.187L99.286 10.7368C100.513 11.3834 101.092 12.8418 100.624 14.1581Z" fill="#5868F2"/>
<path d="M57.9189 4.14339L67.5873 16.7224L56.546 25.2091L45.1661 10.4034L53.981 3.62823C54.0503 3.57518 54.1214 3.52488 54.1949 3.47719C55.3688 2.7378 56.9212 2.96568 57.8269 4.02955C57.8596 4.0658 57.8891 4.10451 57.9189 4.14339Z" fill="#8995FF"/>
<path d="M56.1968 6.54436L49.6412 11.5835L50.4032 12.5748L56.9589 7.53571L56.1968 6.54436Z" fill="white"/>
<path d="M58.4771 9.50188L51.9214 14.541L52.6835 15.5324L59.2391 10.4932L58.4771 9.50188Z" fill="white"/>
<path d="M60.3662 12.3627L53.8106 17.4019L54.5726 18.3932L61.1282 13.3541L60.3662 12.3627Z" fill="white"/>
<path d="M62.3703 15.0248L55.8147 20.064L56.5767 21.0553L63.1324 16.0162L62.3703 15.0248Z" fill="white"/>
<path d="M57.8268 4.02913L55.8106 5.57908L54.195 3.47694C55.3686 2.73738 56.9211 2.96526 57.8268 4.02913Z" fill="#5868F2"/>
<path d="M54.4441 53.7899C54.786 48.5208 56.8505 34.8088 68.9706 30.2905C83.1776 24.9942 95.1817 33.8218 99.3493 40.2158" stroke="#263238" stroke-width="0.948" stroke-linecap="round" stroke-linejoin="round" stroke-dasharray="3.8 3.8"/>
<defs>
<linearGradient id="paint0_linear_2057_20373" x1="120.907" y1="102.033" x2="85.7181" y2="105.763" gradientUnits="userSpaceOnUse">
<stop/>
<stop offset="1" stop-opacity="0"/>
</linearGradient>
<linearGradient id="paint1_linear_2057_20373" x1="132.544" y1="71.3372" x2="101.874" y2="85.678" gradientUnits="userSpaceOnUse">
<stop/>
<stop offset="1" stop-opacity="0"/>
</linearGradient>
<linearGradient id="paint2_linear_2057_20373" x1="87.8676" y1="66.7385" x2="109.42" y2="46.6781" gradientUnits="userSpaceOnUse">
<stop/>
<stop offset="1" stop-opacity="0"/>
</linearGradient>
<linearGradient id="paint3_linear_2057_20373" x1="135.268" y1="52.3965" x2="101.509" y2="70.9234" gradientUnits="userSpaceOnUse">
<stop/>
<stop offset="1" stop-opacity="0"/>
</linearGradient>
<linearGradient id="paint4_linear_2057_20373" x1="114.98" y1="34.0282" x2="108.514" y2="47.9959" gradientUnits="userSpaceOnUse">
<stop/>
<stop offset="1" stop-opacity="0"/>
</linearGradient>
<linearGradient id="paint5_linear_2057_20373" x1="113.589" y1="26.5562" x2="109.455" y2="39.1457" gradientUnits="userSpaceOnUse">
<stop/>
<stop offset="1" stop-opacity="0"/>
</linearGradient>
<linearGradient id="paint6_linear_2057_20373" x1="56.9209" y1="85.1087" x2="56.5483" y2="86.9273" gradientUnits="userSpaceOnUse">
<stop stop-color="#6B637C"/>
<stop offset="1" stop-color="#8A8593"/>
</linearGradient>
<linearGradient id="paint7_linear_2057_20373" x1="55.684" y1="92.337" x2="55.1903" y2="94.7465" gradientUnits="userSpaceOnUse">
<stop stop-color="#6B637C"/>
<stop offset="1" stop-color="#8A8593"/>
</linearGradient>
<linearGradient id="paint8_linear_2057_20373" x1="47.6551" y1="96.5697" x2="58.6829" y2="73.1817" gradientUnits="userSpaceOnUse">
<stop stop-color="#6B637C"/>
<stop offset="1" stop-color="#8A8593"/>
</linearGradient>
<linearGradient id="paint9_linear_2057_20373" x1="56.9583" y1="100.956" x2="67.9865" y2="77.5673" gradientUnits="userSpaceOnUse">
<stop stop-color="#6B637C"/>
<stop offset="1" stop-color="#8A8593"/>
</linearGradient>
<linearGradient id="paint10_linear_2057_20373" x1="81.6858" y1="95.6394" x2="29.2174" y2="59.3279" gradientUnits="userSpaceOnUse">
<stop stop-color="#6B637C"/>
<stop offset="1" stop-color="#8A8593"/>
</linearGradient>
</defs>
</svg>
