<svg width="100" height="33" viewBox="0 0 100 33" fill="none" xmlns="http://www.w3.org/2000/svg">
<path d="M97.7772 27.4598C97.7772 27.8231 97.7063 28.1829 97.5684 28.5186C97.4305 28.8542 97.2285 29.1591 96.9738 29.4159C96.719 29.6727 96.4167 29.8763 96.0839 30.015C95.7512 30.1538 95.3946 30.2251 95.0346 30.2247H5.28135C4.5539 30.2254 3.85593 29.9346 3.34094 29.4161C2.82594 28.8976 2.5361 28.1939 2.53516 27.4598V5.41093C2.5361 4.67648 2.82583 3.97242 3.34072 3.45336C3.85561 2.93429 4.55357 2.64265 5.28135 2.64246H95.0339C95.3941 2.64246 95.7508 2.71407 96.0836 2.85321C96.4164 2.99235 96.7188 3.19628 96.9735 3.45337C97.2282 3.71045 97.4302 4.01565 97.5679 4.35154C97.7057 4.68742 97.7766 5.0474 97.7765 5.41093L97.7772 27.4598Z" fill="white"/>
<path d="M95.035 30.8679H5.28178C4.38564 30.8677 3.52617 30.5088 2.89197 29.8699C2.25777 29.2309 1.90063 28.3642 1.89893 27.4599L1.89893 5.41168C1.90025 4.50688 2.25715 3.63956 2.89133 2.99997C3.52552 2.36038 4.38519 2.00076 5.28178 2L95.0343 2C95.9308 2.00114 96.7903 2.36089 97.4244 3.00039C98.0585 3.6399 98.4155 4.507 98.4172 5.41168V27.4599C98.4186 29.3397 96.8985 30.8679 95.035 30.8679Z" fill="#A6A6A6"/>
<path d="M97.7772 27.4598C97.7772 27.8231 97.7063 28.1829 97.5684 28.5186C97.4305 28.8542 97.2285 29.1591 96.9738 29.4159C96.719 29.6727 96.4167 29.8763 96.0839 30.015C95.7512 30.1538 95.3946 30.2251 95.0346 30.2247H5.28135C4.5539 30.2254 3.85593 29.9346 3.34094 29.4161C2.82594 28.8976 2.5361 28.1939 2.53516 27.4598V5.41093C2.5361 4.67648 2.82583 3.97242 3.34072 3.45336C3.85561 2.93429 4.55357 2.64265 5.28135 2.64246H95.0339C95.3941 2.64246 95.7508 2.71407 96.0836 2.85321C96.4164 2.99235 96.7188 3.19628 96.9735 3.45337C97.2282 3.71045 97.4302 4.01565 97.5679 4.35154C97.7057 4.68742 97.7766 5.0474 97.7765 5.41093L97.7772 27.4598Z" fill="black"/>
<path d="M23.4506 16.282C23.4298 13.9553 25.3383 12.8234 25.4256 12.7707C24.3447 11.1804 22.6694 10.9631 22.0807 10.9457C20.6736 10.7963 19.3087 11.7954 18.592 11.7954C17.8609 11.7954 16.7571 10.9602 15.5675 10.9847C14.0367 11.0086 12.6045 11.903 11.8191 13.2919C10.1981 16.1239 11.4071 20.2856 12.9601 22.5748C13.7369 23.6966 14.6447 24.9477 15.8329 24.9036C16.9953 24.856 17.4295 24.1565 18.8323 24.1565C20.2222 24.1565 20.63 24.9036 21.8418 24.8755C23.0893 24.856 23.8748 23.7493 24.6244 22.6181C25.5222 21.3338 25.8827 20.0676 25.897 20.0027C25.8684 19.9926 23.4749 19.07 23.4506 16.282ZM21.1615 9.43987C21.7867 8.65084 22.2144 7.57738 22.0957 6.48804C21.1908 6.52846 20.0591 7.1197 19.4074 7.8914C18.8309 8.57143 18.3158 9.68604 18.4489 10.7342C19.4654 10.8108 20.5091 10.2166 21.1615 9.43987Z" fill="white"/>
<path d="M95.035 2H46.9604L65.7904 30.8679H95.035C95.9313 30.8672 96.7908 30.5077 97.4249 29.8685C98.0591 29.2292 98.4162 28.3622 98.4179 27.4577V5.41168C98.4163 4.50694 98.0594 3.63973 97.4252 3.00018C96.7911 2.36064 95.9315 2.00095 95.035 2Z" fill="url(#paint0_linear_2063_7124)"/>
<path d="M40.2874 24.7426H38.6628L37.7729 21.9207H34.6798L33.8321 24.7426H32.2505L35.3157 15.1356H37.2085L40.2874 24.7426ZM37.5047 20.7368L36.6999 18.2282C36.6148 17.972 36.4546 17.3684 36.2199 16.4184H36.1913C36.0969 16.827 35.9459 17.4305 35.7392 18.2282L34.948 20.7368H37.5047ZM48.1547 21.1938C48.1547 22.3719 47.8378 23.3032 47.2033 23.9868C46.6353 24.5954 45.9293 24.8993 45.0873 24.8993C44.1781 24.8993 43.5243 24.5723 43.1273 23.9168V27.5515H41.6022V20.0922C41.6022 19.3522 41.5828 18.5935 41.5456 17.8153H42.8869L42.972 18.9133H43.0006C43.5093 18.086 44.2811 17.6724 45.3169 17.6724C46.1267 17.6724 46.8027 17.9951 47.3435 18.6412C47.8836 19.2887 48.1547 20.1391 48.1547 21.1938ZM46.601 21.2501C46.601 20.5758 46.4507 20.02 46.1489 19.5818C45.8191 19.1263 45.3763 18.8981 44.8212 18.8981C44.4449 18.8981 44.103 19.0252 43.7975 19.2757C43.4914 19.5284 43.2911 19.8583 43.1974 20.2669C43.1555 20.4197 43.1318 20.5769 43.1265 20.7354V21.8911C43.1265 22.3943 43.2796 22.8195 43.5858 23.1674C43.892 23.514 44.2897 23.6879 44.779 23.6879C45.3534 23.6879 45.8005 23.4634 46.1203 23.018C46.4407 22.5712 46.601 21.9821 46.601 21.2501ZM56.0499 21.1938C56.0499 22.3719 55.733 23.3032 55.0985 23.9868C54.5298 24.5954 53.8245 24.8993 52.9818 24.8993C52.0726 24.8993 51.4188 24.5723 51.0218 23.9168V27.5515H49.4967V20.0922C49.4967 19.3522 49.4774 18.5935 49.4402 17.8153H50.7814L50.8666 18.9133H50.8952C51.4031 18.086 52.1749 17.6724 53.2114 17.6724C54.0205 17.6724 54.6965 17.9951 55.2387 18.6412C55.7781 19.2887 56.0499 20.1391 56.0499 21.1938ZM54.4955 21.2501C54.4955 20.5758 54.3445 20.02 54.0427 19.5818C53.7129 19.1263 53.2715 18.8981 52.7164 18.8981C52.3402 18.8981 51.9982 19.0252 51.6913 19.2757C51.3852 19.5284 51.1856 19.8583 51.0919 20.2669C51.0454 20.4574 51.0203 20.6127 51.0203 20.7354V21.8911C51.0203 22.3943 51.1741 22.8195 51.4789 23.1674C51.785 23.5132 52.1828 23.6879 52.6735 23.6879C53.2486 23.6879 53.6957 23.4634 54.0148 23.018C54.3352 22.5712 54.4955 21.9821 54.4955 21.2501ZM64.8772 22.0478C64.8772 22.8657 64.594 23.5306 64.031 24.0438C63.4115 24.604 62.5467 24.8848 61.4379 24.8848C60.4135 24.8848 59.5923 24.6856 58.9728 24.2864L59.3255 23.0036C59.9943 23.4035 60.729 23.6027 61.5287 23.6027C62.1039 23.6027 62.5509 23.4714 62.87 23.2108C63.1898 22.9494 63.3514 22.6 63.3514 22.164C63.3514 21.7735 63.2176 21.4464 62.9551 21.1801C62.6912 20.9144 62.2548 20.6668 61.6417 20.4394C59.975 19.8121 59.1409 18.8945 59.1409 17.6875C59.1409 16.8992 59.4356 16.2538 60.0236 15.7492C60.6117 15.2453 61.3914 14.9934 62.3614 14.9934C63.2277 14.9934 63.9494 15.1457 64.5224 15.4496L64.1397 16.7043C63.6004 16.4098 62.9916 16.2625 62.3106 16.2625C61.7727 16.2625 61.3506 16.3961 61.0487 16.6617C60.7948 16.8992 60.666 17.1887 60.666 17.5323C60.666 17.9113 60.8127 18.2261 61.1045 18.4729C61.3578 18.7003 61.8199 18.948 62.488 19.2136C63.3078 19.5471 63.9101 19.9355 64.2957 20.3816C64.6841 20.8278 64.8772 21.3844 64.8772 22.0478ZM69.9326 18.9703H68.2515V22.3337C68.2515 23.1891 68.5477 23.6157 69.1414 23.6157C69.4139 23.6157 69.64 23.5926 69.8188 23.5443L69.861 24.713C69.5606 24.8264 69.165 24.8834 68.675 24.8834C68.0727 24.8834 67.602 24.6979 67.2622 24.3268C66.9238 23.9558 66.7536 23.3342 66.7536 22.4593V18.9674H65.7521V17.8124H66.7536V16.544L68.2515 16.0878V17.8124H69.9326V18.9703ZM77.5023 21.2219C77.5023 22.2867 77.2004 23.1609 76.5981 23.8446C75.9679 24.5484 75.1295 24.8993 74.0844 24.8993C73.0758 24.8993 72.2739 24.5621 71.6759 23.8886C71.0778 23.2136 70.7788 22.3633 70.7788 21.3374C70.7788 20.264 71.0878 19.3847 71.7038 18.7011C72.3211 18.0167 73.1523 17.6745 74.1974 17.6745C75.2046 17.6745 76.0137 18.0124 76.626 18.6866C77.2112 19.3407 77.5023 20.1853 77.5023 21.2219ZM75.9214 21.2573C75.9214 20.6228 75.7855 20.0784 75.5129 19.6229C75.1932 19.0728 74.7354 18.7978 74.1424 18.7978C73.5314 18.7978 73.0629 19.0728 72.7439 19.6229C72.4706 20.0784 72.3347 20.6321 72.3347 21.2862C72.3347 21.9214 72.4706 22.4672 72.7439 22.9213C73.0736 23.4714 73.5336 23.7464 74.1295 23.7464C74.7125 23.7464 75.1696 23.4656 75.5001 22.9076C75.7805 22.4412 75.9214 21.8933 75.9214 21.2573ZM82.4618 19.1689C82.3032 19.14 82.1423 19.1257 81.9811 19.1263C81.4446 19.1263 81.0297 19.3298 80.7378 19.7399C80.4846 20.1008 80.3572 20.5571 80.3572 21.1079V24.7426H78.8321V19.9969C78.8335 19.2697 78.8187 18.5425 78.7878 17.816H80.1162L80.172 19.1414H80.2142C80.3758 18.6859 80.6291 18.3185 80.9767 18.0434C81.295 17.8031 81.6816 17.6729 82.0791 17.6724C82.22 17.6724 82.3473 17.6825 82.4604 17.7005L82.4618 19.1689ZM89.2826 20.9512C89.2864 21.1852 89.2678 21.419 89.2268 21.6493H84.6514C84.6686 22.3337 84.8904 22.8577 85.3153 23.2187C85.7009 23.5407 86.1994 23.7024 86.8118 23.7024C87.4892 23.7024 88.1073 23.5941 88.6631 23.3753L88.902 24.443C88.2525 24.7289 87.4856 24.8711 86.6007 24.8711C85.5363 24.8711 84.7008 24.5549 84.0928 23.924C83.4862 23.2923 83.1821 22.4434 83.1821 21.38C83.1821 20.3362 83.4647 19.4663 84.0305 18.7725C84.6228 18.0319 85.4233 17.6615 86.4305 17.6615C87.4198 17.6615 88.1688 18.0319 88.6774 18.7725C89.0801 19.3594 89.2826 20.0871 89.2826 20.9512ZM87.8283 20.552C87.839 20.0951 87.7389 19.7016 87.5321 19.3688C87.2682 18.94 86.8619 18.7263 86.3175 18.7263C85.8189 18.7263 85.4126 18.935 85.1035 19.3537C84.8496 19.6865 84.6987 20.0864 84.6522 20.5506L87.8283 20.552Z" fill="white"/>
<path d="M34.2402 11.7391C33.816 11.7391 33.449 11.7182 33.1436 11.6828V7.03812C33.5708 6.97152 34.0025 6.93869 34.4347 6.93994C36.1838 6.93994 36.9892 7.80838 36.9892 9.22402C36.9892 10.857 36.0378 11.7391 34.2402 11.7391ZM34.4963 7.53551C34.2602 7.53551 34.0592 7.54994 33.8925 7.58459V11.1154C33.9826 11.1298 34.1558 11.1363 34.399 11.1363C35.545 11.1363 36.1973 10.478 36.1973 9.24496C36.1973 8.14551 35.6072 7.53551 34.4963 7.53551ZM39.4994 11.7745C38.5136 11.7745 37.8748 11.0317 37.8748 10.0232C37.8748 8.97208 38.5272 8.22275 39.5552 8.22275C40.5266 8.22275 41.1797 8.93021 41.1797 9.96758C41.1797 11.0317 40.5066 11.7745 39.4994 11.7745ZM39.528 8.77572C38.9865 8.77572 38.6395 9.28683 38.6395 10.0015C38.6395 10.7025 38.9936 11.2136 39.5208 11.2136C40.048 11.2136 40.4021 10.6671 40.4021 9.98707C40.4021 9.29405 40.0552 8.77572 39.528 8.77572ZM46.8009 8.29278L45.7457 11.6972H45.0583L44.6212 10.2188C44.5125 9.85716 44.4221 9.49021 44.3501 9.11935H44.3358C44.2807 9.4904 44.1763 9.86218 44.0654 10.2188L43.6004 11.6972H42.9058L41.9129 8.29278H42.6834L43.0653 9.91127C43.1555 10.2968 43.2313 10.6606 43.2943 11.0042H43.3086C43.3636 10.7176 43.4538 10.3596 43.5861 9.91849L44.0654 8.2935H44.6763L45.1348 9.88384C45.2457 10.2693 45.3358 10.6476 45.4059 11.0049H45.426C45.4746 10.6548 45.5512 10.283 45.6549 9.88384L46.0648 8.2935L46.8009 8.29278ZM50.6852 11.6972H49.9355V9.74234C49.9355 9.14028 49.7066 8.83853 49.2552 8.83853C48.811 8.83853 48.5055 9.22402 48.5055 9.67232V11.6972H47.7558V9.26589C47.7558 8.96486 47.7487 8.64217 47.7279 8.29205H48.3875L48.4225 8.81759H48.4433C48.645 8.45376 49.0542 8.22275 49.5127 8.22275C50.2209 8.22275 50.6859 8.76923 50.6859 9.6586L50.6852 11.6972ZM52.7525 11.6972H52.0021V6.73059H52.7525V11.6972ZM55.4858 11.7745C54.5008 11.7745 53.8613 11.0317 53.8613 10.0232C53.8613 8.97208 54.5137 8.22275 55.5409 8.22275C56.5131 8.22275 57.1655 8.93021 57.1655 9.96758C57.1662 11.0317 56.4923 11.7745 55.4858 11.7745ZM55.5137 8.77572C54.9722 8.77572 54.6253 9.28683 54.6253 10.0015C54.6253 10.7025 54.9801 11.2136 55.5059 11.2136C56.0338 11.2136 56.3872 10.6671 56.3872 9.98707C56.3879 9.29405 56.0417 8.77572 55.5137 8.77572ZM60.1212 11.6972L60.0669 11.3053H60.0469C59.8179 11.6207 59.4839 11.7745 59.0604 11.7745C58.4559 11.7745 58.0267 11.3471 58.0267 10.7725C58.0267 9.9322 58.7485 9.49762 59.9982 9.49762V9.43482C59.9982 8.98652 59.7629 8.76201 59.2979 8.76201C58.9653 8.76201 58.6734 8.84647 58.4166 9.01467L58.2642 8.51729C58.5761 8.32093 58.9653 8.22275 59.4224 8.22275C60.3037 8.22275 60.7486 8.69198 60.7486 9.63117V10.8851C60.7486 11.2287 60.7636 11.4951 60.7972 11.698L60.1212 11.6972ZM60.0182 10.0015C59.1856 10.0015 58.7678 10.2051 58.7678 10.688C58.7678 11.0454 58.9831 11.2201 59.2822 11.2201C59.6634 11.2201 60.0182 10.9263 60.0182 10.527V10.0015ZM64.389 11.6972L64.3539 11.1508H64.3332C64.1179 11.5637 63.7559 11.7745 63.2502 11.7745C62.4368 11.7745 61.8345 11.0526 61.8345 10.0369C61.8345 8.97208 62.459 8.22203 63.3117 8.22203C63.7631 8.22203 64.0828 8.37579 64.2631 8.68477H64.2781V6.73059H65.0285V10.7797C65.0285 11.1089 65.0364 11.4171 65.0564 11.6972H64.389ZM64.2781 9.69398C64.2781 9.21752 63.9655 8.8111 63.4884 8.8111C62.9325 8.8111 62.5928 9.30848 62.5928 10.0087C62.5928 10.6952 62.9454 11.1652 63.4733 11.1652C63.9448 11.1652 64.2781 10.7516 64.2781 10.2614V9.69398ZM69.7862 11.7745C68.8012 11.7745 68.1624 11.0317 68.1624 10.0232C68.1624 8.97208 68.8148 8.22275 69.842 8.22275C70.8142 8.22275 71.4666 8.93021 71.4666 9.96758C71.4673 11.0317 70.7942 11.7745 69.7862 11.7745ZM69.8141 8.77572C69.2733 8.77572 68.9264 9.28683 68.9264 10.0015C68.9264 10.7025 69.2805 11.2136 69.807 11.2136C70.3349 11.2136 70.6883 10.6671 70.6883 9.98707C70.6897 9.29405 70.3428 8.77572 69.8141 8.77572ZM75.4982 11.6972H74.7478V9.74234C74.7478 9.14028 74.5189 8.83853 74.0676 8.83853C73.6233 8.83853 73.3186 9.22402 73.3186 9.67232V11.6972H72.5682V9.26589C72.5682 8.96486 72.561 8.64217 72.5403 8.29205H73.1998L73.2349 8.81759H73.2556C73.4567 8.45376 73.8665 8.22203 74.3244 8.22203C75.0326 8.22203 75.4982 8.76851 75.4982 9.65788V11.6972ZM80.5421 8.86019H79.7173V10.5133C79.7173 10.9342 79.8618 11.1443 80.1537 11.1443C80.286 11.1443 80.3969 11.1298 80.4863 11.1089L80.5071 11.6835C80.3619 11.7398 80.1673 11.768 79.9255 11.768C79.3346 11.768 78.9812 11.4388 78.9812 10.5769V8.86019H78.4891V8.29278H78.9812V7.66906L79.7173 7.44455V8.29205H80.5421V8.86019ZM84.5108 11.6972H83.7619V9.75678C83.7619 9.1475 83.5337 8.83925 83.0816 8.83925C82.6932 8.83925 82.3312 9.10563 82.3312 9.64489V11.6972H81.5822V6.73059H82.3312V8.77572H82.3462C82.5823 8.40467 82.9242 8.22203 83.3606 8.22203C84.0745 8.22203 84.5108 8.78222 84.5108 9.67232V11.6972ZM88.5768 10.1769H86.3271C86.3414 10.8216 86.7642 11.1854 87.3901 11.1854C87.7227 11.1854 88.0289 11.1291 88.2993 11.0244L88.4159 11.55C88.0968 11.69 87.7213 11.76 87.2842 11.76C86.2291 11.76 85.6046 11.0872 85.6046 10.0441C85.6046 9.00023 86.2441 8.21553 87.1998 8.21553C88.0618 8.21553 88.6026 8.86019 88.6026 9.83402C88.6074 9.94895 88.5988 10.0641 88.5768 10.1769ZM87.8894 9.63767C87.8894 9.11213 87.6269 8.74107 87.1476 8.74107C86.7169 8.74107 86.3764 9.11935 86.3278 9.63767H87.8894Z" fill="white"/>
<defs>
<linearGradient id="paint0_linear_2063_7124" x1="72.6884" y1="30.9446" x2="72.6884" y2="-73.1671" gradientUnits="userSpaceOnUse">
<stop stop-color="#1A1A1A" stop-opacity="0.1"/>
<stop offset="0.123" stop-color="#212121" stop-opacity="0.151"/>
<stop offset="0.308" stop-color="#353535" stop-opacity="0.227"/>
<stop offset="0.532" stop-color="#575757" stop-opacity="0.318"/>
<stop offset="0.783" stop-color="#858585" stop-opacity="0.421"/>
<stop offset="1" stop-color="#B3B3B3" stop-opacity="0.51"/>
</linearGradient>
</defs>
</svg>
