<svg width="90" height="30" viewBox="0 0 90 30" fill="none" xmlns="http://www.w3.org/2000/svg">
<rect width="90" height="30" rx="4" fill="white"/>
<path d="M26.0689 11.4064C26.0971 11.4273 26.1253 11.4481 26.1543 11.4696C26.4544 11.701 26.6339 11.9951 26.8753 12.3024C26.8901 11.6963 26.9049 11.0901 26.9201 10.4656C28.295 10.4656 29.67 10.4656 31.0865 10.4656C31.0865 14.9452 31.0865 19.4247 31.0865 24.04C29.7116 24.04 28.3367 24.04 26.9201 24.04C26.9053 23.4339 26.8906 22.8277 26.8753 22.2032C26.7866 22.3215 26.6979 22.4397 26.6065 22.5616C25.8443 23.5126 24.7006 24.0359 23.5093 24.2002C23.2238 24.2315 22.94 24.2364 22.6529 24.236C22.6227 24.236 22.5924 24.236 22.5612 24.2359C22.066 24.2341 21.6132 24.1899 21.1409 24.04C21.11 24.0309 21.079 24.0218 21.0471 24.0124C20.3405 23.8026 19.6758 23.4575 19.1249 22.9648C19.0702 22.918 19.0702 22.918 19.0143 22.8703C18.1005 22.0749 17.5437 21.0964 17.1537 19.9632C17.1372 19.9165 17.1207 19.8699 17.1037 19.8218C16.8747 19.1329 16.7459 18.3829 16.7414 17.6565C16.7411 17.6217 16.7408 17.5869 16.7405 17.5511C16.7397 17.4395 16.7394 17.328 16.7393 17.2164C16.7393 17.1783 16.7393 17.1401 16.7393 17.1008C16.74 16.5366 16.7571 15.9904 16.8849 15.4384C16.8968 15.3855 16.8968 15.3855 16.909 15.3315C17.1582 14.2469 17.5865 13.1974 18.3185 12.3472C18.3682 12.2883 18.3682 12.2883 18.4188 12.2282C19.267 11.252 20.331 10.6488 21.5889 10.376C21.6476 10.3629 21.6476 10.3629 21.7074 10.3496C23.2403 10.0827 24.8601 10.4196 26.0689 11.4064Z" fill="#5B47FB"/>
<path d="M59.6353 10.2752C59.6804 10.2754 59.6804 10.2754 59.7263 10.2756C61.6 10.2847 63.3639 10.8504 64.7096 12.1894C65.4609 12.9605 66.0286 13.977 66.2761 15.0268C66.2917 15.0925 66.3082 15.158 66.3256 15.2232C66.5294 15.9979 66.4982 16.7942 66.4892 17.5888C66.4889 17.6255 66.4885 17.6621 66.4882 17.6999C66.4873 17.7516 66.4873 17.7516 66.4865 17.8044C66.486 17.8343 66.4856 17.8641 66.4851 17.8949C66.4768 18.0178 66.454 18.1393 66.4337 18.2608C63.3291 18.2608 60.2245 18.2608 57.0257 18.2608C57.179 19.0783 57.3405 19.8196 58.0337 20.3412C58.2283 20.4723 58.4211 20.5914 58.6385 20.68C58.6688 20.6934 58.6991 20.7067 58.7302 20.7204C59.3313 20.9453 60.0637 20.8474 60.6545 20.6352C60.8156 20.5588 60.9587 20.4714 61.1025 20.3664C61.1497 20.3341 61.1968 20.3017 61.2453 20.2684C61.4486 20.0652 61.6013 19.8169 61.7297 19.56C63.1934 19.56 64.657 19.56 66.1649 19.56C65.9431 20.8909 65.0252 22.1761 63.9396 22.9529C63.2957 23.3967 62.6121 23.7333 61.8641 23.9644C61.8313 23.9747 61.7985 23.9851 61.7646 23.9957C61.0867 24.1936 60.4053 24.244 59.7025 24.2388C59.6422 24.2386 59.6422 24.2386 59.5807 24.2384C58.9685 24.235 58.3796 24.2084 57.7873 24.04C57.7479 24.029 57.7085 24.0179 57.668 24.0065C55.9793 23.5179 54.5835 22.4594 53.7225 20.9217C52.8666 19.3269 52.6334 17.2491 53.0386 15.4832C53.0465 15.4476 53.0544 15.412 53.0626 15.3754C53.3405 14.1567 53.8827 13.1222 54.7409 12.2128C54.7711 12.1798 54.8012 12.1468 54.8323 12.1127C55.6316 11.2685 56.7237 10.7633 57.8349 10.4768C57.8864 10.4635 57.8864 10.4635 57.939 10.4498C58.4991 10.3135 59.0603 10.2711 59.6353 10.2752Z" fill="#5B47FB"/>
<path d="M79.0203 11.415C79.0507 11.4418 79.081 11.4685 79.1122 11.496C79.1384 11.5158 79.1645 11.5357 79.1915 11.5561C80.1419 12.2884 80.6657 13.6557 80.8258 14.8056C80.8384 14.9119 80.8494 15.0183 80.8594 15.1248C80.8631 15.1595 80.8668 15.1942 80.8706 15.23C80.9115 15.651 80.9102 16.07 80.9093 16.4925C80.9093 16.5751 80.9093 16.6577 80.9093 16.7403C80.9093 16.9631 80.9091 17.1859 80.9088 17.4086C80.9085 17.642 80.9084 17.8753 80.9084 18.1087C80.9083 18.5499 80.9079 18.9912 80.9074 19.4324C80.9068 20.0291 80.9066 20.6258 80.9063 21.2225C80.9059 22.1617 80.905 23.1008 80.9042 24.04C79.5441 24.04 78.184 24.04 76.7826 24.04C76.7809 23.4856 76.7793 22.9312 76.7775 22.36C76.7762 22.008 76.7748 21.6561 76.7733 21.3041C76.7708 20.7458 76.7685 20.1876 76.7671 19.6294C76.7661 19.2227 76.7646 18.8161 76.7625 18.4094C76.7614 18.1944 76.7606 17.9793 76.7603 17.7643C76.7601 17.5613 76.7591 17.3583 76.7578 17.1553C76.7574 17.0814 76.7572 17.0074 76.7573 16.9334C76.7578 16.3286 76.7341 15.6889 76.4354 15.1472C76.4119 15.1027 76.4119 15.1027 76.3879 15.0572C76.2633 14.8285 76.1252 14.6289 75.9314 14.4528C75.8932 14.4175 75.8932 14.4175 75.8542 14.3814C75.2525 13.8806 74.5273 13.8375 73.781 13.8704C73.1664 13.9286 72.6201 14.1833 72.2067 14.6509C72.1261 14.761 72.0561 14.8717 71.989 14.9904C71.9574 15.0462 71.9574 15.0462 71.9252 15.1031C71.6251 15.6945 71.6106 16.3529 71.6113 17.0011C71.6109 17.0784 71.6104 17.1558 71.6099 17.2331C71.6086 17.4407 71.6082 17.6483 71.608 17.8558C71.6075 18.0737 71.6064 18.2915 71.6053 18.5093C71.6033 18.9207 71.602 19.3321 71.601 19.7434C71.5995 20.3001 71.5971 20.8568 71.5946 21.4135C71.5909 22.289 71.5885 23.1645 71.5858 24.04C70.2109 24.04 68.836 24.04 67.4194 24.04C67.4194 19.5605 67.4194 15.0809 67.4194 10.4656C68.7943 10.4656 70.1693 10.4656 71.5858 10.4656C71.6006 11.0274 71.6154 11.5892 71.6306 12.168C71.7933 11.9906 71.9559 11.8132 72.1234 11.6304C73.9317 9.99645 77.1296 9.78487 79.0203 11.415Z" fill="#5B47FB"/>
<path d="M37.9435 10.2725C37.9915 10.2726 37.9915 10.2726 38.0406 10.2728C39.6344 10.2804 41.2476 10.6784 42.4093 11.8331C43.1571 12.6125 43.7647 13.8 43.7647 14.9009C42.4933 14.9009 41.2218 14.9009 39.9119 14.9009C39.8232 14.6348 39.8232 14.6348 39.7327 14.3633C39.4797 13.8784 39.1278 13.6392 38.6127 13.4673C38.1064 13.332 37.3497 13.3501 36.8935 13.6129C36.6952 13.7505 36.5399 13.9064 36.4623 14.1393C36.4396 14.4176 36.4269 14.6674 36.5967 14.9009C36.99 15.3406 37.5761 15.5113 38.1283 15.6625C38.1825 15.6777 38.2366 15.6929 38.2924 15.7086C38.6518 15.808 39.0129 15.8934 39.3771 15.9733C40.8491 16.2991 42.4551 16.83 43.3181 18.1543C43.8292 19.0314 43.9736 20.0968 43.7199 21.0833C43.5562 21.6592 43.2694 22.1612 42.8687 22.6065C42.8433 22.636 42.8179 22.6656 42.7917 22.6961C42.338 23.1895 41.7313 23.5136 41.1215 23.7712C41.0434 23.8059 41.0434 23.8059 40.9638 23.8412C39.269 24.5412 36.9292 24.3779 35.2609 23.6915C33.9153 23.1133 32.9095 22.1694 32.3297 20.8188C32.1733 20.4195 32.1167 20.0327 32.1167 19.6049C33.462 19.6049 34.8074 19.6049 36.1935 19.6049C36.2674 19.8118 36.3413 20.0188 36.4175 20.2321C36.7414 20.7304 37.1596 20.9611 37.7282 21.1097C38.3284 21.1994 38.9709 21.1737 39.4793 20.8183C39.5535 20.7697 39.5535 20.7697 39.6879 20.7249C39.7381 20.6199 39.7381 20.6199 39.7775 20.5009C39.7928 20.4732 39.8081 20.4455 39.8239 20.417C39.9149 20.2162 39.8953 19.9862 39.8426 19.7758C39.7087 19.4518 39.4194 19.2872 39.1142 19.1418C38.4928 18.8884 37.8311 18.7261 37.1743 18.5954C36.872 18.5342 36.5796 18.4503 36.285 18.3597C36.1151 18.3078 35.9434 18.2661 35.7707 18.2245C35.3687 18.1185 34.9987 17.9491 34.6255 17.7681C34.5833 17.7477 34.5833 17.7477 34.5403 17.7269C34.1905 17.555 33.8862 17.3551 33.5951 17.0961C33.5633 17.068 33.5316 17.0399 33.4988 17.011C32.8812 16.4313 32.5447 15.5824 32.5041 14.7444C32.4867 14.0588 32.5798 13.4642 32.8783 12.8401C32.8981 12.7986 32.9179 12.7571 32.9383 12.7144C33.4904 11.6347 34.5453 10.9678 35.6689 10.6022C36.4176 10.3664 37.1605 10.2682 37.9435 10.2725Z" fill="#5B47FB"/>
<path d="M16.84 5C16.84 6.16793 16.84 7.33587 16.84 8.53919C16.5147 8.55398 16.1895 8.56876 15.8544 8.58399C15.5065 8.67609 15.1536 8.80744 14.9446 9.11949C14.712 9.56585 14.7191 9.93457 14.6896 10.4656C15.414 10.4656 16.1384 10.4656 16.8848 10.4656C16.8848 11.604 16.8848 12.7423 16.8848 13.9152C16.1456 13.9152 15.4064 13.9152 14.6448 13.9152C14.6448 17.2564 14.6448 20.5975 14.6448 24.04C13.2847 24.04 11.9245 24.04 10.5232 24.04C10.5232 20.6988 10.5232 17.3576 10.5232 13.9152C10.0205 13.9152 9.51789 13.9152 9 13.9152C9 12.7768 9 11.6385 9 10.4656C9.50266 10.4656 10.0053 10.4656 10.5232 10.4656C10.5204 10.2743 10.5177 10.0831 10.5148 9.88599C10.5088 8.55506 10.8814 7.335 11.828 6.3608C13.1626 5.04088 15.0721 5 16.84 5Z" fill="#5B47FB"/>
<path d="M45.7806 7.15039C47.1556 7.15039 48.5305 7.15039 49.947 7.15039C49.947 8.2444 49.947 9.33842 49.947 10.4656C50.8341 10.4656 51.7211 10.4656 52.635 10.4656C52.635 11.604 52.635 12.7423 52.635 13.9152C51.748 13.9152 50.861 13.9152 49.947 13.9152C49.9498 14.9575 49.9498 14.9575 49.9542 15.9998C49.9564 16.4249 49.9584 16.85 49.9592 17.2752C49.9598 17.5848 49.961 17.8945 49.9629 18.2041C49.9639 18.368 49.9646 18.5318 49.9646 18.6957C49.9646 18.8789 49.9659 19.062 49.9674 19.2452C49.9672 19.2992 49.9669 19.3532 49.9667 19.4089C49.9705 19.7189 50.0041 19.9236 50.171 20.1872C50.2554 20.2714 50.2554 20.2714 50.3502 20.3188C50.3798 20.3358 50.4094 20.3528 50.4398 20.3704C50.5957 20.4413 50.7395 20.4617 50.9099 20.4652C50.9699 20.4665 50.9699 20.4665 51.0311 20.4679C51.0728 20.4686 51.1144 20.4694 51.1573 20.4701C51.2152 20.4714 51.2152 20.4714 51.2742 20.4727C51.4179 20.4757 51.5617 20.4784 51.7054 20.4812C52.1878 20.4909 52.1878 20.4909 52.6798 20.5008C52.6798 21.6687 52.6798 22.8366 52.6798 24.04C52.2363 24.0418 51.7928 24.0437 51.3358 24.0456C51.1281 24.0468 51.1281 24.0468 50.9162 24.048C49.7289 24.0522 49.7289 24.0522 49.1854 23.9504C49.1487 23.9436 49.1119 23.9368 49.0741 23.9298C48.0297 23.7152 47.1318 23.2268 46.502 22.351C45.7892 21.2315 45.7594 19.9676 45.767 18.6823C45.7679 18.514 45.7679 18.3458 45.7681 18.1775C45.7685 17.8605 45.7696 17.5436 45.771 17.2266C45.7725 16.865 45.7732 16.5035 45.7739 16.1419C45.7753 15.3997 45.7777 14.6574 45.7806 13.9152C45.2336 13.9152 44.6866 13.9152 44.123 13.9152C44.123 12.7768 44.123 11.6384 44.123 10.4656C44.6701 10.4656 45.2171 10.4656 45.7806 10.4656C45.7806 9.37157 45.7806 8.27756 45.7806 7.15039Z" fill="#5B47FB"/>
<path d="M25.6465 14.417C26.397 15.0349 26.8134 15.8162 26.9202 16.7824C26.9489 17.3323 26.9455 17.8648 26.7858 18.3952C26.7701 18.448 26.7543 18.5009 26.7381 18.5553C26.489 19.3156 26.0282 19.9109 25.3242 20.2964C24.6384 20.6313 23.7494 20.7444 23.0142 20.498C22.2681 20.2058 21.696 19.6865 21.3395 18.9708C21.0974 18.4077 20.9986 17.9051 20.9983 17.2948C20.9977 17.2405 20.9972 17.1862 20.9966 17.1302C20.9951 16.2083 21.2495 15.415 21.8872 14.7358C22.8475 13.7867 24.5349 13.5652 25.6465 14.417Z" fill="#FEFEFE"/>
<path d="M61.2495 14.0232C61.3391 14.0879 61.4226 14.1558 61.5055 14.2288C61.5326 14.2523 61.5597 14.2757 61.5876 14.2999C61.9078 14.5971 62.1194 14.9706 62.2223 15.3936C62.2223 15.571 62.2223 15.7484 62.2223 15.9312C60.5221 15.9312 58.822 15.9312 57.0703 15.9312C57.0703 15.3029 57.3996 14.7502 57.8235 14.3044C58.7468 13.4309 60.177 13.3613 61.2495 14.0232Z" fill="#FDFDFE"/>
</svg>
