<svg width="570" height="76" viewBox="0 0 570 76" fill="none" xmlns="http://www.w3.org/2000/svg">
<rect width="76" height="76" rx="18" fill="url(#paint0_linear_2040_7239)"/>
<rect width="76" height="76" rx="18" fill="url(#paint1_linear_2040_7239)"/>
<path d="M27.7353 25.6372L51.4485 19.2832C53.9479 18.6135 56.5174 20.097 57.1871 22.5964L63.9048 47.6671C64.5745 50.1664 63.091 52.736 60.5916 53.4057L23.0309 63.47C20.5315 64.1397 17.962 62.6562 17.2923 60.1568L8.39185 26.9399L26.7652 22.0168L27.7353 25.6372Z" fill="url(#paint2_linear_2040_7239)"/>
<g filter="url(#filter0_i_2040_7239)">
<path d="M36.755 29.2735C37.5469 29.0613 38.3608 29.5312 38.573 30.3231L40.1633 36.2582L46.0985 34.6679C46.8903 34.4558 47.7042 34.9259 47.9165 35.7175L49.297 40.8698C49.5092 41.6616 49.0393 42.4756 48.2474 42.6877L42.3122 44.2781L43.9026 50.2132C44.1147 51.0051 43.6448 51.819 42.853 52.0312L37.7007 53.4117C36.909 53.6237 36.0949 53.1539 35.8827 52.3621L34.2924 46.427L28.3573 48.0173C27.5654 48.2294 26.7515 47.7595 26.5393 46.9677L25.1587 41.8154C24.9468 41.0237 25.4166 40.2097 26.2084 39.9975L32.1435 38.4071L30.5532 32.472C30.3411 31.6802 30.8112 30.8663 31.6028 30.654L36.755 29.2735Z" fill="#5767FF"/>
<path d="M36.755 29.2735C37.5469 29.0613 38.3608 29.5312 38.573 30.3231L40.1633 36.2582L46.0985 34.6679C46.8903 34.4558 47.7042 34.9259 47.9165 35.7175L49.297 40.8698C49.5092 41.6616 49.0393 42.4756 48.2474 42.6877L42.3122 44.2781L43.9026 50.2132C44.1147 51.0051 43.6448 51.819 42.853 52.0312L37.7007 53.4117C36.909 53.6237 36.0949 53.1539 35.8827 52.3621L34.2924 46.427L28.3573 48.0173C27.5654 48.2294 26.7515 47.7595 26.5393 46.9677L25.1587 41.8154C24.9468 41.0237 25.4166 40.2097 26.2084 39.9975L32.1435 38.4071L30.5532 32.472C30.3411 31.6802 30.8112 30.8663 31.6028 30.654L36.755 29.2735Z" fill="white"/>
</g>
<path d="M8.39196 26.9397C7.8562 24.9402 9.04278 22.885 11.0423 22.3493L44.9389 13.2667C47.013 12.7109 49.1449 13.9418 49.7007 16.0159L50.6346 19.5012L12.9824 29.59C10.9829 30.1258 8.92772 28.9392 8.39196 26.9397V26.9397Z" fill="white"/>
<path d="M8.39196 26.9397C7.8562 24.9402 9.04278 22.885 11.0423 22.3493L44.9389 13.2667C47.013 12.7109 49.1449 13.9418 49.7007 16.0159L50.6346 19.5012L12.9824 29.59C10.9829 30.1258 8.92772 28.9392 8.39196 26.9397V26.9397Z" fill="url(#paint3_linear_2040_7239)" fill-opacity="0.16"/>
<g filter="url(#filter1_d_2040_7239)">
<path d="M67.2962 37.154L67.2953 37.1543C67.7856 39.1187 66.6125 41.1204 64.649 41.6465L53.5795 44.6126C49.7806 45.6303 45.8759 43.3761 44.858 39.5772C43.8402 35.7783 46.0946 31.8737 49.8934 30.8557L58.7641 28.4788L58.182 26.3064L63.9738 24.7545L67.2962 37.154Z" fill="url(#paint4_linear_2040_7239)"/>
</g>
<path d="M57.6482 24.3154L61.3591 23.3211C62.5088 23.013 63.6906 23.6953 63.9986 24.845V24.845C64.3067 25.9947 63.6244 27.1765 62.4747 27.4846L58.7638 28.4789L57.6482 24.3154Z" fill="white"/>
<path d="M57.6482 24.3154L61.3591 23.3211C62.5088 23.013 63.6906 23.6953 63.9986 24.845V24.845C64.3067 25.9947 63.6244 27.1765 62.4747 27.4846L58.7638 28.4789L57.6482 24.3154Z" fill="url(#paint5_linear_2040_7239)" fill-opacity="0.12"/>
<circle cx="51.7369" cy="37.7342" r="3.18589" transform="rotate(-15 51.7369 37.7342)" fill="#F2F2F2"/>
<path d="M92 68.4645V6H102.204V32.2352H131.04V6H141.243V68.4645H131.04V41.3372H102.204V68.4645H92ZM171.123 69C156.838 69 147.876 59.7195 147.876 45.7096C147.876 31.6103 156.838 22.2407 170.235 22.2407C183.278 22.2407 192.24 30.7182 192.24 44.4602V47.762H157.902V48.2975C157.902 55.9716 163.049 61.1473 170.59 61.1473C176.535 61.1473 180.883 58.2025 182.213 53.2053H191.796C190.199 62.1288 182.391 69 171.123 69ZM158.168 40.6233H182.479C181.681 33.8412 177.067 30.0043 170.324 30.0043C164.291 30.0043 158.967 33.9306 158.168 40.6233ZM213.3 69C203.362 69 196.442 64.0922 196.442 55.6146C196.442 46.245 203.185 40.9803 215.873 40.9803H227.318V38.2139C227.318 32.9491 223.681 30.0043 217.381 30.0043C211.525 30.0043 207.887 32.5921 207.178 36.697H197.772C198.748 27.7734 206.379 22.2407 217.825 22.2407C229.891 22.2407 236.812 28.0409 236.812 38.8384V57.1316C236.812 59.4519 237.699 60.0764 239.74 60.0764H241.692V68.4645H236.635C230.69 68.4645 228.295 65.6982 228.295 61.5043V61.3258C225.455 65.7876 220.753 69 213.3 69ZM214.631 61.5043C222.616 61.5043 227.318 56.7746 227.318 49.7253V48.119H215.429C209.484 48.119 206.202 50.3499 206.202 54.9007C206.202 59.0949 209.396 61.5043 214.631 61.5043ZM245.403 68.4645V6H255.075V68.4645H245.403ZM278.916 68.4645C270.221 68.4645 266.583 64.3597 266.583 56.061V31.2537H258.686V22.7761H266.583V10.0156H276.165V22.7761H287.877V31.2537H276.165V55.0792C276.165 58.6485 277.496 59.9874 281.134 59.9874H287.877V68.4645H278.916ZM293.323 68.4645V6H302.994V28.5764C305.656 25.1855 310.092 22.2407 317.279 22.2407C327.394 22.2407 335.557 27.7734 335.557 43.0327V68.4645H325.974V43.8357C325.974 35.18 322.248 30.5397 315.15 30.5397C307.076 30.5397 302.994 35.7151 302.994 44.4602V68.4645H293.323ZM358.982 68.4645L340.083 6H345.141L361.733 62.1288L378.5 6H383.47L399.796 62.1288L416.566 6H421.533L402.456 68.4645H396.779L380.806 13.9419L364.659 68.4645H358.982ZM435.764 69C426.179 69 419.879 64.0922 419.879 56.061C419.879 47.5835 426.092 42.5863 437.626 42.5863H452.887V38.6599C452.887 31.0752 448.095 26.7025 439.666 26.7025C431.948 26.7025 427.244 30.3613 426.092 35.8936H421.566C422.721 27.684 429.55 22.6871 439.845 22.6871C451.113 22.6871 457.413 28.4873 457.413 38.8384V59.8979C457.413 63.3782 458.743 64.2707 461.404 64.2707H463.091V68.4645H460.427C455.46 68.4645 453.066 66.3231 453.066 61.5934V58.9165C450.668 64.6273 444.991 69 435.764 69ZM436.117 65.0737C446.765 65.0737 452.887 58.827 452.887 50.0819V46.5126H437.272C428.931 46.5126 424.496 49.8144 424.496 55.7931C424.496 61.5934 428.931 65.0737 436.117 65.0737ZM467.635 68.4645V6H472.157V68.4645H467.635ZM481.541 68.4645V6H486.067V68.4645H481.541ZM515.06 69C502.284 69 493.498 59.7195 493.498 45.5311C493.498 32.1457 501.926 22.6871 514.262 22.6871C526.24 22.6871 534.669 30.6288 534.935 44.2817V45.8881H498.202V46.6911C498.202 57.221 504.678 64.8952 514.703 64.8952C522.159 64.8952 528.102 60.5225 529.877 53.4732H534.49C532.537 62.5749 524.906 69 515.06 69ZM498.468 42.0508H530.143C529.432 32.1458 523.132 26.7025 514.349 26.7025C506.099 26.7025 499.179 32.6812 498.468 42.0508ZM555.433 68.4645C547.802 68.4645 544.964 65.1627 544.964 57.935V27.4164H536.447V23.2225H544.964V10.551H549.49V23.2225H562V27.4164H549.49V57.8455C549.49 62.4858 551.173 64.2707 555.878 64.2707H562V68.4645H555.433Z" fill="#2C2D30"/>
<defs>
<filter id="filter0_i_2040_7239" x="25.1079" y="28.5547" width="24.5369" height="24.9077" filterUnits="userSpaceOnUse" color-interpolation-filters="sRGB">
<feFlood flood-opacity="0" result="BackgroundImageFix"/>
<feBlend mode="normal" in="SourceGraphic" in2="BackgroundImageFix" result="shape"/>
<feColorMatrix in="SourceAlpha" type="matrix" values="0 0 0 0 0 0 0 0 0 0 0 0 0 0 0 0 0 0 127 0" result="hardAlpha"/>
<feOffset dx="0.296875" dy="-0.667969"/>
<feGaussianBlur stdDeviation="0.742188"/>
<feComposite in2="hardAlpha" operator="arithmetic" k2="-1" k3="1"/>
<feColorMatrix type="matrix" values="0 0 0 0 0 0 0 0 0 0 0 0 0 0 0 0 0 0 0.16 0"/>
<feBlend mode="normal" in2="shape" result="effect1_innerShadow_2040_7239"/>
</filter>
<filter id="filter1_d_2040_7239" x="43.4891" y="24.0048" width="25.0421" height="22.3514" filterUnits="userSpaceOnUse" color-interpolation-filters="sRGB">
<feFlood flood-opacity="0" result="BackgroundImageFix"/>
<feColorMatrix in="SourceAlpha" type="matrix" values="0 0 0 0 0 0 0 0 0 0 0 0 0 0 0 0 0 0 127 0" result="hardAlpha"/>
<feOffset dy="0.374811"/>
<feGaussianBlur stdDeviation="0.562217"/>
<feComposite in2="hardAlpha" operator="out"/>
<feColorMatrix type="matrix" values="0 0 0 0 0 0 0 0 0 0 0 0 0 0 0 0 0 0 0.12 0"/>
<feBlend mode="normal" in2="BackgroundImageFix" result="effect1_dropShadow_2040_7239"/>
<feBlend mode="normal" in="SourceGraphic" in2="effect1_dropShadow_2040_7239" result="shape"/>
</filter>
<linearGradient id="paint0_linear_2040_7239" x1="38" y1="0" x2="38" y2="76" gradientUnits="userSpaceOnUse">
<stop offset="0.346154" stop-color="#FBF9F7"/>
<stop offset="0.932692" stop-color="#FBF9F7"/>
</linearGradient>
<linearGradient id="paint1_linear_2040_7239" x1="38" y1="0" x2="38" y2="76" gradientUnits="userSpaceOnUse">
<stop stop-color="#5767FF"/>
<stop offset="1" stop-color="#E7EAFF"/>
</linearGradient>
<linearGradient id="paint2_linear_2040_7239" x1="37.5919" y1="20.4254" x2="23.0755" y2="63.4579" gradientUnits="userSpaceOnUse">
<stop stop-color="#CED2FB"/>
<stop offset="1" stop-color="#4D5AD2"/>
</linearGradient>
<linearGradient id="paint3_linear_2040_7239" x1="29.3906" y1="20.7442" x2="30.5781" y2="25.0118" gradientUnits="userSpaceOnUse">
<stop stop-opacity="0"/>
<stop offset="1" stop-opacity="0.8"/>
</linearGradient>
<linearGradient id="paint4_linear_2040_7239" x1="56.0555" y1="27.9957" x2="50.9611" y2="46.4816" gradientUnits="userSpaceOnUse">
<stop stop-color="#D4D8FF"/>
<stop offset="1" stop-color="#4F5CD4"/>
</linearGradient>
<linearGradient id="paint5_linear_2040_7239" x1="60.5445" y1="23.5394" x2="61.6601" y2="27.7028" gradientUnits="userSpaceOnUse">
<stop stop-opacity="0"/>
<stop offset="1"/>
</linearGradient>
</defs>
</svg>
