<svg width="90" height="30" viewBox="0 0 90 30" fill="none" xmlns="http://www.w3.org/2000/svg">
<rect width="90" height="30" rx="4" fill="url(#paint0_linear_2077_7101)"/>
<g clip-path="url(#clip0_2077_7101)">
<path d="M9.36433 9.02399C9.8416 9.67025 10.0908 10.4432 10.0763 11.232C10.0618 12.0208 9.78426 12.785 9.2835 13.4151L8.18213 12.6282C8.50763 12.2186 8.68802 11.7219 8.69747 11.2092C8.7069 10.6964 8.5449 10.194 8.23467 9.77397L9.36433 9.02399Z" fill="#5767FF"/>
<path d="M14.2571 10.0972C14.086 10.8693 13.6615 11.5702 13.0445 12.0994C12.4274 12.6287 11.6495 12.9592 10.8221 13.0434L10.6748 11.7434C11.2126 11.6886 11.7182 11.4738 12.1193 11.1298C12.5204 10.7857 12.7963 10.3302 12.9076 9.82831L14.2571 10.0972Z" fill="#5767FF"/>
<path d="M16.7763 14.2163C16.0651 14.6257 15.2354 14.8112 14.4061 14.7461C13.5769 14.681 12.7907 14.3687 12.1602 13.8538L13.0601 12.863C13.4699 13.1977 13.9809 13.4007 14.5199 13.443C15.0589 13.4853 15.5982 13.3648 16.0605 13.0986L16.7763 14.2163Z" fill="#5767FF"/>
<path d="M15.5146 18.6577C14.6934 18.5303 13.9358 18.1597 13.3504 17.5991C12.765 17.0384 12.3819 16.3164 12.2559 15.5366L13.619 15.3386C13.7009 15.8454 13.95 16.3147 14.3305 16.6792C14.711 17.0436 15.2034 17.2845 15.7372 17.3673L15.5146 18.6577Z" fill="#5767FF"/>
<path d="M11.3193 20.974C10.8154 20.3462 10.5341 19.5832 10.5156 18.7945C10.4972 18.0057 10.7425 17.2317 11.2166 16.5833L12.35 17.3282C12.0418 17.7497 11.8823 18.2528 11.8943 18.7655C11.9063 19.2782 12.0892 19.7741 12.4167 20.1822L11.3193 20.974Z" fill="#5767FF"/>
<path d="M6.57715 19.6889C6.74752 18.9166 7.17136 18.2154 7.78791 17.6856C8.40448 17.1558 9.1821 16.8247 10.0093 16.7397L10.1579 18.0396C9.6202 18.0949 9.11475 18.3101 8.71399 18.6545C8.31323 18.9988 8.03772 19.4546 7.92698 19.9566L6.57715 19.6889Z" fill="#5767FF"/>
<path d="M4.02881 15.9942C4.67996 15.503 5.4784 15.2199 6.30969 15.1855C7.14097 15.151 7.96243 15.3669 8.65633 15.8023L7.89526 16.8927C7.44424 16.6097 6.91029 16.4693 6.36995 16.4918C5.82961 16.5142 5.31063 16.6982 4.88738 17.0174L4.02881 15.9942Z" fill="#5767FF"/>
<path d="M4.89244 11.5756C5.72376 11.6093 6.52247 11.8917 7.17412 12.3823C7.82577 12.8728 8.2969 13.5464 8.51997 14.3065L7.19138 14.657C7.0464 14.163 6.74016 13.7251 6.3166 13.4063C5.89302 13.0874 5.37385 12.9038 4.8335 12.8819L4.89244 11.5756Z" fill="#5767FF"/>
<path d="M28.531 17.5584H28.7577L28.3367 20.4H19.9126V20.185C20.4742 20.1338 20.8576 20.0263 21.0628 19.8624C21.2788 19.6986 21.3868 19.4272 21.3868 19.0483V10.8768C21.3868 10.4979 21.2788 10.2266 21.0628 10.0627C20.8576 9.8989 20.4742 9.79138 19.9126 9.74018V9.52514H24.319V9.74018C23.7574 9.79138 23.3686 9.8989 23.1526 10.0627C22.9474 10.2266 22.8448 10.4979 22.8448 10.8768V18.9562C22.8448 19.3248 22.915 19.5859 23.0554 19.7395C23.2066 19.8931 23.4496 19.9699 23.7844 19.9699H25.9552C26.6572 19.9699 27.2135 19.7805 27.6237 19.4016C28.0342 19.0125 28.3367 18.3981 28.531 17.5584ZM31.2761 19.2019C31.2761 19.5194 31.3571 19.7498 31.5191 19.8931C31.6919 20.0365 31.9889 20.1338 32.4101 20.185V20.4H28.8136V20.185C29.2349 20.1338 29.5264 20.0365 29.6884 19.8931C29.8504 19.7498 29.9314 19.5194 29.9314 19.2019V14.256C29.9314 13.8362 29.8451 13.5751 29.6721 13.4727C29.5101 13.36 29.2241 13.3395 28.8136 13.4112V13.1962L31.0491 12.4743H31.2761V19.2019ZM30.6119 11.3069C30.3201 11.3069 30.0771 11.2199 29.8829 11.0458C29.6884 10.8615 29.5911 10.6413 29.5911 10.3853C29.5911 10.1191 29.6884 9.89889 29.8829 9.72481C30.0771 9.55074 30.3201 9.4637 30.6119 9.4637C30.8926 9.4637 31.1301 9.55074 31.3246 9.72481C31.5191 9.89889 31.6161 10.1191 31.6161 10.3853C31.6161 10.6413 31.5191 10.8615 31.3246 11.0458C31.1301 11.2199 30.8926 11.3069 30.6119 11.3069ZM37.2613 12.7047V13.1347H35.0257V19.248C35.0257 19.5859 35.15 19.8163 35.3983 19.9392C35.6575 20.0519 36.0625 20.1338 36.6133 20.185V20.4H32.5147V20.185C32.8387 20.1338 33.114 20.0519 33.341 19.9392C33.5677 19.8163 33.681 19.5859 33.681 19.248V13.1347H32.304V12.7047H33.681V12.0135C33.681 11.3991 33.8053 10.8871 34.0537 10.4775C34.313 10.0576 34.664 9.74018 35.1067 9.52514C35.5495 9.3101 36.041 9.20258 36.581 9.20258C36.8833 9.20258 37.1965 9.23841 37.5205 9.31009C37.8445 9.38177 38.12 9.49953 38.3467 9.66337C38.5843 9.81698 38.703 10.0269 38.703 10.2931C38.703 10.4775 38.6383 10.6311 38.5087 10.7539C38.379 10.8666 38.2225 10.9229 38.039 10.9229C37.7797 10.9229 37.5907 10.8615 37.472 10.7386C37.364 10.6055 37.272 10.4519 37.1965 10.2778C37.121 10.1037 37.0183 9.95521 36.8887 9.83234C36.77 9.69922 36.581 9.63266 36.3217 9.63266C35.8897 9.63266 35.5657 9.83233 35.3497 10.2317C35.1337 10.6311 35.0257 11.1328 35.0257 11.737V12.7047H37.2613ZM40.8134 20.6151C40.0034 20.6151 39.3122 20.441 38.7397 20.0928C38.1782 19.7447 37.7462 19.2736 37.4437 18.6797C37.1522 18.0858 37.0064 17.4304 37.0064 16.7136C37.0064 15.8739 37.163 15.1367 37.4762 14.5018C37.8002 13.8669 38.243 13.3703 38.8047 13.0119C39.377 12.6535 40.0357 12.4743 40.781 12.4743C41.4614 12.4743 42.0284 12.6279 42.482 12.9351C42.9357 13.232 43.265 13.6314 43.4702 14.1331C43.6862 14.6349 43.7672 15.1879 43.7132 15.792H38.4157C38.4157 15.8842 38.4157 15.9815 38.4157 16.0839C38.4157 16.7597 38.5292 17.369 38.756 17.9117C38.9937 18.4544 39.3284 18.8845 39.7604 19.2019C40.2032 19.5091 40.7377 19.6627 41.3642 19.6627C41.8827 19.6627 42.3362 19.5245 42.725 19.248C43.1247 18.9613 43.3947 18.5875 43.535 18.1267L43.7617 18.1728C43.6322 18.8999 43.292 19.4887 42.7412 19.9392C42.2012 20.3898 41.5587 20.6151 40.8134 20.6151ZM38.4482 15.3619H42.3687C42.401 14.9319 42.3417 14.5325 42.1904 14.1639C42.05 13.785 41.8394 13.4829 41.5587 13.2576C41.2887 13.0221 40.9592 12.9043 40.5704 12.9043C39.944 12.9043 39.4527 13.1245 39.0962 13.5648C38.7507 14.0051 38.5347 14.6042 38.4482 15.3619ZM54.1822 9.74018V9.52514H57.6005V9.74018C57.2225 9.74018 56.904 9.86306 56.6447 10.1088C56.3855 10.3546 56.1317 10.7744 55.8832 11.3683L51.9305 20.6304H51.7037L47.7022 11.353C47.454 10.7693 47.1947 10.3546 46.9247 10.1088C46.6547 9.86306 46.3145 9.74018 45.9042 9.74018V9.52514H50.5535V9.74018C49.83 9.74018 49.371 9.85282 49.1765 10.0781C48.9822 10.3034 49.0037 10.6874 49.2412 11.2301L52.368 18.5722L55.446 11.2301C55.6835 10.6874 55.7052 10.3034 55.5107 10.0781C55.3272 9.85282 54.8842 9.74018 54.1822 9.74018ZM58.2824 20.6304C57.6669 20.6304 57.143 20.4461 56.711 20.0775C56.2899 19.7088 56.0792 19.2275 56.0792 18.6336C56.0792 17.8963 56.3439 17.2973 56.873 16.8365C57.413 16.3757 58.2554 16.0941 59.4002 15.9917L60.761 15.8535V15.1623C60.761 14.4659 60.5937 13.9181 60.2589 13.5187C59.9349 13.1091 59.4867 12.9043 58.9142 12.9043C58.4822 12.9043 58.142 12.9914 57.8937 13.1655C57.6452 13.3293 57.4779 13.5341 57.3914 13.7799C57.3159 14.0154 57.305 14.2458 57.359 14.4711C57.4454 14.7783 57.4292 15.0087 57.3104 15.1623C57.1917 15.3159 57.035 15.4029 56.8407 15.4234C56.6679 15.4541 56.495 15.4183 56.3222 15.3159C56.1602 15.2032 56.0792 14.9984 56.0792 14.7015C56.0792 14.384 56.1927 14.0563 56.4194 13.7184C56.6462 13.3703 56.9864 13.0784 57.44 12.8429C57.9044 12.5971 58.4769 12.4743 59.1572 12.4743C60.0969 12.4743 60.8204 12.7251 61.328 13.2269C61.8464 13.7184 62.1057 14.3891 62.1057 15.2391V19.3095C62.1057 19.504 62.1489 19.6576 62.2352 19.7703C62.3324 19.8727 62.4512 19.9239 62.5917 19.9239C62.8292 19.9239 63.0507 19.7549 63.2559 19.417L63.4502 19.4938C63.245 19.9341 63.0129 20.2362 62.7537 20.4C62.4944 20.5536 62.246 20.6304 62.0084 20.6304C61.7277 20.6304 61.463 20.5331 61.2147 20.3386C60.9662 20.144 60.8259 19.8573 60.7934 19.4784L60.7772 18.7104C60.5397 19.3351 60.1994 19.8112 59.7567 20.1389C59.3247 20.4666 58.8332 20.6304 58.2824 20.6304ZM57.4724 18.265C57.4724 18.7463 57.6182 19.1149 57.9099 19.3709C58.2014 19.6269 58.5524 19.7549 58.9629 19.7549C59.3409 19.7549 59.681 19.6269 59.9834 19.3709C60.2967 19.1047 60.5559 18.7514 60.761 18.3111V16.2835L59.5137 16.4371C58.8224 16.5088 58.3094 16.7136 57.9747 17.0515C57.6399 17.3792 57.4724 17.7837 57.4724 18.265ZM65.4579 19.2019C65.4579 19.5194 65.5389 19.7498 65.7009 19.8931C65.8629 20.0365 66.1544 20.1338 66.5757 20.185V20.4H62.9954V20.185C63.4167 20.1338 63.7084 20.0365 63.8704 19.8931C64.0324 19.7498 64.1134 19.5194 64.1134 19.2019V11.0765C64.1134 10.6669 64.0269 10.4109 63.8541 10.3085C63.6921 10.1959 63.4059 10.1703 62.9954 10.2317V10.0167L65.2311 9.29473H65.4579V19.2019ZM73.9087 20.6304C73.5522 20.6304 73.2497 20.5178 73.0015 20.2925C72.7637 20.057 72.645 19.7651 72.645 19.417V18.8333C72.1807 19.4375 71.7217 19.888 71.268 20.185C70.8252 20.4819 70.35 20.6304 69.8424 20.6304C69.0864 20.6304 68.5032 20.4 68.0927 19.9392C67.6932 19.4784 67.4935 18.8589 67.4935 18.0807V14.256C67.4935 13.8362 67.407 13.5751 67.2342 13.4727C67.0722 13.36 66.786 13.3395 66.3757 13.4112V13.1962L68.6112 12.4743H68.838V17.9271C68.838 18.4903 68.9892 18.9152 69.2917 19.2019C69.594 19.4887 69.999 19.632 70.5067 19.632C70.917 19.632 71.2787 19.5399 71.592 19.3555C71.916 19.161 72.2617 18.8589 72.6287 18.4493V14.256C72.6287 13.8362 72.5424 13.5751 72.3697 13.4727C72.2077 13.36 71.9214 13.3395 71.511 13.4112V13.1962L73.7467 12.4743H73.9735V19.3095C73.9735 19.504 74.0167 19.6576 74.103 19.7703C74.2002 19.8727 74.319 19.9239 74.4594 19.9239C74.6862 19.9239 74.9022 19.7549 75.1074 19.417L75.318 19.4938C75.102 19.9648 74.859 20.272 74.589 20.4154C74.319 20.5587 74.0922 20.6304 73.9087 20.6304ZM79.1904 20.6151C78.3804 20.6151 77.6891 20.441 77.1166 20.0928C76.5551 19.7447 76.1231 19.2736 75.8206 18.6797C75.5291 18.0858 75.3834 17.4304 75.3834 16.7136C75.3834 15.8739 75.5399 15.1367 75.8531 14.5018C76.1771 13.8669 76.6199 13.3703 77.1816 13.0119C77.7539 12.6535 78.4126 12.4743 79.1579 12.4743C79.8384 12.4743 80.4054 12.6279 80.8589 12.9351C81.3126 13.232 81.6419 13.6314 81.8471 14.1331C82.0631 14.6349 82.1441 15.1879 82.0901 15.792H76.7926C76.7926 15.8842 76.7926 15.9815 76.7926 16.0839C76.7926 16.7597 76.9061 17.369 77.1329 17.9117C77.3706 18.4544 77.7054 18.8845 78.1374 19.2019C78.5801 19.5091 79.1146 19.6627 79.7411 19.6627C80.2596 19.6627 80.7131 19.5245 81.1019 19.248C81.5016 18.9613 81.7716 18.5875 81.9119 18.1267L82.1386 18.1728C82.0091 18.8999 81.6689 19.4887 81.1181 19.9392C80.5781 20.3898 79.9356 20.6151 79.1904 20.6151ZM76.8251 15.3619H80.7456C80.7779 14.9319 80.7186 14.5325 80.5674 14.1639C80.4269 13.785 80.2164 13.4829 79.9356 13.2576C79.6656 13.0221 79.3361 12.9043 78.9474 12.9043C78.3209 12.9043 77.8296 13.1245 77.4731 13.5648C77.1276 14.0051 76.9116 14.6042 76.8251 15.3619Z" fill="black"/>
<path d="M84.1477 10.7893C84.1159 10.686 84.0893 10.6255 84.0123 10.5953C84.1186 10.5625 84.1931 10.4718 84.1931 10.3559C84.1931 10.2097 84.0788 10.0989 83.8581 10.0989H83.5153V10.9984H83.6695V10.6456H83.8102C83.9165 10.6456 83.9564 10.6986 83.9883 10.7893C84.0123 10.8649 84.0281 10.9455 84.0655 10.9984H84.2249V10.9883C84.1851 10.9253 84.1743 10.8699 84.1477 10.7893ZM82.8218 10.5549C82.8218 10.0182 83.2841 9.59998 83.8395 9.59998C84.3949 9.59998 84.8573 10.0182 84.8573 10.5549C84.8573 11.1017 84.3949 11.52 83.8395 11.52C83.2841 11.52 82.8218 11.1017 82.8218 10.5549ZM82.9838 10.5549C82.9838 11.0261 83.3664 11.389 83.8395 11.389C84.3099 11.389 84.6926 11.0261 84.6926 10.5549C84.6926 10.0989 84.3099 9.731 83.8395 9.731C83.3639 9.731 82.9838 10.0964 82.9838 10.5549ZM83.6695 10.5272V10.2223H83.8476C83.9805 10.2223 84.0414 10.2803 84.0414 10.3685C84.0414 10.4592 83.9697 10.5272 83.8528 10.5272H83.6695Z" fill="black"/>
</g>
<defs>
<linearGradient id="paint0_linear_2077_7101" x1="45" y1="0" x2="45" y2="30" gradientUnits="userSpaceOnUse">
<stop offset="0.354585" stop-color="#F8F5F3"/>
<stop offset="1" stop-color="#D4D8FF"/>
</linearGradient>
<clipPath id="clip0_2077_7101">
<rect width="81" height="12" fill="white" transform="translate(4 9)"/>
</clipPath>
</defs>
</svg>
