<svg width="1049" height="530" viewBox="0 0 1049 530" fill="none" xmlns="http://www.w3.org/2000/svg">
<rect width="1049" height="530" rx="32" fill="url(#paint0_linear_2081_10550)"/>
<path d="M105.108 193.286C110.811 200.987 113.79 210.198 113.616 219.598C113.443 228.998 110.126 238.105 104.142 245.613L90.9795 236.236C94.8694 231.355 97.0252 225.436 97.1381 219.326C97.2508 213.216 95.3148 207.229 91.6074 202.223L105.108 193.286Z" fill="#5767FF"/>
<path d="M163.58 206.075C161.535 215.276 156.462 223.628 149.087 229.935C141.713 236.242 132.416 240.18 122.529 241.184L120.769 225.692C127.195 225.039 133.238 222.48 138.031 218.38C142.825 214.28 146.122 208.851 147.451 202.871L163.58 206.075Z" fill="#5767FF"/>
<path d="M193.686 255.16C185.187 260.04 175.271 262.25 165.361 261.474C155.451 260.698 146.056 256.976 138.521 250.841L149.275 239.034C154.173 243.022 160.28 245.442 166.721 245.946C173.163 246.45 179.608 245.013 185.132 241.842L193.686 255.16Z" fill="#5767FF"/>
<path d="M178.604 308.087C168.79 306.57 159.737 302.153 152.741 295.472C145.745 288.791 141.166 280.187 139.66 270.894L155.951 268.534C156.93 274.575 159.906 280.167 164.453 284.51C169 288.853 174.885 291.723 181.264 292.71L178.604 308.087Z" fill="#5767FF"/>
<path d="M128.47 335.69C122.448 328.208 119.086 319.116 118.866 309.717C118.646 300.318 121.578 291.094 127.243 283.368L140.788 292.245C137.105 297.267 135.199 303.263 135.342 309.372C135.486 315.481 137.671 321.391 141.585 326.254L128.47 335.69Z" fill="#5767FF"/>
<path d="M71.7998 320.375C73.8359 311.173 78.901 302.816 86.2691 296.503C93.6375 290.19 102.931 286.244 112.817 285.231L114.592 300.722C108.166 301.38 102.126 303.945 97.3364 308.049C92.547 312.152 89.2546 317.584 87.9311 323.566L71.7998 320.375Z" fill="#5767FF"/>
<path d="M41.3418 276.348C49.1235 270.495 58.6653 267.121 68.5997 266.71C78.5341 266.299 88.351 268.872 96.6435 274.061L87.5483 287.055C82.1583 283.682 75.7773 282.01 69.3199 282.277C62.8625 282.544 56.6603 284.737 51.6022 288.541L41.3418 276.348Z" fill="#5767FF"/>
<path d="M51.6654 223.692C61.6001 224.093 71.1453 227.459 78.9329 233.305C86.7205 239.151 92.3508 247.178 95.0165 256.235L79.1391 260.412C77.4065 254.525 73.7467 249.307 68.6849 245.507C63.6229 241.708 57.4186 239.52 50.9609 239.259L51.6654 223.692Z" fill="#5767FF"/>
<path d="M334.161 294.988H336.871L331.839 328.85H231.166V326.287C237.877 325.677 242.459 324.396 244.912 322.444C247.493 320.491 248.784 317.257 248.784 312.742V215.365C248.784 210.85 247.493 207.616 244.912 205.664C242.459 203.712 237.877 202.43 231.166 201.82V199.258H283.825V201.82C277.114 202.43 272.467 203.712 269.886 205.664C267.434 207.616 266.208 210.85 266.208 215.365V311.644C266.208 316.037 267.047 319.149 268.724 320.979C270.531 322.81 273.435 323.725 277.436 323.725H303.379C311.768 323.725 318.416 321.467 323.319 316.952C328.224 312.315 331.839 304.994 334.161 294.988ZM366.967 314.573C366.967 318.356 367.935 321.101 369.871 322.81C371.936 324.518 375.485 325.677 380.519 326.287V328.85H337.539V326.287C342.573 325.677 346.057 324.518 347.993 322.81C349.929 321.101 350.897 318.356 350.897 314.573V255.634C350.897 250.631 349.866 247.519 347.799 246.299C345.863 244.957 342.444 244.713 337.539 245.567V243.004L364.255 234.401H366.967V314.573ZM359.029 220.49C355.543 220.49 352.639 219.453 350.317 217.379C347.993 215.182 346.831 212.559 346.831 209.508C346.831 206.335 347.993 203.712 350.317 201.637C352.639 199.563 355.543 198.525 359.029 198.525C362.384 198.525 365.223 199.563 367.547 201.637C369.871 203.712 371.031 206.335 371.031 209.508C371.031 212.559 369.871 215.182 367.547 217.379C365.223 219.453 362.384 220.49 359.029 220.49ZM438.493 237.147V242.272H411.777V315.122C411.777 319.149 413.262 321.894 416.229 323.359C419.327 324.701 424.167 325.677 430.749 326.287V328.85H381.769V326.287C385.641 325.677 388.931 324.701 391.644 323.359C394.353 321.894 395.707 319.149 395.707 315.122V242.272H379.251V237.147H395.707V228.91C395.707 221.589 397.192 215.487 400.161 210.606C403.26 205.603 407.454 201.82 412.745 199.258C418.037 196.695 423.91 195.414 430.363 195.414C433.976 195.414 437.719 195.841 441.591 196.695C445.463 197.549 448.756 198.953 451.465 200.905C454.304 202.735 455.723 205.237 455.723 208.41C455.723 210.606 454.949 212.437 453.401 213.901C451.851 215.243 449.981 215.914 447.787 215.914C444.689 215.914 442.431 215.182 441.012 213.718C439.721 212.131 438.622 210.301 437.719 208.227C436.817 206.152 435.589 204.383 434.041 202.918C432.622 201.332 430.364 200.539 427.265 200.539C422.103 200.539 418.231 202.918 415.649 207.677C413.068 212.437 411.777 218.416 411.777 225.615V237.147H438.493ZM480.944 331.413C471.264 331.413 463.003 329.338 456.162 325.189C449.451 321.04 444.289 315.427 440.674 308.35C437.19 301.272 435.448 293.462 435.448 284.92C435.448 274.914 437.318 266.128 441.062 258.563C444.934 250.997 450.225 245.079 456.938 240.808C463.777 236.537 471.65 234.401 480.556 234.401C488.688 234.401 495.464 236.232 500.884 239.893C506.306 243.431 510.241 248.19 512.694 254.17C515.275 260.149 516.243 266.738 515.598 273.938H452.29C452.29 275.036 452.29 276.195 452.29 277.416C452.29 285.47 453.646 292.73 456.356 299.198C459.197 305.665 463.197 310.79 468.36 314.573C473.651 318.234 480.039 320.064 487.526 320.064C493.722 320.064 499.142 318.417 503.788 315.122C508.565 311.705 511.791 307.251 513.468 301.76L516.178 302.309C514.63 310.973 510.564 317.99 503.982 323.359C497.529 328.728 489.85 331.413 480.944 331.413ZM452.678 268.813H499.53C499.916 263.688 499.207 258.929 497.4 254.536C495.721 250.021 493.205 246.421 489.85 243.736C486.623 240.93 482.686 239.526 478.04 239.526C470.553 239.526 464.682 242.15 460.422 247.397C456.293 252.644 453.711 259.783 452.678 268.813ZM640.709 201.82V199.258H681.559V201.82C677.042 201.82 673.236 203.285 670.138 206.213C667.039 209.142 664.007 214.145 661.037 221.222L613.799 331.596H611.09L563.269 221.039C560.302 214.084 557.204 209.142 553.978 206.213C550.751 203.285 546.685 201.82 541.782 201.82V199.258H597.343V201.82C588.697 201.82 583.212 203.163 580.887 205.847C578.566 208.532 578.823 213.108 581.661 219.575L619.028 307.068L655.812 219.575C658.65 213.108 658.91 208.532 656.586 205.847C654.392 203.163 649.099 201.82 640.709 201.82ZM689.709 331.596C682.354 331.596 676.092 329.399 670.929 325.006C665.898 320.613 663.379 314.878 663.379 307.8C663.379 299.014 666.543 291.876 672.865 286.385C679.318 280.894 689.387 277.538 703.067 276.318L719.329 274.67V266.433C719.329 258.136 717.33 251.607 713.33 246.848C709.458 241.967 704.101 239.526 697.259 239.526C692.097 239.526 688.03 240.564 685.063 242.638C682.094 244.591 680.095 247.031 679.061 249.96C678.159 252.766 678.028 255.512 678.673 258.197C679.707 261.857 679.513 264.603 678.093 266.433C676.674 268.264 674.801 269.301 672.479 269.545C670.415 269.911 668.348 269.484 666.283 268.264C664.347 266.921 663.379 264.481 663.379 260.942C663.379 257.159 664.735 253.254 667.445 249.228C670.155 245.079 674.221 241.601 679.641 238.794C685.192 235.866 692.034 234.401 700.163 234.401C711.394 234.401 720.04 237.391 726.105 243.37C732.301 249.228 735.399 257.22 735.399 267.349V315.854C735.399 318.173 735.916 320.003 736.947 321.345C738.109 322.566 739.529 323.176 741.207 323.176C744.046 323.176 746.693 321.162 749.146 317.135L751.467 318.051C749.014 323.298 746.242 326.898 743.143 328.85C740.045 330.68 737.076 331.596 734.237 331.596C730.882 331.596 727.718 330.436 724.751 328.118C721.782 325.799 720.106 322.383 719.717 317.868L719.523 308.716C716.685 316.159 712.619 321.833 707.327 325.738C702.165 329.643 696.291 331.596 689.709 331.596ZM680.029 303.407C680.029 309.143 681.771 313.536 685.258 316.586C688.741 319.637 692.936 321.162 697.842 321.162C702.359 321.162 706.422 319.637 710.037 316.586C713.781 313.414 716.879 309.204 719.329 303.957V279.795L704.423 281.626C696.163 282.48 690.032 284.92 686.031 288.947C682.031 292.852 680.029 297.672 680.029 303.407ZM775.46 314.573C775.46 318.356 776.428 321.101 778.364 322.81C780.3 324.518 783.784 325.677 788.818 326.287V328.85H746.032V326.287C751.066 325.677 754.553 324.518 756.489 322.81C758.425 321.101 759.393 318.356 759.393 314.573V217.745C759.393 212.864 758.359 209.813 756.295 208.593C754.359 207.25 750.938 206.945 746.032 207.677V205.115L772.751 196.512H775.46V314.573ZM876.453 331.596C872.192 331.596 868.578 330.253 865.611 327.569C862.77 324.762 861.35 321.284 861.35 317.135V310.18C855.802 317.379 850.317 322.749 844.894 326.287C839.603 329.826 833.924 331.596 827.859 331.596C818.824 331.596 811.854 328.85 806.948 323.359C802.174 317.868 799.787 310.485 799.787 301.211V255.634C799.787 250.631 798.753 247.519 796.688 246.299C794.752 244.957 791.332 244.713 786.429 245.567V243.004L813.144 234.401H815.854V299.381C815.854 306.092 817.662 311.156 821.277 314.573C824.889 317.99 829.729 319.698 835.797 319.698C840.7 319.698 845.023 318.6 848.766 316.403C852.638 314.085 856.77 310.485 861.156 305.604V255.634C861.156 250.631 860.125 247.519 858.061 246.299C856.125 244.957 852.704 244.713 847.798 245.567V243.004L874.517 234.401H877.227V315.854C877.227 318.173 877.743 320.003 878.774 321.345C879.936 322.566 881.356 323.176 883.035 323.176C885.744 323.176 888.326 321.162 890.779 317.135L893.294 318.051C890.713 323.664 887.809 327.325 884.582 329.033C881.356 330.741 878.646 331.596 876.453 331.596ZM939.572 331.413C929.892 331.413 921.631 329.338 914.789 325.189C908.079 321.04 902.916 315.427 899.301 308.35C895.818 301.272 894.076 293.462 894.076 284.92C894.076 274.914 895.946 266.128 899.69 258.563C903.562 250.997 908.853 245.079 915.566 240.808C922.405 236.537 930.277 234.401 939.184 234.401C947.316 234.401 954.092 236.232 959.512 239.893C964.934 243.431 968.869 248.19 971.322 254.17C973.903 260.149 974.871 266.738 974.226 273.938H910.917C910.917 275.036 910.917 276.195 910.917 277.416C910.917 285.47 912.274 292.73 914.984 299.198C917.825 305.665 921.825 310.79 926.988 314.573C932.279 318.234 938.667 320.064 946.154 320.064C952.35 320.064 957.77 318.417 962.416 315.122C967.193 311.705 970.419 307.251 972.096 301.76L974.805 302.309C973.258 310.973 969.192 317.99 962.61 323.359C956.156 328.728 948.478 331.413 939.572 331.413ZM911.306 268.813H958.158C958.544 263.688 957.835 258.929 956.028 254.536C954.349 250.021 951.833 246.421 948.478 243.736C945.251 240.93 941.314 239.526 936.668 239.526C929.181 239.526 923.31 242.15 919.05 247.397C914.921 252.644 912.339 259.783 911.306 268.813Z" fill="black"/>
<path d="M998.814 214.322C998.433 213.091 998.115 212.371 997.195 212.01C998.466 211.62 999.356 210.539 999.356 209.158C999.356 207.416 997.989 206.095 995.353 206.095H991.256V216.814H993.099V212.611H994.78C996.051 212.611 996.527 213.241 996.908 214.322C997.195 215.223 997.384 216.184 997.831 216.814H999.736V216.694C999.26 215.944 999.131 215.283 998.814 214.322ZM982.968 211.53C982.968 205.134 988.493 200.15 995.131 200.15C1001.77 200.15 1007.29 205.134 1007.29 211.53C1007.29 218.046 1001.77 223.03 995.131 223.03C988.493 223.03 982.968 218.046 982.968 211.53ZM984.904 211.53C984.904 217.145 989.477 221.469 995.131 221.469C1000.75 221.469 1005.33 217.145 1005.33 211.53C1005.33 206.095 1000.75 201.711 995.131 201.711C989.446 201.711 984.904 206.065 984.904 211.53ZM993.099 211.2V207.566H995.227C996.815 207.566 997.543 208.257 997.543 209.308C997.543 210.389 996.686 211.2 995.29 211.2H993.099Z" fill="black"/>
<defs>
<linearGradient id="paint0_linear_2081_10550" x1="524.5" y1="0" x2="524.5" y2="530" gradientUnits="userSpaceOnUse">
<stop offset="0.354585" stop-color="#F8F5F3"/>
<stop offset="1" stop-color="#D4D8FF"/>
</linearGradient>
</defs>
</svg>
