<svg width="100" height="33" viewBox="0 0 100 33" fill="none" xmlns="http://www.w3.org/2000/svg">
<path d="M97.8783 27.4598C97.8783 27.8231 97.8073 28.1829 97.6695 28.5186C97.5316 28.8542 97.3295 29.1591 97.0748 29.4159C96.8201 29.6727 96.5177 29.8763 96.185 30.015C95.8523 30.1538 95.4957 30.2251 95.1357 30.2247H5.38243C4.65497 30.2254 3.957 29.9346 3.44201 29.4161C2.92702 28.8976 2.63718 28.1939 2.63623 27.4598V5.41093C2.63718 4.67648 2.9269 3.97242 3.44179 3.45336C3.95668 2.93429 4.65465 2.64265 5.38243 2.64246H95.135C95.4952 2.64246 95.8519 2.71407 96.1847 2.85321C96.5175 2.99235 96.8199 3.19628 97.0745 3.45337C97.3292 3.71045 97.5312 4.01565 97.669 4.35154C97.8068 4.68742 97.8777 5.0474 97.8776 5.41093L97.8783 27.4598Z" fill="white"/>
<path d="M95.1361 30.8679H5.38285C4.48671 30.8677 3.62725 30.5088 2.99304 29.8699C2.35884 29.2309 2.00171 28.3642 2 27.4599L2 5.41168C2.00133 4.50688 2.35823 3.63956 2.99241 2.99997C3.62659 2.36038 4.48627 2.00076 5.38285 2L95.1354 2C96.0319 2.00114 96.8913 2.36089 97.5254 3.00039C98.1595 3.6399 98.5165 4.507 98.5182 5.41168V27.4599C98.5197 29.3397 96.9996 30.8679 95.1361 30.8679Z" fill="#A6A6A6"/>
<path d="M97.8783 27.4598C97.8783 27.8231 97.8073 28.1829 97.6695 28.5186C97.5316 28.8542 97.3295 29.1591 97.0748 29.4159C96.8201 29.6727 96.5177 29.8763 96.185 30.015C95.8523 30.1538 95.4957 30.2251 95.1357 30.2247H5.38243C4.65497 30.2254 3.957 29.9346 3.44201 29.4161C2.92702 28.8976 2.63718 28.1939 2.63623 27.4598V5.41093C2.63718 4.67648 2.9269 3.97242 3.44179 3.45336C3.95668 2.93429 4.65465 2.64265 5.38243 2.64246H95.135C95.4952 2.64246 95.8519 2.71407 96.1847 2.85321C96.5175 2.99235 96.8199 3.19628 97.0745 3.45337C97.3292 3.71045 97.5312 4.01565 97.669 4.35154C97.8068 4.68742 97.8777 5.0474 97.8776 5.41093L97.8783 27.4598Z" fill="black"/>
<path d="M95.1361 2H47.0615L65.8915 30.8679H95.1361C96.0324 30.8672 96.8919 30.5077 97.526 29.8685C98.1602 29.2292 98.5172 28.3622 98.5189 27.4577V5.41168C98.5174 4.50694 98.1605 3.63973 97.5263 3.00018C96.8922 2.36064 96.0326 2.00095 95.1361 2Z" fill="url(#paint0_linear_2063_7213)"/>
<path d="M34.3412 11.7391C33.917 11.7391 33.5501 11.7182 33.2446 11.6828V7.03812C33.6718 6.97152 34.1035 6.93869 34.5358 6.93994C36.2848 6.93994 37.0903 7.80838 37.0903 9.22402C37.0903 10.857 36.1389 11.7391 34.3412 11.7391ZM34.5973 7.53551C34.3613 7.53551 34.1603 7.54994 33.9936 7.58459V11.1154C34.0837 11.1298 34.2568 11.1363 34.5001 11.1363C35.646 11.1363 36.2984 10.478 36.2984 9.24496C36.2984 8.14551 35.7083 7.53551 34.5973 7.53551ZM39.6004 11.7745C38.6147 11.7745 37.9759 11.0317 37.9759 10.0232C37.9759 8.97208 38.6283 8.22275 39.6562 8.22275C40.6277 8.22275 41.2808 8.93021 41.2808 9.96758C41.2808 11.0317 40.6076 11.7745 39.6004 11.7745ZM39.6291 8.77572C39.0875 8.77572 38.7406 9.28683 38.7406 10.0015C38.7406 10.7025 39.0947 11.2136 39.6219 11.2136C40.1491 11.2136 40.5032 10.6671 40.5032 9.98707C40.5032 9.29405 40.1563 8.77572 39.6291 8.77572ZM46.9019 8.29278L45.8468 11.6972H45.1594L44.7223 10.2188C44.6136 9.85716 44.5231 9.49021 44.4512 9.11935H44.4369C44.3818 9.4904 44.2773 9.86218 44.1665 10.2188L43.7015 11.6972H43.0069L42.014 8.29278H42.7844L43.1664 9.91127C43.2566 10.2968 43.3324 10.6606 43.3953 11.0042H43.4096C43.4647 10.7176 43.5549 10.3596 43.6872 9.91849L44.1665 8.2935H44.7774L45.2359 9.88384C45.3468 10.2693 45.4369 10.6476 45.507 11.0049H45.5271C45.5757 10.6548 45.6522 10.283 45.756 9.88384L46.1659 8.2935L46.9019 8.29278ZM50.7862 11.6972H50.0366V9.74234C50.0366 9.14028 49.8077 8.83853 49.3563 8.83853C48.912 8.83853 48.6066 9.22402 48.6066 9.67232V11.6972H47.8569V9.26589C47.8569 8.96486 47.8498 8.64217 47.829 8.29205H48.4886L48.5236 8.81759H48.5444C48.7461 8.45376 49.1553 8.22275 49.6138 8.22275C50.322 8.22275 50.787 8.76923 50.787 9.6586L50.7862 11.6972ZM52.8536 11.6972H52.1032V6.73059H52.8536V11.6972ZM55.5869 11.7745C54.6019 11.7745 53.9624 11.0317 53.9624 10.0232C53.9624 8.97208 54.6148 8.22275 55.642 8.22275C56.6141 8.22275 57.2665 8.93021 57.2665 9.96758C57.2672 11.0317 56.5934 11.7745 55.5869 11.7745ZM55.6148 8.77572C55.0733 8.77572 54.7263 9.28683 54.7263 10.0015C54.7263 10.7025 55.0812 11.2136 55.6069 11.2136C56.1349 11.2136 56.4882 10.6671 56.4882 9.98707C56.489 9.29405 56.1427 8.77572 55.6148 8.77572ZM60.2223 11.6972L60.168 11.3053H60.1479C59.919 11.6207 59.585 11.7745 59.1615 11.7745C58.557 11.7745 58.1278 11.3471 58.1278 10.7725C58.1278 9.9322 58.8496 9.49762 60.0993 9.49762V9.43482C60.0993 8.98652 59.8639 8.76201 59.399 8.76201C59.0663 8.76201 58.7745 8.84647 58.5177 9.01467L58.3653 8.51729C58.6772 8.32093 59.0663 8.22275 59.5234 8.22275C60.4047 8.22275 60.8497 8.69198 60.8497 9.63117V10.8851C60.8497 11.2287 60.8647 11.4951 60.8983 11.698L60.2223 11.6972ZM60.1193 10.0015C59.2867 10.0015 58.8689 10.2051 58.8689 10.688C58.8689 11.0454 59.0842 11.2201 59.3832 11.2201C59.7645 11.2201 60.1193 10.9263 60.1193 10.527V10.0015ZM64.4901 11.6972L64.455 11.1508H64.4343C64.2189 11.5637 63.857 11.7745 63.3512 11.7745C62.5379 11.7745 61.9356 11.0526 61.9356 10.0369C61.9356 8.97208 62.5601 8.22203 63.4127 8.22203C63.8641 8.22203 64.1839 8.37579 64.3642 8.68477H64.3792V6.73059H65.1296V10.7797C65.1296 11.1089 65.1374 11.4171 65.1575 11.6972H64.4901ZM64.3792 9.69398C64.3792 9.21752 64.0666 8.8111 63.5894 8.8111C63.0336 8.8111 62.6938 9.30848 62.6938 10.0087C62.6938 10.6952 63.0465 11.1652 63.5744 11.1652C64.0458 11.1652 64.3792 10.7516 64.3792 10.2614V9.69398ZM69.8873 11.7745C68.9023 11.7745 68.2635 11.0317 68.2635 10.0232C68.2635 8.97208 68.9159 8.22275 69.9431 8.22275C70.9153 8.22275 71.5676 8.93021 71.5676 9.96758C71.5684 11.0317 70.8952 11.7745 69.8873 11.7745ZM69.9152 8.77572C69.3744 8.77572 69.0275 9.28683 69.0275 10.0015C69.0275 10.7025 69.3816 11.2136 69.9081 11.2136C70.436 11.2136 70.7894 10.6671 70.7894 9.98707C70.7908 9.29405 70.4438 8.77572 69.9152 8.77572ZM75.5993 11.6972H74.8489V9.74234C74.8489 9.14028 74.62 8.83853 74.1686 8.83853C73.7244 8.83853 73.4197 9.22402 73.4197 9.67232V11.6972H72.6693V9.26589C72.6693 8.96486 72.6621 8.64217 72.6414 8.29205H73.3009L73.336 8.81759H73.3567C73.5577 8.45376 73.9676 8.22203 74.4254 8.22203C75.1336 8.22203 75.5993 8.76851 75.5993 9.65788V11.6972ZM80.6432 8.86019H79.8184V10.5133C79.8184 10.9342 79.9629 11.1443 80.2548 11.1443C80.3871 11.1443 80.498 11.1298 80.5874 11.1089L80.6081 11.6835C80.4629 11.7398 80.2683 11.768 80.0266 11.768C79.4357 11.768 79.0823 11.4388 79.0823 10.5769V8.86019H78.5902V8.29278H79.0823V7.66906L79.8184 7.44455V8.29205H80.6432V8.86019ZM84.6119 11.6972H83.8629V9.75678C83.8629 9.1475 83.6348 8.83925 83.1827 8.83925C82.7942 8.83925 82.4323 9.10563 82.4323 9.64489V11.6972H81.6833V6.73059H82.4323V8.77572H82.4473C82.6833 8.40467 83.0253 8.22203 83.4616 8.22203C84.1755 8.22203 84.6119 8.78222 84.6119 9.67232V11.6972ZM88.6779 10.1769H86.4282C86.4425 10.8216 86.8652 11.1854 87.4912 11.1854C87.8238 11.1854 88.13 11.1291 88.4004 11.0244L88.517 11.55C88.1979 11.69 87.8224 11.76 87.3853 11.76C86.3302 11.76 85.7057 11.0872 85.7057 10.0441C85.7057 9.00023 86.3452 8.21553 87.3009 8.21553C88.1629 8.21553 88.7037 8.86019 88.7037 9.83402C88.7085 9.94895 88.6999 10.0641 88.6779 10.1769ZM87.9905 9.63767C87.9905 9.11213 87.7279 8.74107 87.2487 8.74107C86.818 8.74107 86.4775 9.11935 86.4289 9.63767H87.9905Z" fill="white"/>
<path d="M50.6984 17.7034C50.1226 17.7062 49.5604 17.8824 49.083 18.2098C48.6055 18.5372 48.2341 19.0012 48.0156 19.5432C47.7971 20.0851 47.7414 20.6808 47.8554 21.2549C47.9694 21.8291 48.248 22.356 48.6561 22.7693C49.0643 23.1825 49.5836 23.4634 50.1486 23.5767C50.7135 23.69 51.2988 23.6305 51.8306 23.4057C52.3623 23.1809 52.8167 22.8009 53.1363 22.3137C53.456 21.8264 53.6265 21.2538 53.6266 20.668C53.6321 20.276 53.5601 19.8868 53.4148 19.5236C53.2694 19.1604 53.0537 18.8307 52.7805 18.5541C52.5073 18.2775 52.1822 18.0596 51.8245 17.9134C51.4668 17.7673 51.0838 17.6959 50.6984 17.7034ZM50.6984 22.4678C50.3443 22.493 49.9909 22.4092 49.6841 22.2274C49.3774 22.0455 49.1316 21.7741 48.9785 21.4482C48.8255 21.1224 48.7724 20.7572 48.8261 20.4003C48.8798 20.0433 49.0378 19.711 49.2796 19.4466C49.5213 19.1822 49.8357 18.9979 50.1819 18.9177C50.528 18.8375 50.8898 18.865 51.2204 18.9967C51.5509 19.1285 51.8349 19.3583 52.0353 19.6564C52.2357 19.9544 52.3433 20.3069 52.3442 20.668C52.3552 20.8969 52.3211 21.1256 52.2439 21.3408C52.1666 21.556 52.0478 21.7533 51.8944 21.921C51.7411 22.0887 51.5562 22.2235 51.3508 22.3174C51.1454 22.4113 50.9235 22.4625 50.6984 22.4678ZM44.3141 17.7034C43.7379 17.7048 43.1751 17.8798 42.6968 18.2064C42.2184 18.533 41.8459 18.9965 41.6264 19.5383C41.4068 20.0802 41.3501 20.6761 41.4633 21.2507C41.5765 21.8253 41.8547 22.3529 42.2625 22.7668C42.6704 23.1807 43.1897 23.4624 43.7549 23.5762C44.32 23.6901 44.9057 23.6309 45.4378 23.4063C45.9699 23.1818 46.4247 22.8018 46.7447 22.3144C47.0646 21.827 47.2354 21.2541 47.2354 20.668C47.2409 20.276 47.1689 19.8868 47.0236 19.5236C46.8782 19.1604 46.6625 18.8307 46.3893 18.5541C46.1161 18.2775 45.791 18.0596 45.4333 17.9134C45.0756 17.7673 44.6926 17.6959 44.3072 17.7034H44.3141ZM44.3141 22.4678C43.9598 22.4944 43.6058 22.4119 43.2982 22.231C42.9906 22.0501 42.7437 21.7792 42.5896 21.4536C42.4355 21.1279 42.3814 20.7627 42.4342 20.4053C42.487 20.0479 42.6444 19.715 42.8859 19.4499C43.1273 19.1848 43.4416 18.9997 43.7879 18.9189C44.1341 18.838 44.4963 18.865 44.8272 18.9965C45.1582 19.1279 45.4426 19.3576 45.6434 19.6558C45.8441 19.9539 45.952 20.3067 45.953 20.668C45.964 20.8969 45.9299 21.1256 45.8527 21.3408C45.7755 21.556 45.6566 21.7533 45.5032 21.921C45.3499 22.0887 45.165 22.2235 44.9596 22.3174C44.7542 22.4113 44.5323 22.4625 44.3072 22.4678H44.3141ZM36.7091 18.6172V19.8728H39.6715C39.6251 20.4642 39.3834 21.0223 38.9858 21.4563C38.6894 21.7634 38.3331 22.004 37.9398 22.1625C37.5465 22.3211 37.125 22.3942 36.7022 22.3771C35.8292 22.3771 34.992 22.0243 34.3747 21.3964C33.7574 20.7685 33.4106 19.9168 33.4106 19.0288C33.4106 18.1407 33.7574 17.2891 34.3747 16.6612C34.992 16.0332 35.8292 15.6805 36.7022 15.6805C37.5373 15.6666 38.3438 15.9902 38.9446 16.5803L39.8155 15.6944C39.4099 15.2766 38.9259 14.9458 38.3923 14.7218C37.8587 14.4977 37.2863 14.3849 36.7091 14.39C36.0995 14.3658 35.4913 14.4671 34.9211 14.6878C34.3508 14.9085 33.8303 15.244 33.3906 15.6742C32.9509 16.1044 32.6011 16.6205 32.3621 17.1915C32.1232 17.7625 32 18.3768 32 18.9974C32 19.618 32.1232 20.2322 32.3621 20.8032C32.6011 21.3743 32.9509 21.8904 33.3906 22.3206C33.8303 22.7508 34.3508 23.0863 34.9211 23.307C35.4913 23.5276 36.0995 23.6289 36.7091 23.6048C37.2961 23.6318 37.8819 23.5306 38.4272 23.308C38.9725 23.0854 39.4646 22.7465 39.8704 22.3143C40.5888 21.5113 40.9724 20.4558 40.9402 19.3706C40.9424 19.1062 40.9194 18.8422 40.8716 18.5823L36.7091 18.6172ZM67.7804 19.5938C67.6016 19.0586 67.2672 18.5912 66.8214 18.2537C66.3757 17.9161 65.8397 17.7242 65.2843 17.7034C64.9092 17.7026 64.5379 17.7802 64.1934 17.9312C63.849 18.0822 63.5386 18.3034 63.2815 18.5813C63.0244 18.8592 62.8261 19.1877 62.6988 19.5466C62.5715 19.9055 62.5179 20.2872 62.5413 20.668C62.533 21.0579 62.602 21.4455 62.7442 21.8077C62.8864 22.1698 63.0989 22.4991 63.369 22.7758C63.6392 23.0525 63.9613 23.271 64.3163 23.4182C64.6713 23.5655 65.0518 23.6384 65.4352 23.6327C65.9149 23.6353 66.3877 23.5169 66.8113 23.288C67.235 23.0592 67.5962 22.727 67.8627 22.3213L66.8684 21.6237C66.72 21.8754 66.5099 22.0835 66.2587 22.2278C66.0074 22.3721 65.7237 22.4476 65.4352 22.4468C65.1381 22.4584 64.8446 22.3787 64.5926 22.2182C64.3407 22.0577 64.142 21.8238 64.0225 21.547L67.9245 19.9077L67.7804 19.5938ZM63.8031 20.5843C63.7892 20.3686 63.8178 20.1522 63.8871 19.9478C63.9565 19.7434 64.0652 19.5551 64.207 19.394C64.3487 19.2329 64.5207 19.1022 64.7128 19.0095C64.9048 18.9169 65.1131 18.8641 65.3255 18.8544C65.5467 18.8396 65.7673 18.8911 65.9599 19.0028C66.1525 19.1144 66.3087 19.2811 66.4089 19.4822L63.8031 20.5843ZM60.6349 23.4583H61.9173V14.7387H60.6349V23.4583ZM58.5365 18.3661H58.4885C58.2953 18.1463 58.0585 17.9705 57.7938 17.8503C57.5291 17.7301 57.2423 17.6681 56.9524 17.6685C56.203 17.7055 55.4964 18.0343 54.9788 18.5869C54.4613 19.1395 54.1726 19.8734 54.1726 20.6367C54.1726 21.3999 54.4613 22.1338 54.9788 22.6864C55.4964 23.239 56.203 23.5678 56.9524 23.6048C57.243 23.6098 57.5312 23.5499 57.7966 23.4294C58.062 23.3088 58.2981 23.1306 58.4885 22.9072H58.5297V23.3327C58.5297 24.4698 57.9331 25.0767 56.973 25.0767C56.6533 25.069 56.343 24.9648 56.0816 24.7772C55.8203 24.5897 55.6197 24.3272 55.5055 24.0233L54.3877 24.4977C54.5981 25.0183 54.9567 25.4631 55.4173 25.7751C55.8779 26.0871 56.4196 26.2519 56.973 26.2486C58.4748 26.2486 59.716 25.3487 59.716 23.1584V17.8778H58.5365V18.3661ZM57.069 22.4678C56.6267 22.4281 56.215 22.2213 55.9151 21.8882C55.6152 21.5551 55.4488 21.1198 55.4488 20.668C55.4488 20.2163 55.6152 19.781 55.9151 19.4479C56.215 19.1148 56.6267 18.908 57.069 18.8683C57.2883 18.8798 57.5032 18.9358 57.7009 19.033C57.8986 19.1302 58.0752 19.2667 58.2203 19.4344C58.3654 19.6021 58.476 19.7977 58.5456 20.0095C58.6152 20.2214 58.6424 20.4453 58.6257 20.668C58.6444 20.8917 58.6183 21.117 58.549 21.3301C58.4797 21.5433 58.3686 21.7399 58.2224 21.9082C58.0763 22.0764 57.8981 22.2127 57.6987 22.3089C57.4992 22.4051 57.2827 22.4591 57.0622 22.4678H57.069ZM73.7876 14.7387H70.7223V23.4583H72.0047V20.1518H73.7945C74.1599 20.1786 74.5269 20.1284 74.8725 20.0045C75.2181 19.8806 75.5348 19.6855 75.803 19.4316C76.0713 19.1777 76.2852 18.8702 76.4314 18.5285C76.5777 18.1868 76.6532 17.818 76.6532 17.4453C76.6532 17.0726 76.5777 16.7038 76.4314 16.3621C76.2852 16.0204 76.0713 15.7129 75.803 15.459C75.5348 15.205 75.2181 15.01 74.8725 14.8861C74.5269 14.7622 74.1599 14.712 73.7945 14.7387H73.7876ZM73.7876 18.9241H71.9978V15.9525H73.815C74.2052 15.9525 74.5793 16.1102 74.8552 16.3908C75.131 16.6714 75.286 17.0519 75.286 17.4488C75.286 17.8456 75.131 18.2262 74.8552 18.5068C74.5793 18.7874 74.2052 18.9451 73.815 18.9451L73.7876 18.9241ZM81.6943 17.6685C81.2275 17.6401 80.7626 17.7511 80.357 17.9878C79.9513 18.2245 79.6224 18.5766 79.4108 19.0009L80.5491 19.4822C80.6614 19.2718 80.8313 19.0991 81.0383 18.9851C81.2453 18.8712 81.4803 18.8209 81.7149 18.8404C81.8777 18.8211 82.0426 18.8349 82.2001 18.8811C82.3576 18.9273 82.5044 19.0049 82.6321 19.1095C82.7598 19.214 82.8657 19.3434 82.9437 19.49C83.0217 19.6366 83.0702 19.7976 83.0864 19.9635V20.0542C82.6745 19.8324 82.2152 19.7174 81.7492 19.7194C80.5217 19.7194 79.2805 20.4169 79.2805 21.6795C79.2926 21.9487 79.3576 22.2127 79.4718 22.4559C79.5859 22.6991 79.7469 22.9166 79.9451 23.0954C80.1433 23.2743 80.3747 23.4109 80.6257 23.4972C80.8766 23.5835 81.1421 23.6177 81.4063 23.5978C81.7292 23.6214 82.0525 23.5561 82.342 23.4088C82.6316 23.2616 82.8769 23.0377 83.0521 22.7607H83.0932V23.4583H84.3276V20.103C84.3276 18.5753 83.1893 17.6894 81.7286 17.6894L81.6943 17.6685ZM81.5366 22.4468C81.1183 22.4468 80.5354 22.2306 80.5354 21.7074C80.5354 21.0099 81.2623 20.7797 81.9069 20.7797C82.3143 20.7694 82.7169 20.8706 83.0727 21.0726C83.0298 21.4503 82.8542 21.7995 82.5782 22.0558C82.3023 22.3122 81.9445 22.4585 81.5709 22.4678L81.5366 22.4468ZM88.8261 17.8778L87.3586 21.6586H87.3175L85.7951 17.8778H84.4236L86.7072 23.1653L85.4042 26.1021H86.7414L90.2525 17.8778H88.8261ZM77.2987 23.4583H78.581V14.7387H77.2987V23.4583Z" fill="white"/>
<path d="M11.1304 7.7909C10.9069 8.06372 10.7941 8.41298 10.815 8.76749V24.1976C10.7941 24.5521 10.9069 24.9014 11.1304 25.1742L11.1784 25.223L19.6749 16.5872V16.3849L11.1784 7.74207L11.1304 7.7909Z" fill="url(#paint1_linear_2063_7213)"/>
<path d="M22.4864 19.4681L19.6748 16.5872V16.3849L22.4864 13.4969L22.5481 13.5318L25.9151 15.478C26.8752 16.0291 26.8752 16.9359 25.9151 17.494L22.5618 19.4332L22.4864 19.4681Z" fill="url(#paint2_linear_2063_7213)"/>
<path d="M22.5687 19.4264L19.6748 16.4827L11.1304 25.1743C11.3261 25.3493 11.5757 25.4493 11.8361 25.4569C12.0966 25.4645 12.3515 25.3794 12.5567 25.2162L22.5755 19.4264" fill="url(#paint3_linear_2063_7213)"/>
<path d="M22.5682 13.5389L12.5494 7.74913C12.3441 7.58591 12.0892 7.50077 11.8288 7.50841C11.5684 7.51605 11.3187 7.616 11.123 7.79099L19.6744 16.4826L22.5682 13.5389Z" fill="url(#paint4_linear_2063_7213)"/>
<path opacity="0.2" d="M22.4864 19.3636L12.5499 25.1186C12.3519 25.2691 12.1113 25.3505 11.8641 25.3505C11.6169 25.3505 11.3764 25.2691 11.1784 25.1186L11.1304 25.1674L11.1784 25.2162C11.3759 25.3679 11.6166 25.4499 11.8641 25.4499C12.1116 25.4499 12.3523 25.3679 12.5499 25.2162L22.5687 19.4264L22.4864 19.3636Z" fill="black"/>
<path opacity="0.12" d="M11.1304 25.0767C10.9069 24.8038 10.7941 24.4546 10.815 24.1001V24.2047C10.7941 24.5592 10.9069 24.9085 11.1304 25.1813L11.1784 25.1325L11.1304 25.0767ZM25.9152 17.3895L22.4864 19.3636L22.5481 19.4264L25.9152 17.4872C26.1062 17.3959 26.2702 17.2549 26.3906 17.0786C26.511 16.9022 26.5836 16.6967 26.6009 16.4827C26.5624 16.6771 26.4805 16.8599 26.3616 17.0171C26.2427 17.1743 26.09 17.3017 25.9152 17.3895Z" fill="black"/>
<path opacity="0.25" d="M12.6617 7.71464L26.027 15.4437C26.2018 15.5314 26.3546 15.6588 26.4735 15.816C26.5923 15.9732 26.6742 16.1561 26.7128 16.3505C26.6954 16.1365 26.6229 15.931 26.5025 15.7546C26.3821 15.5782 26.2181 15.4373 26.027 15.346L12.6617 7.61698C11.7017 7.0659 10.9199 7.5263 10.9199 8.6424V8.74703C10.9405 7.62395 11.7085 7.16356 12.6617 7.71464Z" fill="white"/>
<defs>
<linearGradient id="paint0_linear_2063_7213" x1="72.7894" y1="30.9446" x2="72.7894" y2="-73.1671" gradientUnits="userSpaceOnUse">
<stop stop-color="#1A1A1A" stop-opacity="0.1"/>
<stop offset="0.123" stop-color="#212121" stop-opacity="0.151"/>
<stop offset="0.308" stop-color="#353535" stop-opacity="0.227"/>
<stop offset="0.532" stop-color="#575757" stop-opacity="0.318"/>
<stop offset="0.783" stop-color="#858585" stop-opacity="0.421"/>
<stop offset="1" stop-color="#B3B3B3" stop-opacity="0.51"/>
</linearGradient>
<linearGradient id="paint1_linear_2063_7213" x1="18.9205" y1="8.60705" x2="7.2171" y2="20.1123" gradientUnits="userSpaceOnUse">
<stop stop-color="#00A0FF"/>
<stop offset="0.01" stop-color="#00A1FF"/>
<stop offset="0.26" stop-color="#00BEFF"/>
<stop offset="0.51" stop-color="#00D2FF"/>
<stop offset="0.76" stop-color="#00DFFF"/>
<stop offset="1" stop-color="#00E3FF"/>
</linearGradient>
<linearGradient id="paint2_linear_2063_7213" x1="27.1701" y1="16.4825" x2="10.5818" y2="16.4825" gradientUnits="userSpaceOnUse">
<stop stop-color="#FFE000"/>
<stop offset="0.41" stop-color="#FFBD00"/>
<stop offset="0.78" stop-color="#FFA500"/>
<stop offset="1" stop-color="#FF9C00"/>
</linearGradient>
<linearGradient id="paint3_linear_2063_7213" x1="20.9983" y1="18.0871" x2="5.12419" y2="33.6855" gradientUnits="userSpaceOnUse">
<stop stop-color="#FF3A44"/>
<stop offset="1" stop-color="#C31162"/>
</linearGradient>
<linearGradient id="paint4_linear_2063_7213" x1="8.97665" y1="2.65691" x2="16.0629" y2="9.62312" gradientUnits="userSpaceOnUse">
<stop stop-color="#32A071"/>
<stop offset="0.07" stop-color="#2DA771"/>
<stop offset="0.48" stop-color="#15CF74"/>
<stop offset="0.8" stop-color="#06E775"/>
<stop offset="1" stop-color="#00F076"/>
</linearGradient>
</defs>
</svg>
