<svg width="16" height="16" viewBox="0 0 16 16" fill="none" xmlns="http://www.w3.org/2000/svg">
<path d="M8.5 8.29004L10 9.79492L9.29492 10.5L7.5 8.70508V5.5H8.5V8.29004Z" fill="#1E1E1E"/>
<path fill-rule="evenodd" clip-rule="evenodd" d="M6.92725 3.10547C7.99406 2.89332 9.10007 3.00221 10.105 3.41846C11.1099 3.83475 11.9689 4.5399 12.5732 5.44434C13.1776 6.34879 13.5 7.41222 13.5 8.5C13.5 9.95869 12.9206 11.3577 11.8892 12.3892C10.8577 13.4206 9.45869 14 8 14C6.91222 14 5.84879 13.6776 4.94434 13.0732C4.0399 12.4689 3.33475 11.6099 2.91846 10.605C2.50221 9.60007 2.39332 8.49406 2.60547 7.42725C2.81769 6.36035 3.34165 5.38003 4.11084 4.61084C4.88003 3.84165 5.86035 3.31769 6.92725 3.10547ZM8 4C7.11002 4 6.24 4.26387 5.5 4.7583C4.76003 5.25273 4.18338 5.95563 3.84277 6.77783C3.50218 7.6001 3.41279 8.50502 3.58643 9.37793C3.76006 10.2508 4.18854 11.0528 4.81787 11.6821C5.4472 12.3115 6.24916 12.7399 7.12207 12.9136C7.99498 13.0872 8.8999 12.9978 9.72217 12.6572C10.5444 12.3166 11.2473 11.74 11.7417 11C12.2361 10.26 12.5 9.38998 12.5 8.5C12.5 7.30653 12.026 6.16178 11.1821 5.31787C10.3382 4.47396 9.19347 4 8 4Z" fill="#1E1E1E"/>
<path d="M4.49854 2.70801L2.70801 4.50244L2 3.7959L3.79102 2.00146L4.49854 2.70801Z" fill="#1E1E1E"/>
<path d="M13.998 3.7915L13.2905 4.49805L11.5 2.70361L12.2075 1.99707L13.998 3.7915Z" fill="#1E1E1E"/>
</svg>
