<svg width="32" height="32" viewBox="0 0 32 32" fill="none" xmlns="http://www.w3.org/2000/svg">
<path d="M28.1002 18.9L13.1002 3.9C10.6002 1.3 6.5002 1.3 3.9002 3.8C1.3002 6.3 1.3002 10.5 3.9002 13L4.0002 13.1L6.8002 16L8.20019 14.6L5.3002 11.7C3.6002 10 3.6002 7.1 5.3002 5.4C7.0002 3.7 9.9002 3.6 11.6002 5.3C11.6002 5.3 11.6002 5.3 11.7002 5.4L26.6002 20.3C28.4002 22 28.4002 24.9 26.7002 26.6C25.0002 28.4 22.1002 28.4 20.4002 26.7C20.4002 26.7 20.4002 26.7 20.3002 26.6L12.9002 19.2C11.9002 18.2 12.0002 16.6 12.9002 15.7C13.9002 14.8 15.4002 14.8 16.4002 15.7L20.5002 19.8L21.9002 18.4L17.7002 14.2C15.9002 12.5 13.1002 12.6 11.4002 14.4C9.8002 16.1 9.8002 18.8 11.4002 20.6L18.9002 28.1C21.4002 30.7 25.5002 30.7 28.1002 28.2C30.7002 25.7 30.7002 21.5 28.1002 18.9Z" fill="#1E1E1E"/>
</svg>
