<svg width="16" height="16" viewBox="0 0 16 16" fill="none" xmlns="http://www.w3.org/2000/svg">
<path fill-rule="evenodd" clip-rule="evenodd" d="M12 7.5C12.0891 7.499 12.1786 7.52171 12.2583 7.56836L15.2524 9.31836C15.4058 9.40795 15.5 9.57229 15.5 9.75V13.25C15.5 13.4277 15.4058 13.592 15.2524 13.6816L12.2583 15.4316C12.1803 15.4773 12.0871 15.5 12 15.5C11.9131 15.5 11.8321 15.4773 11.7544 15.4321L8.74854 13.6821C8.59474 13.5925 8.5 13.428 8.5 13.25V9.75C8.50002 9.57202 8.59475 9.40746 8.74854 9.31787L11.7544 7.56787C11.8304 7.52377 11.9151 7.501 12 7.5ZM12.5 11.7905V14.1323L14.5 12.9634V10.6216L12.5 11.7905ZM9.5 12.9624L11.5 14.127V11.7842L9.5 10.6196V12.9624ZM9.99365 9.75L12.0054 10.9214L14.0093 9.75L12.0054 8.5791L9.99365 9.75Z" fill="#1E1E1E"/>
<path d="M7 1.5C7.08288 1.5 7.16461 1.51965 7.23828 1.55762C7.31197 1.59561 7.37574 1.65073 7.42383 1.71826L10.4478 6.53418L9.61621 7.08887L7 2.92432L4.10938 7.52832C3.73686 8.12078 3.52653 8.80067 3.5 9.5C3.5 10.4283 3.86853 11.3187 4.5249 11.9751C5.18128 12.6315 6.07174 13 7 13C7.16834 13 7.33532 12.9871 7.5 12.9634V13.9702C7.33473 13.9889 7.16793 13.9998 7 14C5.80699 13.9985 4.66341 13.5238 3.81982 12.6802C2.97624 11.8366 2.50151 10.693 2.5 9.5C2.5269 8.62284 2.78464 7.76831 3.24707 7.02246L6.57617 1.71826C6.62426 1.65073 6.68803 1.59561 6.76172 1.55762C6.83539 1.51965 6.91712 1.5 7 1.5Z" fill="#1E1E1E"/>
<path d="M5.5 9.5C5.53346 9.88659 5.70218 10.2491 5.97656 10.5234C6.25095 10.7978 6.6134 10.9665 7 11V12C6.3474 11.9677 5.73009 11.694 5.26807 11.2319C4.80604 10.7699 4.5323 10.1526 4.5 9.5H5.5Z" fill="#1E1E1E"/>
</svg>
