<svg width="32" height="32" viewBox="0 0 32 32" fill="none" xmlns="http://www.w3.org/2000/svg">
<path d="M17 14V18H21V20H17V24H15V20H11V18H15V14H17Z" fill="#1E1E1E"/>
<path fill-rule="evenodd" clip-rule="evenodd" d="M20 4C20.5304 4 21.039 4.21086 21.4141 4.58594C21.7891 4.96101 22 5.46957 22 6V10H28C28.5304 10 29.039 10.2109 29.4141 10.5859C29.7891 10.961 30 11.4696 30 12V26C30 26.5304 29.7891 27.039 29.4141 27.4141C29.039 27.7891 28.5304 28 28 28H4C3.46957 28 2.96101 27.7891 2.58594 27.4141C2.21086 27.039 2 26.5304 2 26V12C2 11.4696 2.21086 10.961 2.58594 10.5859C2.96101 10.2109 3.46957 10 4 10H10V6C10 5.46957 10.2109 4.96101 10.5859 4.58594C10.961 4.21086 11.4696 4 12 4H20ZM4 12V26H28V12H4ZM12 6V10H20V6H12Z" fill="#1E1E1E"/>
</svg>
