<svg width="32" height="32" viewBox="0 0 32 32" fill="none" xmlns="http://www.w3.org/2000/svg">
<path d="M22 22V24H14V22H22Z" fill="#1E1E1E"/>
<path d="M22 17H14V15H22V17Z" fill="#1E1E1E"/>
<path d="M22 10H14V8H22V10Z" fill="#1E1E1E"/>
<path fill-rule="evenodd" clip-rule="evenodd" d="M26 2C26.5304 2 27.039 2.21086 27.4141 2.58594C27.7891 2.96101 28 3.46957 28 4V28C28 28.5304 27.7891 29.039 27.4141 29.4141C27.039 29.7891 26.5304 30 26 30H8C7.46957 30 6.96101 29.7891 6.58594 29.4141C6.21086 29.039 6 28.5304 6 28V24H4V22H6V17H4V15H6V10H4V8H6V4C6 3.46957 6.21086 2.96101 6.58594 2.58594C6.96101 2.21086 7.46957 2 8 2H26ZM8 8H10V10H8V15H10V17H8V22H10V24H8V28H26V4H8V8Z" fill="#1E1E1E"/>
</svg>
