<svg width="17" height="16" viewBox="0 0 17 16" fill="none" xmlns="http://www.w3.org/2000/svg">
<path d="M9.00037 7V13.085L10.2953 11.7949L11.0004 12.5L8.50037 15L6.00037 12.5L6.70544 11.7949L8.00037 13.085V7H9.00037ZM8.50037 1.01367C9.52975 1.01376 10.5279 1.36662 11.3285 2.01367C12.1292 2.66092 12.6839 3.56357 12.8998 4.57031C13.6842 4.73571 14.3798 5.18492 14.8529 5.83203C15.326 6.47939 15.5439 7.2794 15.4633 8.07715C15.3826 8.87483 15.0094 9.61475 14.4164 10.1543C13.8234 10.6937 13.0519 10.9948 12.2504 11H12.0004V10H12.2504C12.847 10.0238 13.4288 9.80929 13.8676 9.4043C14.3062 8.99924 14.5663 8.43645 14.5902 7.83984C14.614 7.24316 14.3995 6.66145 13.9945 6.22266C13.5894 5.78387 13.0267 5.52389 12.4301 5.5H12.0004L11.9496 5.08984C11.8386 4.24821 11.4257 3.47574 10.7875 2.91602C10.1491 2.35624 9.32891 2.04688 8.47986 2.04688C7.63085 2.0469 6.8106 2.35626 6.17224 2.91602C5.53405 3.47574 5.12108 4.24825 5.01013 5.08984L5.00037 5.5H4.5697C3.97307 5.52394 3.41027 5.78389 3.00525 6.22266C2.60024 6.66144 2.38573 7.24319 2.40955 7.83984C2.43341 8.4364 2.6936 8.99925 3.1322 9.4043C3.57104 9.80938 4.15363 10.0239 4.75037 10H5.00037V11H4.75037C3.9486 10.9949 3.17645 10.6938 2.58337 10.1543C1.99035 9.61477 1.61817 8.8748 1.53748 8.07715C1.45683 7.2794 1.67375 6.47939 2.14685 5.83203C2.61994 5.18489 3.31559 4.73573 4.09998 4.57031C4.31583 3.56357 4.87053 2.66092 5.67126 2.01367C6.47198 1.36648 7.47079 1.01367 8.50037 1.01367Z" fill="white"/>
</svg>
