<svg width="25" height="24" viewBox="0 0 25 24" fill="none" xmlns="http://www.w3.org/2000/svg">
<path d="M8 10.5C8.39782 10.5 8.77924 10.6581 9.06055 10.9395C9.34185 11.2208 9.5 11.6022 9.5 12V19.5C9.5 19.8978 9.34185 20.2792 9.06055 20.5605C8.77924 20.8419 8.39782 21 8 21H5C4.60218 21 4.22076 20.8419 3.93945 20.5605C3.65815 20.2792 3.5 19.8978 3.5 19.5V12C3.5 11.6022 3.65815 11.2208 3.93945 10.9395C4.22076 10.6581 4.60218 10.5 5 10.5H8ZM20 10.5C20.3978 10.5 20.7792 10.6581 21.0605 10.9395C21.3419 11.2208 21.5 11.6022 21.5 12V19.5C21.5 19.8978 21.3419 20.2792 21.0605 20.5605C20.7792 20.8419 20.3978 21 20 21H12.5C12.1022 21 11.7208 20.8419 11.4395 20.5605C11.1581 20.2792 11 19.8978 11 19.5V12C11 11.6022 11.1581 11.2208 11.4395 10.9395C11.7208 10.6581 12.1022 10.5 12.5 10.5H20ZM5 19.5H8V12H5V19.5ZM12.5 12V19.5H20V12H12.5ZM20 3C20.3978 3 20.7792 3.15815 21.0605 3.43945C21.3419 3.72076 21.5 4.10218 21.5 4.5V7.5C21.5 7.89782 21.3419 8.27924 21.0605 8.56055C20.7792 8.84185 20.3978 9 20 9H5C4.60218 9 4.22076 8.84185 3.93945 8.56055C3.65815 8.27924 3.5 7.89782 3.5 7.5V4.5C3.5 4.10218 3.65815 3.72076 3.93945 3.43945C4.22076 3.15815 4.60218 3 5 3H20ZM5 7.5H20V4.5H5V7.5Z" fill="white"/>
</svg>
