<svg width="15" height="15" viewBox="0 0 15 15" fill="none" xmlns="http://www.w3.org/2000/svg">
<path d="M13.075 8.48134L5.575 0.981342C4.325 -0.318658 2.275 -0.318658 0.975 0.931342C-0.325 2.18134 -0.325 4.28134 0.975 5.53134L1.025 5.58134L2.425 7.03134L3.125 6.33134L1.675 4.88134C0.825 4.03134 0.825 2.58134 1.675 1.73134C2.525 0.881342 3.975 0.831342 4.825 1.68134C4.825 1.68134 4.825 1.68134 4.875 1.73134L12.325 9.18134C13.225 10.0313 13.225 11.4813 12.375 12.3313C11.525 13.2313 10.075 13.2313 9.225 12.3813C9.225 12.3813 9.225 12.3813 9.175 12.3313L5.475 8.63134C4.975 8.13134 5.025 7.33134 5.475 6.88134C5.975 6.43134 6.725 6.43134 7.225 6.88134L9.275 8.93134L9.975 8.23134L7.875 6.13134C6.975 5.28134 5.575 5.33134 4.725 6.23134C3.925 7.08134 3.925 8.43134 4.725 9.33134L8.475 13.0813C9.725 14.3813 11.775 14.3813 13.075 13.1313C14.375 11.8813 14.375 9.78134 13.075 8.48134Z" fill="white"/>
</svg>
