<svg width="17" height="16" viewBox="0 0 17 16" fill="none" xmlns="http://www.w3.org/2000/svg">
<path d="M8.3335 1.5C8.41638 1.5 8.49811 1.51965 8.57178 1.55762C8.64546 1.59561 8.70924 1.65073 8.75732 1.71826L12.0718 6.99658C12.5421 7.74923 12.8048 8.61297 12.8335 9.5C12.832 10.693 12.3573 11.8366 11.5137 12.6802C10.6701 13.5238 9.5265 13.9985 8.3335 14C7.14049 13.9985 5.99691 13.5238 5.15332 12.6802C4.30974 11.8366 3.83501 10.693 3.8335 9.5C3.86039 8.62284 4.11813 7.76831 4.58057 7.02246L7.90967 1.71826C7.95775 1.65073 8.02153 1.59561 8.09521 1.55762C8.16888 1.51965 8.25062 1.5 8.3335 1.5ZM5.44287 7.52832C5.07036 8.12078 4.86003 8.80067 4.8335 9.5C4.8335 10.4283 5.20202 11.3187 5.8584 11.9751C6.51478 12.6315 7.40524 13 8.3335 13C9.26175 13 10.1522 12.6315 10.8086 11.9751C11.465 11.3187 11.8335 10.4283 11.8335 9.5C11.805 8.79082 11.5897 8.10176 11.2095 7.50244L8.3335 2.92432L5.44287 7.52832ZM10.8335 9.5C10.8012 10.1526 10.5275 10.7699 10.0654 11.2319C9.60341 11.694 8.9861 11.9677 8.3335 12V11C8.72009 10.9665 9.08255 10.7978 9.35693 10.5234C9.63132 10.2491 9.80004 9.88659 9.8335 9.5H10.8335Z" fill="#1E1E1E"/>
</svg>
