<svg width="32" height="32" viewBox="0 0 32 32" fill="none" xmlns="http://www.w3.org/2000/svg">
<path d="M18 23C19.3256 23.0016 20.5968 23.5285 21.5342 24.4658C22.4715 25.4032 22.9984 26.6744 23 28V30H21V28C20.9991 27.2046 20.6825 26.4423 20.1201 25.8799C19.5577 25.3175 18.7954 25.0009 18 25H14C13.2046 25.0009 12.4423 25.3175 11.8799 25.8799C11.3175 26.4423 11.0009 27.2046 11 28V30H9V28C9.00156 26.6744 9.52848 25.4032 10.4658 24.4658C11.4032 23.5285 12.6744 23.0016 14 23H18Z" fill="#1E1E1E"/>
<path d="M8 16H6C5.20462 16.0009 4.4423 16.3175 3.87988 16.8799C3.31746 17.4423 3.00087 18.2046 3 19V23H1V19C1.00156 17.6744 1.52848 16.4032 2.46582 15.4658C3.40316 14.5285 4.6744 14.0016 6 14H8V16Z" fill="#1E1E1E"/>
<path d="M26 14C27.3256 14.0015 28.5968 14.5285 29.5342 15.4658C30.4715 16.4032 30.9985 17.6744 31 19V23H29V19C28.9991 18.2046 28.6825 17.4423 28.1201 16.8799C27.5577 16.3175 26.7954 16.0009 26 16H24V14H26Z" fill="#1E1E1E"/>
<path fill-rule="evenodd" clip-rule="evenodd" d="M16 11C17.3261 11 18.5975 11.5272 19.5352 12.4648C20.4728 13.4025 21 14.6739 21 16C21 16.9889 20.7066 17.9561 20.1572 18.7783C19.6078 19.6004 18.8266 20.2408 17.9131 20.6191C16.9995 20.9975 15.9943 21.0972 15.0244 20.9043C14.0545 20.7114 13.1641 20.2344 12.4648 19.5352C11.7656 18.8359 11.2886 17.9455 11.0957 16.9756C10.9028 16.0057 11.0025 15.0005 11.3809 14.0869C11.7592 13.1734 12.3996 12.3922 13.2217 11.8428C14.0439 11.2934 15.0111 11 16 11ZM16 13C15.2044 13 14.4415 13.3163 13.8789 13.8789C13.3163 14.4415 13 15.2044 13 16C13 16.5933 13.1762 17.1736 13.5059 17.667C13.8354 18.1601 14.3037 18.5444 14.8516 18.7715C15.3996 18.9985 16.0031 19.0581 16.585 18.9424C17.1669 18.8266 17.7015 18.5407 18.1211 18.1211C18.5407 17.7015 18.8266 17.1669 18.9424 16.585C19.0581 16.0031 18.9985 15.3996 18.7715 14.8516C18.5444 14.3037 18.1601 13.8354 17.667 13.5059C17.1736 13.1762 16.5933 13 16 13Z" fill="#1E1E1E"/>
<path fill-rule="evenodd" clip-rule="evenodd" d="M8 2C9.32608 2 10.5975 2.52716 11.5352 3.46484C12.4728 4.40253 13 5.67392 13 7C13 7.98891 12.7066 8.95607 12.1572 9.77832C11.6078 10.6004 10.8266 11.2408 9.91309 11.6191C8.99951 11.9975 7.99425 12.0972 7.02441 11.9043C6.05453 11.7114 5.16409 11.2344 4.46484 10.5352C3.7656 9.83591 3.28864 8.94547 3.0957 7.97559C2.90279 7.00575 3.00249 6.00049 3.38086 5.08691C3.75924 4.17342 4.39962 3.39217 5.22168 2.84277C6.04392 2.29337 7.01109 2 8 2ZM8 4C7.20435 4 6.44151 4.3163 5.87891 4.87891C5.3163 5.44152 5 6.20435 5 7C5 7.59334 5.17622 8.17364 5.50586 8.66699C5.83541 9.16007 6.30367 9.54445 6.85156 9.77148C7.39964 9.99851 8.00311 10.0581 8.58496 9.94238C9.1669 9.82663 9.70154 9.54065 10.1211 9.12109C10.5407 8.70154 10.8266 8.1669 10.9424 7.58496C11.0581 7.00311 10.9985 6.39965 10.7715 5.85156C10.5444 5.30367 10.1601 4.83542 9.66699 4.50586C9.17365 4.17622 8.59334 4 8 4Z" fill="#1E1E1E"/>
<path fill-rule="evenodd" clip-rule="evenodd" d="M24 2C25.3261 2 26.5975 2.52716 27.5352 3.46484C28.4728 4.40253 29 5.67392 29 7C29 7.98891 28.7066 8.95607 28.1572 9.77832C27.6078 10.6004 26.8266 11.2408 25.9131 11.6191C24.9995 11.9975 23.9942 12.0972 23.0244 11.9043C22.0545 11.7114 21.1641 11.2344 20.4648 10.5352C19.7656 9.83591 19.2886 8.94547 19.0957 7.97559C18.9028 7.00575 19.0025 6.00049 19.3809 5.08691C19.7592 4.17343 20.3996 3.39217 21.2217 2.84277C22.0439 2.29337 23.0111 2 24 2ZM24 4C23.2044 4 22.4415 4.3163 21.8789 4.87891C21.3163 5.44152 21 6.20435 21 7C21 7.59334 21.1762 8.17364 21.5059 8.66699C21.8354 9.16007 22.3037 9.54445 22.8516 9.77148C23.3996 9.99851 24.0031 10.0581 24.585 9.94238C25.1669 9.82663 25.7015 9.54065 26.1211 9.12109C26.5407 8.70154 26.8266 8.1669 26.9424 7.58496C27.0581 7.00311 26.9985 6.39965 26.7715 5.85156C26.5444 5.30367 26.1601 4.83542 25.667 4.50586C25.1736 4.17622 24.5933 4 24 4Z" fill="#1E1E1E"/>
</svg>
