<svg width="16" height="16" viewBox="0 0 16 16" fill="none" xmlns="http://www.w3.org/2000/svg">
<path d="M8.02914 0.98822C9.25592 0.993345 10.46 1.32098 11.5204 1.93793C12.5807 2.55487 13.4604 3.43943 14.0711 4.50336C14.6818 5.56731 15.0019 6.77317 14.9998 7.99994C14.9994 9.21708 14.6811 10.4131 14.076 11.4692C13.4709 12.5253 12.6 13.405 11.5501 14.0209L11.5423 14.0995C11.5184 14.3466 11.4031 14.5761 11.2191 14.7426C11.0351 14.9091 10.7953 15.0007 10.5472 14.9999H5.45248C5.20424 15.0007 4.96463 14.9087 4.78061 14.7421C4.59659 14.5755 4.48118 14.3462 4.45737 14.0991L4.44955 14.0209C3.39239 13.3988 2.51735 12.5097 1.91196 11.4428C1.30654 10.3758 0.992161 9.16811 1.00033 7.94134C1.00854 6.71471 1.33885 5.51181 1.95834 4.45306C2.57793 3.39423 3.46512 2.5167 4.53061 1.90863C5.59604 1.30062 6.80245 0.983113 8.02914 0.98822ZM5.05258 9.99994L5.45248 13.9999H10.5472L10.9476 9.99994H5.05258ZM2.05991 8.83881C2.27885 10.3801 3.08985 11.7756 4.32065 12.7289L4.03012 9.82367L2.05991 8.83881ZM11.9701 9.82416L11.6795 12.7289C12.9102 11.7756 13.7213 10.3801 13.9403 8.83881L11.9701 9.82416ZM7.99985 1.99994C6.4618 2.00072 4.98288 2.59268 3.86899 3.65326C2.75504 4.71392 2.09154 6.16241 2.01547 7.69867L4.61801 8.99994H11.3817L13.9852 7.69867C13.9091 6.16237 13.2452 4.71393 12.1312 3.65326C11.0172 2.5926 9.53802 2.00062 7.99985 1.99994ZM5.74985 5.49994C6.08137 5.49994 6.3997 5.63173 6.63412 5.86615C6.86844 6.10054 6.99983 6.4185 6.99985 6.74994C6.99985 6.9971 6.92668 7.23875 6.7894 7.44427C6.65206 7.64982 6.45675 7.81011 6.22836 7.90472C5.99997 7.99933 5.74865 8.02423 5.50619 7.97601C5.26372 7.92778 5.04087 7.80854 4.86606 7.63373C4.69136 7.45899 4.57251 7.23641 4.52426 6.99408C4.47603 6.7516 4.50045 6.49983 4.59506 6.27142C4.68966 6.04313 4.85005 5.84819 5.05551 5.71088C5.26103 5.57355 5.50267 5.49997 5.74985 5.49994ZM10.2498 5.49994C10.5814 5.49994 10.8997 5.63173 11.1341 5.86615C11.3684 6.10054 11.4998 6.4185 11.4998 6.74994C11.4998 6.9971 11.4267 7.23875 11.2894 7.44427C11.1521 7.64982 10.9567 7.81011 10.7284 7.90472C10.5 7.99933 10.2487 8.02423 10.0062 7.97601C9.76372 7.92778 9.54087 7.80854 9.36606 7.63373C9.19136 7.45899 9.07251 7.23641 9.02426 6.99408C8.97603 6.7516 9.00045 6.49983 9.09506 6.27142C9.18966 6.04313 9.35005 5.84819 9.55551 5.71088C9.76103 5.57355 10.0027 5.49997 10.2498 5.49994Z" fill="#1E1E1E"/>
</svg>
