<svg width="17" height="16" viewBox="0 0 17 16" fill="none" xmlns="http://www.w3.org/2000/svg">
<path d="M9.66665 2V3H12.9596L9.1154 6.84425C8.30897 6.21769 7.29405 5.92207 6.2773 6.01757C5.26055 6.11307 4.31843 6.59251 3.64278 7.35828C2.96713 8.12404 2.60875 9.11854 2.64063 10.1393C2.6725 11.16 3.09223 12.1302 3.81435 12.8523C4.53646 13.5744 5.50666 13.9941 6.52739 14.026C7.54811 14.0579 8.54261 13.6995 9.30837 13.0239C10.0741 12.3482 10.5536 11.4061 10.6491 10.3893C10.7446 9.3726 10.449 8.35768 9.8224 7.55125L13.6667 3.70705V7H14.6667V2H9.66665ZM6.66665 13C6.07331 13 5.49329 12.8241 4.99994 12.4944C4.50659 12.1648 4.12208 11.6962 3.89501 11.1481C3.66795 10.5999 3.60854 9.99667 3.7243 9.41473C3.84005 8.83279 4.12577 8.29824 4.54533 7.87868C4.96489 7.45912 5.49944 7.1734 6.08138 7.05764C6.66332 6.94189 7.26652 7.0013 7.8147 7.22836C8.36288 7.45542 8.83142 7.83994 9.16106 8.33329C9.4907 8.82664 9.66665 9.40666 9.66665 10C9.66578 10.7954 9.34943 11.5579 8.78701 12.1204C8.22459 12.6828 7.46203 12.9991 6.66665 13Z" fill="#1E1E1E"/>
</svg>
