<svg width="32" height="32" viewBox="0 0 32 32" fill="none" xmlns="http://www.w3.org/2000/svg">
<path d="M17 19.9307C19.0191 19.6763 20.8653 18.6621 22.1628 17.0944C23.4604 15.5267 24.1117 13.5235 23.9843 11.4925C23.8569 9.46147 22.9602 7.55536 21.4769 6.16218C19.9935 4.769 18.035 3.99347 16 3.99347C13.965 3.99347 12.0065 4.769 10.5231 6.16218C9.0398 7.55536 8.14315 9.46147 8.01571 11.4925C7.88828 13.5235 8.53963 15.5267 9.83719 17.0944C11.1347 18.6621 12.981 19.6763 15 19.9307V22H10V24H15V28H17V24H22V22H17V19.9307ZM10 12C10 10.8133 10.3519 9.6533 11.0112 8.6666C11.6705 7.67991 12.6076 6.91087 13.7039 6.45675C14.8003 6.00262 16.0067 5.8838 17.1706 6.11531C18.3344 6.34682 19.4035 6.91827 20.2427 7.75738C21.0818 8.5965 21.6532 9.6656 21.8847 10.8295C22.1162 11.9934 21.9974 13.1998 21.5433 14.2961C21.0892 15.3925 20.3201 16.3296 19.3334 16.9888C18.3467 17.6481 17.1867 18 16 18C14.4092 17.9983 12.8841 17.3656 11.7593 16.2407C10.6345 15.1159 10.0018 13.5908 10 12Z" fill="#1E1E1E"/>
</svg>
