<svg width="32" height="32" viewBox="0 0 32 32" fill="none" xmlns="http://www.w3.org/2000/svg">
<path d="M24 2C24.5302 2.00061 25.0381 2.21197 25.4131 2.58691C25.788 2.96185 25.9994 3.46975 26 4V10H28C28.5302 10.0006 29.0381 10.212 29.4131 10.5869C29.788 10.9619 29.9994 11.4698 30 12V30H2V12C2.00061 11.4698 2.21197 10.9619 2.58691 10.5869C2.96185 10.212 3.46975 10.0006 4 10H6V4C6.00061 3.46975 6.21197 2.96185 6.58691 2.58691C6.96185 2.21197 7.46975 2.00061 8 2H24ZM8 4V12H4V28H12V21C12 20.7348 12.1054 20.4805 12.293 20.293C12.4805 20.1054 12.7348 20 13 20H19C19.2652 20 19.5195 20.1054 19.707 20.293C19.8946 20.4805 20 20.7348 20 21V28H28V12H24V4H8ZM14 22V28H18V22H14ZM17 6V10H21V12H17V16H15V12H11V10H15V6H17Z" fill="#1E1E1E"/>
</svg>
