<svg width="32" height="32" viewBox="0 0 32 32" fill="none" xmlns="http://www.w3.org/2000/svg">
<path d="M23 18C23.7956 18 24.5585 18.3163 25.1211 18.8789C25.6837 19.4415 26 20.2044 26 21V23H24V21C24 20.7348 23.8946 20.4805 23.707 20.293C23.5195 20.1054 23.2652 20 23 20H17C16.7348 20 16.4805 20.1054 16.293 20.293C16.1054 20.4805 16 20.7348 16 21V23H14V21C14 20.2044 14.3163 19.4415 14.8789 18.8789C15.4415 18.3163 16.2044 18 17 18H23Z" fill="#1E1E1E"/>
<path fill-rule="evenodd" clip-rule="evenodd" d="M18.4697 9.30469C19.2005 9.00205 20.0045 8.92284 20.7803 9.07715C21.5562 9.23149 22.2687 9.61247 22.8281 10.1719C23.3875 10.7313 23.7685 11.4438 23.9229 12.2197C24.0772 12.9955 23.9979 13.7995 23.6953 14.5303C23.3926 15.2611 22.8804 15.8867 22.2227 16.3262C21.5649 16.7657 20.7911 17 20 17C18.9391 17 17.922 16.5783 17.1719 15.8281C16.4217 15.078 16 14.0609 16 13C16 12.2089 16.2343 11.4351 16.6738 10.7773C17.1133 10.1196 17.7389 9.60742 18.4697 9.30469ZM20 11C19.4696 11 18.961 11.2109 18.5859 11.5859C18.2109 11.961 18 12.4696 18 13C18 13.3956 18.1172 13.7824 18.3369 14.1113C18.5566 14.4401 18.8691 14.6963 19.2344 14.8477C19.5998 14.999 20.0027 15.0391 20.3906 14.9619C20.7784 14.8847 21.1344 14.6937 21.4141 14.4141C21.6937 14.1344 21.8847 13.7784 21.9619 13.3906C22.0391 13.0027 21.999 12.5998 21.8477 12.2344C21.6963 11.8691 21.4401 11.5566 21.1113 11.3369C20.7824 11.1172 20.3956 11 20 11Z" fill="#1E1E1E"/>
<path d="M10 16H6V14H10V16Z" fill="#1E1E1E"/>
<path d="M13 12H6V10H13V12Z" fill="#1E1E1E"/>
<path fill-rule="evenodd" clip-rule="evenodd" d="M28 4C28.5304 4 29.039 4.21086 29.4141 4.58594C29.7891 4.96101 30 5.46957 30 6V26C30 26.5304 29.7891 27.039 29.4141 27.4141C29.039 27.7891 28.5304 28 28 28H4C3.46957 28 2.96101 27.7891 2.58594 27.4141C2.21086 27.039 2 26.5304 2 26V6C2 5.46957 2.21086 4.96101 2.58594 4.58594C2.96101 4.21086 3.46957 4 4 4H28ZM4 26H28V6H4V26Z" fill="#1E1E1E"/>
</svg>
