<svg width="12" height="12" viewBox="0 0 12 12" fill="none" xmlns="http://www.w3.org/2000/svg">
<path d="M11 0C11.2652 0 11.5195 0.105432 11.707 0.292969C11.8946 0.480505 12 0.734784 12 1V11C12 11.2652 11.8946 11.5195 11.707 11.707C11.5195 11.8946 11.2652 12 11 12H1C0.734784 12 0.480505 11.8946 0.292969 11.707C0.105432 11.5195 0 11.2652 0 11V1C0 0.734784 0.105432 0.480505 0.292969 0.292969C0.480505 0.105432 0.734784 0 1 0H11ZM1 8V11H11V10L8.5 7.5L7.70508 8.29492C7.51772 8.48117 7.26419 8.58594 7 8.58594C6.73581 8.58594 6.48228 8.48117 6.29492 8.29492L3.5 5.5L1 8ZM1 1V6.58496L2.79492 4.79004C2.98228 4.60379 3.23581 4.49902 3.5 4.49902C3.76419 4.49902 4.01772 4.60379 4.20508 4.79004L7 7.58496L7.79492 6.79004C7.98228 6.60379 8.23581 6.49902 8.5 6.49902C8.76419 6.49902 9.01772 6.60379 9.20508 6.79004L11 8.58496V1H1ZM6.92578 2.11426C7.19987 2.00073 7.502 1.97142 7.79297 2.0293C8.08378 2.08723 8.35087 2.22977 8.56055 2.43945C8.77023 2.64913 8.91277 2.91622 8.9707 3.20703C9.02858 3.498 8.99927 3.80013 8.88574 4.07422C8.7722 4.34823 8.57962 4.58229 8.33301 4.74707C8.08637 4.91182 7.7966 5 7.5 5C7.10218 5 6.72076 4.84185 6.43945 4.56055C6.15815 4.27924 6 3.89782 6 3.5C6 3.2034 6.08818 2.91363 6.25293 2.66699C6.41771 2.42038 6.65177 2.2278 6.92578 2.11426ZM7.5 3C7.36739 3 7.24025 3.05272 7.14648 3.14648C7.05272 3.24025 7 3.36739 7 3.5C7 3.59872 7.02923 3.69521 7.08398 3.77734C7.13891 3.85955 7.21726 3.92407 7.30859 3.96191C7.39996 3.99976 7.50067 4.00953 7.59766 3.99023C7.69459 3.97092 7.78362 3.92341 7.85352 3.85352C7.92341 3.78362 7.97092 3.69459 7.99023 3.59766C8.00953 3.50067 7.99976 3.39996 7.96191 3.30859C7.92407 3.21726 7.85955 3.13891 7.77734 3.08398C7.69521 3.02923 7.59872 3 7.5 3Z" fill="white"/>
</svg>
