<svg width="16" height="16" viewBox="0 0 16 16" fill="none" xmlns="http://www.w3.org/2000/svg">
<path d="M15 10.705L11 14.705L8.99996 12.705L9.70503 12L11 13.2949L14.2949 9.99995L15 10.705Z" fill="#1E1E1E"/>
<path d="M6.82955 2.11519C7.9934 1.8837 9.20002 2.00238 10.2963 2.4565C11.3926 2.91061 12.3295 3.67986 12.9887 4.66646C13.648 5.65314 13.9999 6.81328 14 7.99995H13C12.9999 7.01106 12.7066 6.04435 12.1572 5.22212C11.6078 4.39997 10.8271 3.75924 9.91353 3.38081C8.9999 3.00237 7.99428 2.90322 7.02437 3.09614C6.05454 3.28909 5.16353 3.76509 4.46431 4.46431C3.76509 5.16353 3.2891 6.05453 3.09615 7.02437C2.90322 7.99427 3.00238 8.9999 3.38082 9.91353C3.75925 10.827 4.39998 11.6078 5.22212 12.1572C6.04436 12.7066 7.01107 12.9999 7.99996 13V14C6.81328 13.9999 5.65314 13.648 4.66646 12.9887C3.67986 12.3295 2.91061 11.3926 2.4565 10.2963C2.00239 9.20001 1.88371 7.9934 2.11519 6.82954C2.3467 5.66566 2.91817 4.59639 3.75728 3.75728C4.5964 2.91816 5.66566 2.3467 6.82955 2.11519Z" fill="#1E1E1E"/>
<path d="M7.99996 6.99995C8.55223 6.99995 8.99993 7.44769 8.99996 7.99995C8.99996 8.55224 8.55224 8.99995 7.99996 8.99995C7.44769 8.99993 6.99996 8.55222 6.99996 7.99995C6.99998 7.4477 7.44771 6.99998 7.99996 6.99995Z" fill="#1E1E1E"/>
<path fill-rule="evenodd" clip-rule="evenodd" d="M7.41451 5.05757C7.99642 4.94182 8.59975 5.00143 9.14791 5.22847C9.69608 5.45553 10.1649 5.8401 10.4946 6.33345C10.8241 6.82674 10.9999 7.4067 11 7.99995C10.9991 8.79533 10.683 9.55814 10.1206 10.1206C9.55814 10.683 8.79534 10.9991 7.99996 11C7.40671 10.9999 6.82675 10.8241 6.33345 10.4946C5.8401 10.1649 5.45553 9.69608 5.22847 9.1479C5.00144 8.59975 4.94182 7.99642 5.05757 7.4145C5.17335 6.83264 5.45935 6.29837 5.87886 5.87886C6.29837 5.45935 6.83264 5.17335 7.41451 5.05757ZM7.99996 5.99995C7.60441 5.99996 7.21751 6.11711 6.88863 6.33687C6.55976 6.55663 6.30366 6.86939 6.1523 7.23482C6.00098 7.60021 5.96139 8.0022 6.03853 8.39009C6.1157 8.77803 6.30621 9.13432 6.58589 9.41401C6.86559 9.69371 7.22187 9.8842 7.60982 9.96138C7.99778 10.0385 8.40013 9.99898 8.76558 9.84761C9.13091 9.69623 9.44333 9.44008 9.66304 9.11128C9.8828 8.78238 9.99996 8.39551 9.99996 7.99995C9.99935 7.46972 9.78846 6.96131 9.41353 6.58638C9.03859 6.21146 8.53019 6.00055 7.99996 5.99995Z" fill="#1E1E1E"/>
</svg>
