<svg width="32" height="32" viewBox="0 0 32 32" fill="none" xmlns="http://www.w3.org/2000/svg">
<path d="M16.9994 21.9996H19.9994V23.9996H11.9994V21.9996H14.9994V15.9996H12.9994V13.9996H16.9994V21.9996Z" fill="#1E1E1E"/>
<path d="M15.9994 7.99962C16.3972 7.99962 16.7796 8.15777 17.0609 8.43907C17.342 8.72028 17.4993 9.10198 17.4994 9.49962C17.4994 9.79628 17.4122 10.0869 17.2474 10.3336C17.0826 10.5803 16.8477 10.7718 16.5736 10.8854C16.2996 10.9989 15.9983 11.0291 15.7074 10.9713C15.4165 10.9134 15.1486 10.7709 14.9388 10.5611C14.7291 10.3514 14.5866 10.0836 14.5287 9.79259C14.4708 9.50179 14.5003 9.20034 14.6136 8.92638C14.7272 8.65229 14.9197 8.41737 15.1664 8.25255C15.4129 8.08784 15.7029 7.9997 15.9994 7.99962Z" fill="#1E1E1E"/>
<path fill-rule="evenodd" clip-rule="evenodd" d="M13.2689 2.26915C15.9845 1.72906 18.7997 2.00645 21.3578 3.06603C23.9157 4.12568 26.1018 5.92014 27.64 8.22228C29.1783 10.5245 29.9993 13.2308 29.9994 15.9996C29.9994 19.7127 28.5243 23.2735 25.8988 25.899C23.2733 28.5245 19.7124 29.9996 15.9994 29.9996C13.2306 29.9995 10.5242 29.1785 8.22203 27.6402C5.91989 26.102 4.12544 23.916 3.06578 21.358C2.0062 18.8 1.72881 15.9848 2.26891 13.2692C2.8091 10.5534 4.14203 8.05814 6.09996 6.10021C8.0579 4.14227 10.5532 2.80935 13.2689 2.26915ZM15.9994 3.99962C13.6263 3.9997 11.3065 4.70377 9.33336 6.02208C7.35999 7.34065 5.82169 9.21514 4.91344 11.4078C4.00519 13.6005 3.7678 16.0136 4.23082 18.3414C4.69386 20.6689 5.8361 22.8069 7.51403 24.485C9.19221 26.1632 11.3309 27.3061 13.6586 27.7692C15.9863 28.2322 18.3994 27.9948 20.5921 27.0865C22.7848 26.1783 24.6584 24.6399 25.9769 22.6666C27.2955 20.6932 27.9994 18.373 27.9994 15.9996C27.9993 12.8172 26.7351 9.76461 24.4847 7.51427C22.2343 5.26408 19.1818 3.99962 15.9994 3.99962Z" fill="#1E1E1E"/>
</svg>
