<svg width="32" height="32" viewBox="0 0 32 32" fill="none" xmlns="http://www.w3.org/2000/svg">
<path d="M22 2C22.5303 2.00056 23.0391 2.21099 23.4141 2.58594C23.789 2.96089 23.9994 3.46974 24 4V14H22V4H6V28H12V30H6C5.46974 29.9994 4.96089 29.789 4.58594 29.4141C4.21099 29.0391 4.00056 28.5303 4 28V4C4.00056 3.46974 4.21099 2.96089 4.58594 2.58594C4.96089 2.21099 5.46974 2.00056 6 2H22Z" fill="#1E1E1E"/>
<path fill-rule="evenodd" clip-rule="evenodd" d="M26 16C26.1313 16 26.2615 16.0259 26.3828 16.0762C26.5041 16.1265 26.6143 16.2001 26.707 16.293L29.707 19.293C29.7999 19.3857 29.8736 19.4959 29.9238 19.6172C29.9741 19.7385 30 19.8687 30 20C30 20.1313 29.9741 20.2615 29.9238 20.3828C29.8735 20.5041 29.7999 20.6143 29.707 20.707L20.4141 30H16V25.5859L25.293 16.293C25.3857 16.2001 25.4959 16.1265 25.6172 16.0762C25.7385 16.0259 25.8687 16 26 16ZM18 26.4141V28H19.5859L24.5859 23L23 21.4141L18 26.4141ZM24.4141 20L26 21.5859L27.5859 20L26 18.4141L24.4141 20Z" fill="#1E1E1E"/>
<path d="M14 16H8V14H14V16Z" fill="#1E1E1E"/>
<path d="M20 12H8V10H20V12Z" fill="#1E1E1E"/>
<path d="M20 8H8V6H20V8Z" fill="#1E1E1E"/>
</svg>
