<svg width="20" height="22" viewBox="0 0 20 22" fill="none" xmlns="http://www.w3.org/2000/svg">
<path d="M19.2803 13.7197L17.25 11.6894V9C17.2476 7.14146 16.5561 5.34983 15.3093 3.97154C14.0626 2.59326 12.349 1.72622 10.5 1.5381V0H9V1.5381C7.15101 1.72622 5.43744 2.59326 4.19065 3.97154C2.94386 5.34983 2.25241 7.14146 2.25 9V11.6894L0.219675 13.7197C0.0790405 13.8604 2.25872e-05 14.0511 0 14.25V16.5C0 16.6989 0.0790176 16.8897 0.21967 17.0303C0.360322 17.171 0.551088 17.25 0.75 17.25H6V17.8326C5.98374 18.784 6.31913 19.708 6.94191 20.4275C7.56469 21.147 8.43106 21.6113 9.375 21.7316C9.89636 21.7834 10.4228 21.7254 10.9204 21.5615C11.418 21.3975 11.8758 21.1313 12.2643 20.7798C12.6529 20.4283 12.9635 19.9994 13.1763 19.5207C13.3891 19.0419 13.4994 18.5239 13.5 18V17.25H18.75C18.9489 17.25 19.1397 17.171 19.2803 17.0303C19.421 16.8897 19.5 16.6989 19.5 16.5V14.25C19.5 14.0511 19.421 13.8604 19.2803 13.7197ZM12 18C12 18.5967 11.7629 19.169 11.341 19.591C10.919 20.0129 10.3467 20.25 9.75 20.25C9.15326 20.25 8.58097 20.0129 8.15901 19.591C7.73705 19.169 7.5 18.5967 7.5 18V17.25H12V18ZM18 15.75H1.5V14.5606L3.53025 12.5302C3.67091 12.3896 3.74996 12.1989 3.75 12V9C3.75 7.4087 4.38214 5.88258 5.50736 4.75736C6.63258 3.63214 8.1587 3 9.75 3C11.3413 3 12.8674 3.63214 13.9926 4.75736C15.1179 5.88258 15.75 7.4087 15.75 9V12C15.75 12.1989 15.8291 12.3896 15.9697 12.5302L18 14.5606V15.75Z" fill="black"/>
</svg>
