<svg width="20" height="20" viewBox="0 0 20 20" fill="none" xmlns="http://www.w3.org/2000/svg">
<path d="M13.75 5H13.125V1.25H11.875V5H8.125V1.25H6.875V5H6.25C5.91848 5 5.60054 5.1317 5.36612 5.36612C5.1317 5.60054 5 5.91848 5 6.25V10C5.00197 11.2169 5.44724 12.3913 6.25249 13.3036C7.05774 14.2159 8.16781 14.8036 9.375 14.9567V18.75H10.625V14.9567C11.8322 14.8036 12.9423 14.2159 13.7475 13.3036C14.5528 12.3913 14.998 11.2169 15 10V6.25C15 5.91848 14.8683 5.60054 14.6339 5.36612C14.3995 5.1317 14.0815 5 13.75 5ZM13.75 10C13.75 10.9946 13.3549 11.9484 12.6517 12.6517C11.9484 13.3549 10.9946 13.75 10 13.75C9.00544 13.75 8.05161 13.3549 7.34835 12.6517C6.64509 11.9484 6.25 10.9946 6.25 10V6.25H13.75V10Z" fill="white"/>
</svg>
