<svg width="16" height="16" viewBox="0 0 16 16" fill="none" xmlns="http://www.w3.org/2000/svg">
<path d="M5 13H3V11H5V13Z" fill="white"/>
<path fill-rule="evenodd" clip-rule="evenodd" d="M7 15H1V9H7V15ZM2 14H6V10H2V14Z" fill="white"/>
<path d="M10 14H11V15H9V13H10V14Z" fill="white"/>
<path d="M15 15H13V14H14V13H15V15Z" fill="white"/>
<path d="M13 14H12V13H13V14Z" fill="white"/>
<path d="M12 13H10V12H11V10H12V13Z" fill="white"/>
<path d="M14 13H13V11H14V13Z" fill="white"/>
<path d="M10 12H9V11H10V12Z" fill="white"/>
<path d="M15 11H14V10H13V9H15V11Z" fill="white"/>
<path d="M11 10H9V9H11V10Z" fill="white"/>
<path d="M5 5H3V3H5V5Z" fill="white"/>
<path fill-rule="evenodd" clip-rule="evenodd" d="M7 7H1V1H7V7ZM2 6H6V2H2V6Z" fill="white"/>
<path d="M13 5H11V3H13V5Z" fill="white"/>
<path fill-rule="evenodd" clip-rule="evenodd" d="M15 7H9V1H15V7ZM10 6H14V2H10V6Z" fill="white"/>
</svg>
