<svg width="17" height="16" viewBox="0 0 17 16" fill="none" xmlns="http://www.w3.org/2000/svg">
<path d="M3 8.0001C2.99996 9.1857 3.38319 10.3395 4.09229 11.2896C4.80147 12.2399 5.79883 12.9357 6.93555 13.273C8.07216 13.6103 9.2873 13.5713 10.3999 13.1617C11.5125 12.7521 12.4632 11.9939 13.1099 11.0001H10.5V10.0001H14.5V14.0001H13.5V12.1598C12.6455 13.1884 11.4946 13.9288 10.2041 14.2794C8.91371 14.63 7.5465 14.5741 6.28907 14.1192C5.03156 13.6644 3.94478 12.8325 3.17725 11.7374C2.40975 10.6424 1.99866 9.3373 2 8.0001H3ZM6.7959 1.7208C8.08634 1.37022 9.45346 1.4261 10.7109 1.88095C11.9684 2.33583 13.0552 3.16731 13.8228 4.2623C14.5903 5.35736 15.0014 6.66284 15 8.0001H14C14.0001 6.81439 13.6169 5.6603 12.9077 4.71006C12.1985 3.75982 11.2012 3.06396 10.0645 2.72666C8.92783 2.38943 7.71271 2.4289 6.6001 2.83847C5.4874 3.2481 4.53681 4.00626 3.89014 5.0001H6.5V6.0001H2.5V2.00009H3.5V3.83994C4.35446 2.81129 5.50544 2.07139 6.7959 1.7208Z" fill="white"/>
</svg>
