<svg width="24" height="24" viewBox="0 0 24 24" fill="none" xmlns="http://www.w3.org/2000/svg">
<path d="M3 21H7.5V22.5H1.5V16.5H3V21ZM22.5 22.5H16.5V21H21V16.5H22.5V22.5ZM7.5 16.5H16.5V14.25H18V16.5C18 16.8978 17.8418 17.2793 17.5605 17.5605C17.2792 17.8418 16.8978 18 16.5 18H7.5C7.1022 18 6.72075 17.8418 6.43945 17.5605C6.15817 17.2793 6.00002 16.8978 6 16.5V14.25H7.5V16.5ZM22.5 12.75H1.5V11.25H22.5V12.75ZM16.5 6C16.8978 6 17.2792 6.15815 17.5605 6.43945C17.8418 6.72075 18 7.1022 18 7.5V9.75H16.5V7.5H7.5V9.75H6V7.5C6 7.1022 6.15818 6.72075 6.43945 6.43945C6.72076 6.15815 7.10218 6 7.5 6H16.5ZM7.5 3H3V7.5H1.5V1.5H7.5V3ZM22.5 7.5H21V3H16.5V1.5H22.5V7.5Z" fill="black"/>
</svg>
