<svg width="24" height="24" viewBox="0 0 24 24" fill="none" xmlns="http://www.w3.org/2000/svg">
<path d="M13.7396 1.52975C14.0916 1.52301 14.4351 1.64079 14.7093 1.86154C14.9834 2.08228 15.171 2.39234 15.2396 2.73752L15.6219 4.62717C15.9615 4.79264 16.2902 4.9806 16.6048 5.18967L18.4271 4.57517C18.5819 4.52425 18.7445 4.49848 18.9075 4.49973C19.1704 4.50005 19.4285 4.56966 19.6561 4.70114C19.8837 4.83274 20.0731 5.02202 20.2047 5.24973L21.9749 8.24973C22.1606 8.55092 22.2336 8.9083 22.1814 9.25827C22.1293 9.60824 21.9554 9.92885 21.69 10.1628L20.2501 11.4226V12.5703L21.6673 13.8674C21.9289 14.0968 22.1026 14.4102 22.1587 14.7536C22.2148 15.0969 22.1498 15.4491 21.9749 15.7497L20.2647 18.7497C20.1332 18.9775 19.9439 19.1667 19.7161 19.2983C19.4884 19.4299 19.2299 19.4995 18.9669 19.4997C18.804 19.5009 18.6419 19.4759 18.4871 19.425L16.6722 18.8098C16.355 19.0189 16.024 19.2068 15.682 19.3723L15.2997 21.2627C15.2311 21.6078 15.0434 21.9179 14.7694 22.1386C14.4952 22.3594 14.1516 22.4764 13.7997 22.4697H10.2599C9.90791 22.4764 9.56439 22.3594 9.29016 22.1386C9.0161 21.9179 8.82849 21.6078 8.75989 21.2627L8.37757 19.3723C8.03795 19.2068 7.70932 19.0189 7.39467 18.8098L5.57241 19.425C5.41755 19.4759 5.25496 19.501 5.09194 19.4997C4.82904 19.4994 4.57103 19.4299 4.34341 19.2983C4.11568 19.1667 3.92635 18.9775 3.79483 18.7497L2.02458 15.7497C1.84165 15.4461 1.77205 15.0875 1.82829 14.7375C1.88458 14.3874 2.06316 14.0684 2.33219 13.8374L3.75015 12.5776V11.4299L2.33219 10.1328C2.07057 9.90341 1.89686 9.58993 1.84074 9.24655C1.78464 8.90312 1.84952 8.55047 2.02458 8.24973L3.79483 5.24973C3.92635 5.02201 4.11575 4.83274 4.34341 4.70114C4.57098 4.56966 4.82912 4.50006 5.09194 4.49973C5.25332 4.48875 5.41588 4.50435 5.57241 4.54514L7.35731 5.18967C7.67449 4.98057 8.00555 4.79259 8.34754 4.62717L8.72986 2.73752C8.79842 2.39236 8.98608 2.08228 9.26013 1.86154C9.53436 1.64079 9.87788 1.52301 10.2299 1.52975H13.7396ZM10.2299 2.99973L9.69739 5.69284C8.95541 5.96151 8.26708 6.35983 7.66493 6.86984L5.09194 5.99973L3.32242 8.99973L5.36221 10.8528C5.22358 11.629 5.22355 12.4239 5.36221 13.2002L3.32242 14.9997L5.09194 17.9997L7.67225 17.1596C8.27654 17.6628 8.96121 18.0611 9.69739 18.3374L10.2299 20.9997H13.7696L14.3021 18.3073C15.044 18.0387 15.7324 17.6403 16.3346 17.1303L18.9075 17.9997L20.6771 14.9997L18.6373 13.1474C18.7759 12.3711 18.7759 11.5763 18.6373 10.8L20.6771 8.99973L18.9075 5.99973L16.3272 6.83981C15.723 6.33671 15.0382 5.93911 14.3021 5.66281L13.7696 2.99973H10.2299ZM11.1219 7.58615C11.9948 7.41252 12.8998 7.50191 13.722 7.8425C14.5443 8.18308 15.2468 8.75999 15.7413 9.49997C16.2357 10.2399 16.5 11.1098 16.5001 11.9997C16.5061 12.5923 16.3937 13.1804 16.1698 13.729C15.9458 14.2776 15.6146 14.7763 15.1956 15.1953C14.7767 15.6143 14.2779 15.9454 13.7293 16.1694C13.1807 16.3934 12.5927 16.5057 12.0001 16.4997C11.1101 16.4997 10.2397 16.2361 9.49963 15.7417C8.75973 15.2472 8.18275 14.5445 7.84217 13.7224C7.5016 12.9002 7.41297 11.9952 7.58656 11.1223C7.76018 10.2494 8.1885 9.4474 8.81775 8.81809C9.44708 8.18876 10.249 7.75979 11.1219 7.58615ZM12.0001 8.99973C11.6038 8.99049 11.2095 9.06182 10.8414 9.2092C10.4733 9.35669 10.1382 9.57769 9.85779 9.85812C9.57745 10.1385 9.35706 10.473 9.2096 10.841C9.0805 11.1633 9.00956 11.5056 9.00012 11.8518V12.1484C9.00958 12.4946 9.08052 12.837 9.2096 13.1592C9.35708 13.5272 9.57744 13.8617 9.85779 14.1421C10.1382 14.4225 10.4733 14.6428 10.8414 14.7903C11.1635 14.9193 11.5054 14.9903 11.8514 14.9997H12.1488C12.4948 14.9902 12.8368 14.9193 13.1588 14.7903C13.5269 14.6428 13.8613 14.4224 14.1417 14.1421C14.4221 13.8617 14.6431 13.5272 14.7906 13.1592C14.9381 12.791 15.0093 12.3962 15.0001 11.9997C15.0093 11.6033 14.9381 11.2091 14.7906 10.841C14.6431 10.4729 14.4221 10.1386 14.1417 9.85812C13.8613 9.57772 13.5269 9.35668 13.1588 9.2092C12.7907 9.06177 12.3965 8.99052 12.0001 8.99973Z" fill="#1E1E1E"/>
</svg>
