<svg width="16" height="16" viewBox="0 0 16 16" fill="none" xmlns="http://www.w3.org/2000/svg">
<path d="M12 1V2H13V5C13 5.53043 12.7893 6.03914 12.4142 6.41421C12.0391 6.78929 11.5304 7 11 7C10.4696 7 9.96086 6.78929 9.58579 6.41421C9.21071 6.03914 9 5.53043 9 5V2H10V1H8V5C8.00123 5.7083 8.25281 6.39336 8.71029 6.9341C9.16777 7.47485 9.80169 7.83645 10.5 7.955V11C10.5 11.7956 10.1839 12.5587 9.62132 13.1213C9.05871 13.6839 8.29565 14 7.5 14C6.70435 14 5.94129 13.6839 5.37868 13.1213C4.81607 12.5587 4.5 11.7956 4.5 11V7.92895C4.97133 7.80725 5.3821 7.51784 5.6553 7.11495C5.92851 6.71206 6.0454 6.22336 5.98406 5.74045C5.92272 5.25754 5.68737 4.81358 5.32212 4.49179C4.95686 4.16999 4.48679 3.99246 4 3.99246C3.51321 3.99246 3.04314 4.16999 2.67788 4.49179C2.31263 4.81358 2.07728 5.25754 2.01594 5.74045C1.9546 6.22336 2.07149 6.71206 2.3447 7.11495C2.61791 7.51784 3.02867 7.80725 3.5 7.92895V11C3.5 12.0609 3.92143 13.0783 4.67157 13.8284C5.42172 14.5786 6.43914 15 7.5 15C8.56087 15 9.57828 14.5786 10.3284 13.8284C11.0786 13.0783 11.5 12.0609 11.5 11V7.955C12.1983 7.83645 12.8322 7.47485 13.2897 6.9341C13.7472 6.39336 13.9988 5.7083 14 5V1H12ZM3 6C3 5.80222 3.05865 5.60888 3.16853 5.44443C3.27841 5.27998 3.43459 5.15181 3.61732 5.07612C3.80004 5.00043 4.00111 4.98063 4.19509 5.01921C4.38907 5.0578 4.56726 5.15304 4.70711 5.29289C4.84696 5.43275 4.9422 5.61093 4.98079 5.80491C5.01937 5.99889 4.99957 6.19996 4.92388 6.38268C4.84819 6.56541 4.72002 6.72159 4.55557 6.83147C4.39112 6.94135 4.19778 7 4 7C3.73488 6.9997 3.4807 6.89424 3.29323 6.70677C3.10576 6.5193 3.00031 6.26512 3 6Z" fill="#1E1E1E"/>
</svg>
