<svg width="16" height="16" viewBox="0 0 16 16" fill="none" xmlns="http://www.w3.org/2000/svg">
<path d="M8.5 15.0024H7.5V12.5024H8.5V15.0024ZM5.15674 11.5527L3.40381 13.3057L2.69678 12.5986L4.44971 10.8457L5.15674 11.5527ZM13.3032 12.5986L12.5962 13.3057L10.8433 11.5527L11.5503 10.8457L13.3032 12.5986ZM8 5.00244C8.79565 5.00244 9.55848 5.31874 10.1211 5.88135C10.6837 6.44396 11 7.20679 11 8.00244C11 8.59569 10.8242 9.17565 10.4946 9.66895C10.165 10.1623 9.69613 10.5469 9.14795 10.7739C8.59978 11.001 7.99648 11.0606 7.41455 10.9448C6.83267 10.829 6.29842 10.5431 5.87891 10.1235C5.45939 9.70402 5.17339 9.16977 5.05762 8.58789C4.94186 8.00596 5.00146 7.40266 5.22852 6.85449C5.45558 6.30631 5.84015 5.83746 6.3335 5.50781C6.82679 5.17827 7.40675 5.00244 8 5.00244ZM8 6.00244C7.46975 6.00304 6.96137 6.21392 6.58643 6.58887C6.21148 6.96381 6.0006 7.47219 6 8.00244C6 8.398 6.11715 8.78487 6.33691 9.11377C6.55667 9.44264 6.86943 9.69873 7.23486 9.8501C7.60027 10.0014 8.00224 10.041 8.39014 9.96387C8.7781 9.8867 9.13436 9.69621 9.41406 9.4165C9.69377 9.1368 9.88426 8.78054 9.96143 8.39258C10.0386 8.00468 9.99897 7.60271 9.84766 7.2373C9.69629 6.87188 9.4402 6.55912 9.11133 6.33936C8.78243 6.11959 8.39556 6.00244 8 6.00244ZM3.5 8.50244H1V7.50244H3.5V8.50244ZM15 8.50244H12.5V7.50244H15V8.50244ZM5.15674 4.45215L4.44971 5.15918L2.69678 3.40625L3.40381 2.69922L5.15674 4.45215ZM13.3032 3.40625L11.5503 5.15918L10.8433 4.45215L12.5962 2.69922L13.3032 3.40625ZM8.5 1.00244V3.50244H7.5V1.00244H8.5Z" fill="white"/>
</svg>
