<svg width="16" height="16" viewBox="0 0 16 16" fill="none" xmlns="http://www.w3.org/2000/svg">
<path d="M7.99967 1C8.66269 1 9.29841 1.26361 9.76724 1.73242C10.2361 2.20126 10.4997 2.83696 10.4997 3.5V9.05566C10.982 9.54755 11.3079 10.171 11.4372 10.8477C11.5664 11.5243 11.4933 12.2244 11.2262 12.8594C10.9591 13.4943 10.5101 14.0362 9.93619 14.417C9.36221 14.7978 8.68849 15.0007 7.99967 15C7.31082 15.0007 6.63713 14.7978 6.06314 14.417C5.48921 14.0361 5.04019 13.4943 4.7731 12.8594C4.50606 12.2244 4.43296 11.5243 4.56217 10.8477C4.69141 10.1711 5.01743 9.54753 5.49967 9.05566V3.5C5.49967 2.83698 5.76328 2.20126 6.23209 1.73242C6.70091 1.2636 7.33666 1.00002 7.99967 1ZM7.99967 2C7.60201 2.00046 7.22031 2.15826 6.93912 2.43945C6.65794 2.72066 6.5001 3.10233 6.49967 3.5V9.49219L6.33365 9.64062C5.95618 9.978 5.68959 10.4221 5.56998 10.9141C5.45042 11.4061 5.48317 11.9234 5.66373 12.3965C5.84429 12.8695 6.16477 13.2763 6.5817 13.5635C6.99874 13.8507 7.49331 14.0049 7.99967 14.0049C8.50606 14.0049 9.00057 13.8507 9.41764 13.5635C9.83462 13.2763 10.155 12.8695 10.3356 12.3965C10.5162 11.9234 10.5489 11.4061 10.4294 10.9141C10.3097 10.4221 10.0431 9.978 9.66568 9.64062L9.49967 9.49219V3.5C9.49923 3.10231 9.34142 2.72066 9.06021 2.43945C8.77901 2.15827 8.39734 2.00044 7.99967 2ZM8.49967 6V10.0918C8.83322 10.2097 9.11457 10.4419 9.29361 10.7471C9.47263 11.0522 9.53797 11.4111 9.47818 11.7598C9.41835 12.1085 9.237 12.4252 8.96646 12.6533C8.69596 12.8813 8.35342 13.0059 7.99967 13.0059C7.64589 13.0058 7.30336 12.8813 7.03287 12.6533C6.76234 12.4252 6.58099 12.1085 6.52115 11.7598C6.46137 11.4111 6.52671 11.0522 6.70572 10.7471C6.88476 10.4419 7.16609 10.2097 7.49967 10.0918V6H8.49967Z" fill="#1E1E1E"/>
</svg>
