<svg width="25" height="24" viewBox="0 0 25 24" fill="none" xmlns="http://www.w3.org/2000/svg">
<path d="M9.5 16.5C9.89768 16.5005 10.2786 16.659 10.5598 16.9402C10.841 17.2214 10.9995 17.6023 11 18V21C10.9995 21.3977 10.841 21.7786 10.5598 22.0598C10.2786 22.341 9.89768 22.4995 9.5 22.5H3.5C3.10232 22.4995 2.72139 22.341 2.44019 22.0598C2.15898 21.7786 2.00046 21.3977 2 21V18C2.00046 17.6023 2.15898 17.2214 2.44019 16.9402C2.72139 16.659 3.10232 16.5005 3.5 16.5H9.5ZM3.5 21H9.5V18H3.5V21ZM21.5 9C21.8977 9.00046 22.2786 9.15898 22.5598 9.44019C22.841 9.72139 22.9995 10.1023 23 10.5V13.5C22.9995 13.8977 22.841 14.2786 22.5598 14.5598C22.2786 14.841 21.8977 14.9995 21.5 15H9.5C9.10232 14.9995 8.72139 14.841 8.44019 14.5598C8.15898 14.2786 8.00046 13.8977 8 13.5V10.5C8.00046 10.1023 8.15898 9.72139 8.44019 9.44019C8.72139 9.15898 9.10232 9.00046 9.5 9H21.5ZM9.5 13.5H21.5V10.5H9.5V13.5ZM12.5 1.5C12.8977 1.50046 13.2786 1.65898 13.5598 1.94019C13.841 2.22139 13.9995 2.60232 14 3V6C13.9995 6.39768 13.841 6.77861 13.5598 7.05981C13.2786 7.34102 12.8977 7.49954 12.5 7.5H3.5C3.10232 7.49954 2.72139 7.34102 2.44019 7.05981C2.15898 6.77861 2.00046 6.39768 2 6V3C2.00046 2.60232 2.15898 2.22139 2.44019 1.94019C2.72139 1.65898 3.10232 1.50046 3.5 1.5H12.5ZM3.5 6H12.5V3H3.5V6Z" fill="#1E1E1E"/>
</svg>
