<svg width="32" height="32" viewBox="0 0 32 32" fill="none" xmlns="http://www.w3.org/2000/svg">
<path d="M19 18C20.8565 18 22.6374 18.737 23.9502 20.0498C25.263 21.3626 26 23.1435 26 25V30H24V25C24 24.3435 23.8704 23.6935 23.6191 23.0869C23.3679 22.4803 22.9994 21.9291 22.5352 21.4648C22.0709 21.0006 21.5197 20.6321 20.9131 20.3809C20.3065 20.1296 19.6565 20 19 20H13C11.6739 20 10.4025 20.5272 9.46484 21.4648C8.52716 22.4025 8 23.6739 8 25V30H6V25C6 23.1435 6.73705 21.3626 8.0498 20.0498C9.36256 18.737 11.1435 18 13 18H19ZM16 2C17.8565 2 19.6374 2.73705 20.9502 4.0498C22.263 5.36256 23 7.14348 23 9C23 10.3844 22.5894 11.7376 21.8203 12.8887C21.0512 14.0398 19.9578 14.937 18.6787 15.4668C17.3997 15.9966 15.9925 16.1352 14.6348 15.8652C13.2769 15.5951 12.0288 14.9292 11.0498 13.9502C10.0708 12.9712 9.40486 11.7231 9.13477 10.3652C8.86476 9.00747 9.00343 7.60027 9.5332 6.32129C10.063 5.04223 10.9602 3.94884 12.1113 3.17969C13.2624 2.41062 14.6156 2 16 2ZM16 4C14.6739 4 13.4025 4.52716 12.4648 5.46484C11.5272 6.40253 11 7.67392 11 9C11 9.98891 11.2934 10.9561 11.8428 11.7783C12.3922 12.6004 13.1734 13.2408 14.0869 13.6191C15.0005 13.9975 16.0057 14.0972 16.9756 13.9043C17.9455 13.7114 18.8359 13.2344 19.5352 12.5352C20.2344 11.8359 20.7114 10.9455 20.9043 9.97559C21.0972 9.00575 20.9975 8.00049 20.6191 7.08691C20.2408 6.17342 19.6004 5.39217 18.7783 4.84277C17.9561 4.29337 16.9889 4 16 4Z" fill="#1E1E1E"/>
</svg>
