<svg width="16" height="16" viewBox="0 0 16 16" fill="none" xmlns="http://www.w3.org/2000/svg">
<path d="M8 1.5C8.09151 1.5 8.18155 1.52478 8.25977 1.57227C8.33797 1.61975 8.40114 1.68836 8.44336 1.76953L14.9434 14.2695C14.983 14.3457 15.0028 14.4308 15 14.5166C14.9972 14.6024 14.9723 14.6864 14.9277 14.7598C14.8832 14.8332 14.82 14.8934 14.7451 14.9355C14.6703 14.9777 14.5859 15 14.5 15H1.5C1.41412 15 1.32973 14.9777 1.25488 14.9355C1.18006 14.8934 1.11683 14.8332 1.07227 14.7598C1.0277 14.6864 1.00285 14.6024 1 14.5166C0.997165 14.4308 1.01704 14.3457 1.05664 14.2695L7.55664 1.76953C7.59884 1.68838 7.66206 1.61975 7.74023 1.57227C7.81844 1.52479 7.90851 1.50001 8 1.5ZM2.32422 13.998L2.3252 14H13.6748L13.6758 13.998L8.00098 3.08594H7.99902L2.32422 13.998ZM8 11.5C8.1989 11.5 8.38962 11.5791 8.53027 11.7197C8.67093 11.8604 8.75 12.0511 8.75 12.25C8.75 12.3983 8.70643 12.5437 8.62402 12.667C8.54161 12.7903 8.42414 12.8866 8.28711 12.9434C8.1501 13.0001 7.99896 13.0143 7.85352 12.9854C7.70813 12.9564 7.57455 12.8851 7.46973 12.7803C7.3649 12.6754 7.29361 12.5419 7.26465 12.3965C7.23571 12.251 7.25085 12.0999 7.30762 11.9629C7.36439 11.826 7.45977 11.7083 7.58301 11.626C7.70633 11.5436 7.85168 11.5 8 11.5ZM8.5 10.5H7.5V6H8.5V10.5Z" fill="#E0B209"/>
</svg>
