<svg width="16" height="16" viewBox="0 0 16 16" fill="none" xmlns="http://www.w3.org/2000/svg">
<path d="M7.99971 1C9.85618 1 11.6367 1.7376 12.9494 3.05029C14.2622 4.36305 14.9997 6.14348 14.9997 8C14.9997 9.38447 14.5892 10.738 13.82 11.8892C13.0509 13.0402 11.9579 13.9375 10.6789 14.4673C9.39991 14.9971 7.99227 15.1358 6.63448 14.8657C5.27661 14.5956 4.02898 13.9287 3.05001 12.9497C2.07112 11.9708 1.40458 10.7235 1.13448 9.36572C0.864384 8.00786 1.00311 6.60037 1.53292 5.32129C2.06273 4.04221 2.9599 2.94886 4.11104 2.17969C5.26211 1.4106 6.61535 1.00004 7.99971 1ZM10.2961 2.45654C9.19974 2.00242 7.99319 1.88372 6.8293 2.11523C5.66544 2.34675 4.59614 2.91822 3.75704 3.75732C2.91798 4.59642 2.34694 5.66575 2.11544 6.82959C1.88396 7.9934 2.00268 9.1996 2.45675 10.2959C2.91087 11.3923 3.68001 12.3295 4.66671 12.9888C5.65332 13.648 6.81315 14 7.99971 14C9.59097 14 11.1172 13.3678 12.2424 12.2427C13.3676 11.1175 13.9997 9.5913 13.9997 8C13.9997 6.81331 13.6478 5.6532 12.9885 4.6665C12.3292 3.67989 11.3924 2.91064 10.2961 2.45654ZM7.99971 11C8.19863 11 8.38982 11.0791 8.53048 11.2197C8.67104 11.3604 8.74971 11.5512 8.74971 11.75C8.74971 11.8982 8.70605 12.0432 8.62374 12.1665C8.54133 12.2898 8.42387 12.3861 8.28682 12.4429C8.14982 12.4996 7.99916 12.5143 7.85372 12.4854C7.70823 12.4564 7.57433 12.3852 7.46944 12.2803C7.36464 12.1754 7.29331 12.0419 7.26436 11.8965C7.23542 11.751 7.25008 11.5999 7.30684 11.4629C7.3636 11.3259 7.4599 11.2089 7.58321 11.1265C7.70649 11.0441 7.85145 11 7.99971 11ZM8.49971 9.5H7.49971V4H8.49971V9.5Z" fill="#FF3300"/>
</svg>
