<svg width="16" height="16" viewBox="0 0 16 16" fill="none" xmlns="http://www.w3.org/2000/svg">
<path fill-rule="evenodd" clip-rule="evenodd" d="M8 1C9.24264 1 10.25 2.00736 10.25 3.25C10.25 3.71264 10.11 4.14243 9.8706 4.5H11.6328L11.7251 4.50439C12.1817 4.54642 12.5565 4.89665 12.6226 5.3584L13.8369 13.8584C13.9176 14.4231 13.5119 14.9322 12.9595 14.9937L12.8472 15H3.15283C2.58241 14.9999 2.13601 14.5262 2.15332 13.9707L2.16308 13.8584L3.37744 5.3584C3.44789 4.86588 3.86965 4.50005 4.36719 4.5H6.12939C5.88998 4.14243 5.75 3.71264 5.75 3.25C5.75 2.00736 6.75736 1 8 1ZM3.15283 14H12.8472L11.6328 5.5H4.36719L3.15283 14ZM8 2C7.30964 2 6.75 2.55964 6.75 3.25C6.75 3.94036 7.30964 4.5 8 4.5C8.69035 4.5 9.25 3.94036 9.25 3.25C9.25 2.55964 8.69035 2 8 2Z" fill="#1E1E1E"/>
</svg>
